# 3ds Max Wavefront OBJ Exporter v0.99 - (c)2007 guruware
# File Created: 20.06.2022 19:05:59

#
# object Box001
#

v  1.2205 30.2553 1.8572
v  2.0647 28.0884 3.1419
v  2.9506 28.0884 2.5598
v  4.7967 28.1272 1.3136
v  9.0229 28.2898 -1.6082
v  8.2583 30.2554 -2.7742
v  -5.8242 30.2526 6.4820
v  -5.0597 28.2926 7.6434
v  -0.7206 28.1274 4.9390
v  1.1558 28.0884 3.7392
v  0.2366 25.7012 6.2872
v  0.6707 27.0124 4.9713
v  0.6771 26.9972 4.9799
v  -2.8192 25.7008 8.2946
v  -13.4790 -2.4412 0.8955
v  -3.6616 -2.5383 -5.5721
v  -2.4526 -0.1074 -3.7323
v  -9.9192 -0.0883 1.1821
v  -4.8414 -4.8991 -7.3674
v  -15.5043 -4.8538 -0.3414
v  6.1707 -2.4412 -12.0169
v  5.8390 -4.8538 -14.3669
v  5.0211 -0.0883 -8.6357
v  8.7329 25.7011 0.7032
v  4.2797 26.9973 2.6126
v  4.2742 27.0123 2.6034
v  5.6542 25.7012 2.7271
v  0.5741 12.4912 0.8736
v  -8.8716 12.7484 6.3499
v  9.3489 12.7484 -5.6234
v  3.7845 25.5177 3.9458
v  2.9455 25.4742 4.4823
v  9.5970 25.3714 -0.0151
v  9.8590 24.4212 -0.6159
v  -3.8200 25.3696 8.8026
v  -4.4773 24.4198 8.8049
v  2.0972 25.5177 5.0545
v  10.0418 12.7674 -8.5792
v  8.9654 12.7155 -10.2851
v  10.2378 26.8340 -2.8466
v  9.3529 28.7851 -4.2910
v  -11.8596 12.7674 5.8129
v  -6.6780 26.8360 8.2661
v  -12.9983 12.7155 4.1480
v  -7.6417 28.7848 6.8888
v  9.9352 27.7911 -2.2364
v  9.0835 29.8930 -3.5189
v  -6.8287 29.8874 6.9451
v  -6.0025 27.7956 8.2295
v  3.7484 27.8156 2.2670
v  0.5706 27.8156 4.3553
v  1.2425 26.1941 5.2901
v  4.3398 26.1941 3.2547
v  2.7267 27.7990 2.2190
v  1.8407 27.7990 2.8011
v  0.9965 29.9659 1.5164
v  7.9820 29.9659 -3.0741
v  8.7420 28.0151 -1.9174
v  4.5727 27.8379 0.9728
v  -5.2290 28.0151 7.2634
v  -5.9891 29.9659 6.1068
v  0.9319 27.7990 3.3984
v  -0.9445 27.8381 4.5983
v  0.4529 26.7081 4.6392
v  0.4467 26.7231 4.6305
v  -0.0321 25.6321 5.8713
v  -3.0695 25.6321 7.8673
v  -2.6849 0.1591 -4.0858
v  -3.8647 -2.2018 -5.8812
v  -13.5110 -2.2018 0.4577
v  -10.1003 0.1591 0.7870
v  -5.0445 -4.5627 -7.6765
v  -15.6088 -4.5627 -0.7343
v  5.7815 -2.2018 -12.2201
v  5.5199 -4.5627 -14.6187
v  4.7304 0.1591 -8.9587
v  8.4394 25.6321 0.3044
v  5.3791 25.6321 2.3154
v  4.0501 26.7231 2.2625
v  4.0557 26.7081 2.2717
v  -8.9443 12.8956 5.8776
v  0.3183 12.6731 0.4843
v  8.9443 12.8956 -5.8776
v  2.6849 25.6321 4.0858
v  3.5171 25.6321 3.5390
v  9.2095 25.3518 -0.3304
v  9.4347 24.5110 -0.8646
v  -3.9578 25.3518 8.3223
v  1.8298 25.6321 4.6478
v  -4.5375 24.5110 8.3170
v  9.5524 12.7986 -8.4822
v  8.5404 12.7017 -10.0222
v  9.7432 26.7666 -2.8196
v  8.8849 28.6634 -4.1639
v  -11.5763 12.7986 5.4022
v  -6.4544 26.7666 7.8244
v  -12.5883 12.7017 3.8622
v  -7.3477 28.6634 6.5031
v  8.6732 29.6403 -3.6524
v  9.4999 27.5950 -2.3848
v  -5.9587 27.5950 7.7736
v  -6.7942 29.6403 6.5118
v  3.5245 27.5262 1.9262
v  0.3466 27.5262 4.0145
v  1.0186 25.9048 4.9493
v  4.1159 25.9048 2.9140
v  12.7476 73.3659 19.3988
v  11.8925 73.3659 19.9607
v  13.5798 73.3659 18.8519
v  13.9744 73.7592 17.3657
v  13.9669 73.7647 17.3534
v  11.6136 74.1581 17.6731
v  12.4995 74.1581 17.0909
v  10.7048 74.1581 18.2703
v  10.3635 73.7647 19.7213
v  10.3717 73.7592 19.7331
v  11.0448 73.4656 20.2067
v  14.1421 73.4656 18.1714
v  13.3338 74.0583 16.8536
v  10.1559 74.0583 18.9419
# 120 vertices

vn 0.0000 0.5788 0.8155
vn 0.0000 0.5786 0.8156
vn 0.0029 0.5757 0.8176
vn 0.1432 0.5419 0.8282
vn 0.1406 0.5771 0.8045
vn -0.1437 0.5726 0.8072
vn -0.1476 0.5446 0.8255
vn -0.0007 0.5787 0.8155
vn -0.0054 0.5393 0.8421
vn -0.0032 0.5509 0.8346
vn 0.3737 0.4424 0.8152
vn -0.0912 0.5252 0.8461
vn -0.4439 -0.4736 0.7607
vn 0.0000 -0.6722 0.7404
vn 0.0000 -0.5327 0.8463
vn -0.1285 -0.4990 0.8570
vn 0.0000 -0.6715 0.7410
vn -0.2634 -0.5771 0.7730
vn 0.4439 -0.4736 0.7607
vn 0.2634 -0.5771 0.7730
vn 0.1285 -0.4990 0.8570
vn 0.0932 0.5246 0.8463
vn 0.0001 0.5785 0.8156
vn 0.1617 0.4361 0.8852
vn 0.0012 0.5343 0.8453
vn 0.0000 -0.3628 0.9319
vn -0.4013 -0.2939 0.8675
vn 0.4013 -0.2939 0.8675
vn 0.0131 -0.3163 0.9485
vn 0.0000 -0.3156 0.9489
vn 0.3132 -0.1714 0.9341
vn 0.0002 -0.3557 0.9346
vn 0.0236 -0.3328 0.9428
vn 0.4306 -0.1787 0.8846
vn -0.0235 -0.3329 0.9427
vn -0.0001 -0.3530 0.9356
vn -0.3077 -0.1719 0.9359
vn -0.4302 -0.1808 0.8845
vn -0.0131 -0.3163 0.9485
vn 0.9230 -0.0666 0.3791
vn 0.9988 0.0159 0.0459
vn 0.8549 0.1357 0.5008
vn 0.9104 0.2567 0.3247
vn -0.9229 -0.0667 0.3791
vn -0.8566 0.1394 0.4969
vn -0.9988 0.0158 0.0459
vn -0.9043 0.2570 0.3407
vn 0.2502 0.5049 0.8261
vn 0.3041 0.5636 0.7680
vn -0.2937 0.5563 0.7773
vn -0.2496 0.5094 0.8236
vn -0.2309 0.4521 0.8615
vn 0.2296 0.4545 0.8606
vn 0.8479 0.3279 0.4166
vn 0.7665 0.2559 0.5891
vn -0.7781 0.2622 0.5708
vn -0.8517 0.3128 0.4203
vn 0.0045 0.4854 0.8742
vn -0.0045 0.4854 0.8742
vn -0.0374 0.4132 0.9099
vn 0.0374 0.4132 0.9099
vn 0.0000 -0.5786 -0.8156
vn -0.1324 -0.5789 -0.8046
vn -0.1298 -0.5495 -0.8253
vn 0.1344 -0.5549 -0.8210
vn 0.1366 -0.5732 -0.8080
vn -0.0002 -0.5785 -0.8157
vn -0.0001 -0.5785 -0.8156
vn 0.0849 -0.5387 -0.8382
vn 0.0000 0.5329 -0.8461
vn 0.0000 0.6731 -0.7396
vn 0.4274 0.4788 -0.7668
vn 0.1312 0.4947 -0.8591
vn 0.2568 0.5823 -0.7714
vn -0.4274 0.4788 -0.7668
vn -0.2568 0.5823 -0.7714
vn -0.1312 0.4947 -0.8591
vn -0.0873 -0.5399 -0.8372
vn 0.3971 0.2945 -0.8692
vn 0.0000 0.3638 -0.9315
vn -0.3971 0.2944 -0.8692
vn 0.0000 0.3155 -0.9490
vn -0.0135 0.3332 -0.9427
vn 0.0000 0.3584 -0.9336
vn -0.3193 0.1747 -0.9315
vn -0.4360 0.1795 -0.8818
vn 0.3126 0.1747 -0.9337
vn 0.0135 0.3333 -0.9428
vn 0.4354 0.1825 -0.8815
vn -0.9247 0.0625 -0.3754
vn -0.9992 -0.0276 -0.0274
vn -0.8565 -0.1347 -0.4983
vn -0.9219 -0.2433 -0.3015
vn 0.9247 0.0625 -0.3754
vn 0.8591 -0.1386 -0.4927
vn 0.9992 -0.0276 -0.0274
vn 0.9151 -0.2429 -0.3217
vn -0.2955 -0.5677 -0.7684
vn -0.2254 -0.5149 -0.8271
vn 0.2260 -0.5219 -0.8225
vn 0.2823 -0.5585 -0.7799
vn 0.2232 -0.4602 -0.8593
vn -0.2204 -0.4687 -0.8555
vn -0.7808 -0.2537 -0.5710
vn -0.8714 -0.3043 -0.3848
vn 0.7935 -0.2611 -0.5497
vn 0.8754 -0.2860 -0.3897
vn 0.1081 0.7985 -0.5922
vn 0.0000 0.8156 -0.5786
vn 0.0000 0.8155 -0.5787
vn 0.0944 0.7923 -0.6028
vn 0.0000 -0.8156 0.5786
vn -0.1909 -0.8006 0.5680
vn -0.0897 0.7980 -0.5960
vn -0.0868 0.8056 -0.5861
vn 0.1909 -0.8006 0.5680
vn -0.9997 -0.0197 0.0143
vn -0.9997 -0.0197 0.0142
vn -0.9996 -0.0229 0.0163
vn -0.9996 -0.0230 0.0163
vn -0.0035 -0.7963 -0.6049
vn 0.0017 -0.7404 -0.6722
vn -0.0036 -0.7975 -0.6033
vn 0.0000 -0.7981 -0.6025
vn 0.0001 -0.7965 -0.6047
vn 0.9997 -0.0200 0.0139
vn 0.9997 -0.0199 0.0138
vn 0.9996 -0.0240 0.0169
vn 0.9996 -0.0241 0.0170
vn -0.1528 0.9592 0.2382
vn 0.0157 0.9529 0.3031
vn 0.0153 0.9530 0.3028
vn -0.2130 0.9683 0.1306
vn 0.3183 0.9414 0.1117
vn 0.2673 0.9343 0.2356
vn 0.9558 0.0639 -0.2871
vn 0.0193 0.3080 -0.9512
vn 0.0260 0.3073 -0.9513
vn 0.9597 0.0598 -0.2744
vn 0.2192 0.4062 -0.8871
vn 0.1829 0.4076 -0.8947
vn -0.2204 0.3619 -0.9058
vn -0.0256 0.2935 -0.9556
vn -0.0203 0.2931 -0.9558
vn -0.2484 0.3886 -0.8873
vn -0.9625 0.0824 -0.2583
vn -0.9565 0.0880 -0.2780
vn 0.3383 0.6144 -0.7127
vn 0.2633 0.6243 -0.7354
vn -0.2849 0.6291 -0.7233
vn -0.2910 0.6666 -0.6863
vn -0.3747 -0.7562 0.5364
vn 0.3747 -0.7562 0.5364
vn 0.9573 0.2357 -0.1672
vn 0.9694 -0.2004 0.1419
vn 0.9694 -0.2003 0.1421
vn 0.9694 -0.2003 0.1418
vn -0.9573 0.2358 -0.1671
vn -0.8142 0.5261 -0.2452
vn -0.8434 0.4383 -0.3109
vn -0.9573 0.2359 -0.1670
vn -0.9694 -0.2003 0.1421
vn -0.9694 -0.2003 0.1422
vn 0.3685 0.7582 -0.5379
vn 0.4603 0.8203 -0.3396
vn 0.0000 -0.3584 0.9336
vn -0.1587 -0.3538 0.9217
vn -0.1476 -0.3545 0.9234
vn 0.1476 -0.3545 0.9234
vn 0.1587 -0.3538 0.9217
vn -0.9996 0.0104 -0.0272
vn 0.1616 0.3537 -0.9214
vn 0.1716 0.3531 -0.9198
vn -0.1716 0.3531 -0.9198
vn -0.1616 0.3537 -0.9214
vn 0.9996 0.0104 -0.0272
vn -0.3134 -0.3403 0.8865
vn 0.3134 -0.3403 0.8865
vn 0.9567 0.1044 -0.2719
vn 0.9401 -0.1222 0.3183
vn 0.3189 0.3397 -0.8848
vn -0.3189 0.3397 -0.8848
vn -0.9401 -0.1222 0.3183
vn -0.9567 0.1044 -0.2719
vn 0.0000 0.9337 0.3582
vn 0.0003 -0.9338 -0.3579
# 186 vertex normals

vt 0.0970 0.3685 0.0000
vt 0.1287 0.3685 0.0000
vt 0.1287 0.3837 0.0000
vt 0.1281 0.4156 0.0000
vt 0.1257 0.4893 0.0000
vt 0.0969 0.4893 0.0000
vt 0.0970 0.2477 0.0000
vt 0.1256 0.2477 0.0000
vt 0.1281 0.3210 0.0000
vt 0.1287 0.3529 0.0000
vt 0.1627 0.3218 0.0000
vt 0.1445 0.3374 0.0000
vt 0.1447 0.3374 0.0000
vt 0.1627 0.2694 0.0000
vt 0.5318 0.1967 0.0000
vt 0.7003 0.1953 0.0000
vt 0.7003 0.2392 0.0000
vt 0.5722 0.2395 0.0000
vt 0.7003 0.1527 0.0000
vt 0.5173 0.1534 0.0000
vt 0.8689 0.1967 0.0000
vt 0.8834 0.1534 0.0000
vt 0.8285 0.2395 0.0000
vt 0.1627 0.4676 0.0000
vt 0.1447 0.3992 0.0000
vt 0.1445 0.3992 0.0000
vt 0.1627 0.4148 0.0000
vt 0.7003 0.4362 0.0000
vt 0.5440 0.4365 0.0000
vt 0.8567 0.4365 0.0000
vt 0.7146 0.6328 0.0000
vt 0.7003 0.6321 0.0000
vt 0.8155 0.6302 0.0000
vt 0.7995 0.6353 0.0000
vt 0.7466 0.6353 0.0000
vt 0.8233 0.6157 0.0000
vt 0.6537 0.6353 0.0000
vt 0.6013 0.6353 0.0000
vt 0.5853 0.6302 0.0000
vt 0.5774 0.6156 0.0000
vt 0.6857 0.6328 0.0000
vt 0.8882 0.4260 0.0000
vt 0.2953 0.4215 0.0000
vt 0.3224 0.4114 0.0000
vt 0.3256 0.6409 0.0000
vt 0.3078 0.6836 0.0000
vt 0.3231 0.1978 0.0000
vt 0.2911 0.1793 0.0000
vt 0.3569 0.2228 0.0000
vt 0.3508 0.4019 0.0000
vt 0.4345 0.4009 0.0000
vt 0.4064 0.3904 0.0000
vt 0.4066 0.2113 0.0000
vt 0.4412 0.1875 0.0000
vt 0.4612 0.4120 0.0000
vt 0.4737 0.1700 0.0000
vt 0.4232 0.6302 0.0000
vt 0.4395 0.6735 0.0000
vt 0.5125 0.4260 0.0000
vt 0.1279 0.5052 0.0000
vt 0.0965 0.5050 0.0000
vt 0.0966 0.2320 0.0000
vt 0.1278 0.2318 0.0000
vt 0.1627 0.2534 0.0000
vt 0.1627 0.4836 0.0000
vt 0.2926 0.1619 0.0000
vt 0.3233 0.1832 0.0000
vt 0.0328 0.1993 0.0000
vt 0.0427 0.1530 0.0000
vt 0.0593 0.1527 0.0000
vt 0.0496 0.1991 0.0000
vt 0.2116 0.5140 0.0000
vt 0.1641 0.5140 0.0000
vt 0.1678 0.4976 0.0000
vt 0.2153 0.4978 0.0000
vt 0.4416 0.1729 0.0000
vt 0.4728 0.1527 0.0000
vt 0.1327 0.3956 0.0000
vt 0.1327 0.3410 0.0000
vt 0.1564 0.3417 0.0000
vt 0.1564 0.3949 0.0000
vt 0.1636 0.3828 0.0000
vt 0.1636 0.3538 0.0000
vt 0.1958 0.3493 0.0000
vt 0.1958 0.3645 0.0000
vt 0.1641 0.3645 0.0000
vt 0.1641 0.2446 0.0000
vt 0.1926 0.2446 0.0000
vt 0.1952 0.3173 0.0000
vt 0.1926 0.4843 0.0000
vt 0.1641 0.4843 0.0000
vt 0.1958 0.3800 0.0000
vt 0.1952 0.4120 0.0000
vt 0.2117 0.3956 0.0000
vt 0.2115 0.3956 0.0000
vt 0.2275 0.4111 0.0000
vt 0.2275 0.4632 0.0000
vt 0.8760 0.8182 0.0000
vt 0.9187 0.8182 0.0000
vt 0.9187 0.9837 0.0000
vt 0.8760 0.9455 0.0000
vt 0.9613 0.8182 0.0000
vt 0.9613 0.9995 0.0000
vt 0.9187 0.6527 0.0000
vt 0.9613 0.6370 0.0000
vt 0.8760 0.6910 0.0000
vt 0.2275 0.2657 0.0000
vt 0.2275 0.3182 0.0000
vt 0.2115 0.3337 0.0000
vt 0.2117 0.3337 0.0000
vt 0.6804 0.9717 0.0000
vt 0.6804 0.8182 0.0000
vt 0.6804 0.6648 0.0000
vt 0.4848 0.8182 0.0000
vt 0.4848 0.8040 0.0000
vt 0.4848 0.7720 0.0000
vt 0.4848 0.7195 0.0000
vt 0.4891 0.7053 0.0000
vt 0.5020 0.6984 0.0000
vt 0.4891 0.9312 0.0000
vt 0.4848 0.9170 0.0000
vt 0.4848 0.8649 0.0000
vt 0.4848 0.8329 0.0000
vt 0.5020 0.9381 0.0000
vt 0.6912 0.6370 0.0000
vt 0.4944 0.1953 0.0000
vt 0.4869 0.4228 0.0000
vt 0.4627 0.4121 0.0000
vt 0.4778 0.1527 0.0000
vt 0.4798 0.6347 0.0000
vt 0.4487 0.6519 0.0000
vt 0.5110 0.6120 0.0000
vt 0.5110 0.4336 0.0000
vt 0.2311 0.6198 0.0000
vt 0.2373 0.4415 0.0000
vt 0.2619 0.4316 0.0000
vt 0.2615 0.6435 0.0000
vt 0.2864 0.4217 0.0000
vt 0.2920 0.6618 0.0000
vt 0.2623 0.2040 0.0000
vt 0.2804 0.1619 0.0000
vt 0.6912 0.9995 0.0000
vt 0.1644 0.2318 0.0000
vt 0.1951 0.2318 0.0000
vt 0.1951 0.4971 0.0000
vt 0.1644 0.4971 0.0000
vt 0.2275 0.4774 0.0000
vt 0.2275 0.2515 0.0000
vt 0.4787 0.6469 0.0000
vt 0.4479 0.6665 0.0000
vt 0.1287 0.5056 0.0000
vt 0.1429 0.5089 0.0000
vt 0.1432 0.5527 0.0000
vt 0.1299 0.5486 0.0000
vt 0.0650 0.1991 0.0000
vt 0.0512 0.2004 0.0000
vt 0.0606 0.1576 0.0000
vt 0.0752 0.1573 0.0000
vt 0.2923 0.6765 0.0000
vt 0.2622 0.6558 0.0000
vt 0.1998 0.3374 0.0000
vt 0.1998 0.3919 0.0000
vt 0.2235 0.3912 0.0000
vt 0.2235 0.3381 0.0000
vt 0.2275 0.3502 0.0000
vt 0.2275 0.3791 0.0000
vt 0.3411 0.1587 0.0000
vt 0.2212 0.1587 0.0000
vt 0.2212 0.1527 0.0000
vt 0.3420 0.1527 0.0000
vt 0.2339 0.2592 0.0000
vt 0.2339 0.2744 0.0000
vt 0.2280 0.2744 0.0000
vt 0.2280 0.2592 0.0000
vt 0.1014 0.1587 0.0000
vt 0.1004 0.1528 0.0000
vt 0.2339 0.2436 0.0000
vt 0.2280 0.2436 0.0000
vt 0.7477 0.0423 0.0000
vt 0.7477 0.0420 0.0000
vt 0.7549 0.0421 0.0000
vt 0.7549 0.0423 0.0000
vt 0.0894 0.5961 0.0000
vt 0.0894 0.4149 0.0000
vt 0.0961 0.4149 0.0000
vt 0.0960 0.5980 0.0000
vt 0.0894 0.2336 0.0000
vt 0.0960 0.2318 0.0000
vt 0.0912 0.6054 0.0000
vt 0.0909 0.6055 0.0000
vt 0.0894 0.5985 0.0000
vt 0.0896 0.5984 0.0000
vt 0.1564 0.3828 0.0000
vt 0.1564 0.3685 0.0000
vt 0.1636 0.3685 0.0000
vt 0.1564 0.3538 0.0000
vt 0.4025 0.6774 0.0000
vt 0.4025 0.4180 0.0000
vt 0.4096 0.4178 0.0000
vt 0.4043 0.6793 0.0000
vt 0.3605 0.1782 0.0000
vt 0.3671 0.1758 0.0000
vt 0.0820 0.1782 0.0000
vt 0.0399 0.4180 0.0000
vt 0.0328 0.4178 0.0000
vt 0.0754 0.1758 0.0000
vt 0.0399 0.6774 0.0000
vt 0.0381 0.6793 0.0000
vt 0.3539 0.1636 0.0000
vt 0.3578 0.1585 0.0000
vt 0.0885 0.1636 0.0000
vt 0.0847 0.1585 0.0000
vt 0.2366 0.2863 0.0000
vt 0.2306 0.2863 0.0000
vt 0.2366 0.2318 0.0000
vt 0.2306 0.2318 0.0000
vt 0.0994 0.5840 0.0000
vt 0.0965 0.5693 0.0000
vt 0.1036 0.5679 0.0000
vt 0.1065 0.5826 0.0000
vt 0.7507 0.0211 0.0000
vt 0.7477 0.0065 0.0000
vt 0.7547 0.0051 0.0000
vt 0.7577 0.0197 0.0000
vt 0.7484 0.0389 0.0000
vt 0.7477 0.0239 0.0000
vt 0.7549 0.0236 0.0000
vt 0.7556 0.0386 0.0000
vt 0.0334 0.1125 0.0000
vt 0.0328 0.0977 0.0000
vt 0.0399 0.0974 0.0000
vt 0.0406 0.1122 0.0000
vt 0.1525 0.3949 0.0000
vt 0.1525 0.3417 0.0000
vt 0.7382 0.0273 0.0000
vt 0.0051 0.0273 0.0000
vt 0.0051 0.0126 0.0000
vt 0.7382 0.0126 0.0000
vt 0.7382 0.0415 0.0000
vt 0.0051 0.0415 0.0000
vt 0.0284 0.0651 0.0000
vt 0.0284 0.7877 0.0000
vt 0.0282 0.7877 0.0000
vt 0.0282 0.0652 0.0000
vt 0.7540 0.1152 0.0000
vt 0.0420 0.1152 0.0000
vt 0.0420 0.1000 0.0000
vt 0.7540 0.1000 0.0000
vt 0.7540 0.1308 0.0000
vt 0.0420 0.1308 0.0000
vt 0.7645 0.0837 0.0000
vt 0.0420 0.0837 0.0000
vt 0.0420 0.0835 0.0000
vt 0.7646 0.0835 0.0000
vt 0.0051 0.0005 0.0000
vt 0.7356 0.0005 0.0000
vt 0.7356 0.0536 0.0000
vt 0.0051 0.0536 0.0000
vt 0.0420 0.0558 0.0000
vt 0.7646 0.0558 0.0000
vt 0.7567 0.0684 0.0000
vt 0.0420 0.0684 0.0000
vt 0.0132 0.0638 0.0000
vt 0.0132 0.7863 0.0000
vt 0.0005 0.7863 0.0000
vt 0.0005 0.0558 0.0000
vt 0.0420 0.0881 0.0000
vt 0.7567 0.0881 0.0000
vt 0.7567 0.1427 0.0000
vt 0.0420 0.1427 0.0000
vt 0.0271 0.0651 0.0000
vt 0.0271 0.7876 0.0000
vt 0.0143 0.7955 0.0000
vt 0.0143 0.0651 0.0000
vt 0.0420 0.0697 0.0000
vt 0.7646 0.0697 0.0000
vt 0.7646 0.0822 0.0000
vt 0.0500 0.0822 0.0000
vt 0.1282 0.5510 0.0000
vt 0.1242 0.5631 0.0000
vt 0.1123 0.5674 0.0000
vt 0.1125 0.5674 0.0000
vt 0.1282 0.5367 0.0000
vt 0.0965 0.5211 0.0000
vt 0.1005 0.5093 0.0000
vt 0.1125 0.5056 0.0000
vt 0.1123 0.5056 0.0000
vt 0.0965 0.5367 0.0000
vt 0.1242 0.5100 0.0000
vt 0.0965 0.5519 0.0000
vt 0.1282 0.5220 0.0000
vt 0.1005 0.5638 0.0000
# 292 texture coords

o Box001
g Box001
s 1
f 1/1/1 2/2/2 3/3/2 
f 1/1/1 3/3/2 4/4/3 
f 1/1/1 4/4/3 5/5/4 
f 1/1/1 5/5/4 6/6/5 
f 1/1/1 7/7/6 8/8/7 
f 1/1/1 8/8/7 9/9/8 
f 1/1/1 9/9/8 10/10/2 
f 1/1/1 10/10/2 2/2/2 
f 11/11/9 12/12/10 13/13/11 
f 13/13/11 9/9/8 8/8/7 
f 11/11/9 13/13/11 8/8/7 
f 11/11/9 8/8/7 14/14/12 
s 2
f 15/15/13 16/16/14 17/17/15 
f 17/17/15 18/18/16 15/15/13 
f 19/19/17 16/16/14 15/15/13 
f 15/15/13 20/20/18 19/19/17 
f 21/21/19 16/16/14 19/19/17 
f 19/19/17 22/22/20 21/21/19 
f 17/17/15 16/16/14 21/21/19 
f 21/21/19 23/23/21 17/17/15 
s 1
f 24/24/22 5/5/4 4/4/3 
f 4/4/3 25/25/23 26/26/24 
f 24/24/22 4/4/3 26/26/24 
f 24/24/22 26/26/24 27/27/25 
s 2
f 17/17/15 28/28/26 29/29/27 
f 29/29/27 18/18/16 17/17/15 
f 30/30/28 28/28/26 17/17/15 
f 17/17/15 23/23/21 30/30/28 
f 31/31/29 32/32/30 28/28/26 
f 33/33/31 24/34/32 27/35/33 
f 34/36/34 33/33/31 27/35/33 
f 30/30/28 34/36/34 27/35/33 
f 28/28/26 30/30/28 27/35/33 
f 31/31/29 28/28/26 27/35/33 
f 11/37/35 14/38/36 35/39/37 
f 11/37/35 35/39/37 36/40/38 
f 11/37/35 36/40/38 29/29/27 
f 11/37/35 29/29/27 28/28/26 
f 28/28/26 32/32/30 37/41/39 
f 11/37/35 28/28/26 37/41/39 
f 21/21/19 38/42/40 30/30/28 
f 30/30/28 23/23/21 21/21/19 
f 39/43/41 38/44/40 21/45/19 
f 21/45/19 22/46/20 39/43/41 
f 40/47/42 38/44/40 39/43/41 
f 39/43/41 41/48/43 40/47/42 
f 38/44/40 40/47/42 34/49/34 
f 34/49/34 30/50/28 38/44/40 
f 42/51/44 29/52/27 36/53/38 
f 36/53/38 43/54/45 42/51/44 
f 44/55/46 42/51/44 43/54/45 
f 43/54/45 45/56/47 44/55/46 
f 15/57/13 42/51/44 44/55/46 
f 44/55/46 20/58/18 15/57/13 
f 29/29/27 42/59/44 15/15/13 
f 15/15/13 18/18/16 29/29/27 
s 1
f 46/60/48 47/61/49 6/6/5 
f 6/6/5 5/5/4 46/60/48 
f 48/62/50 49/63/51 8/8/7 
f 8/8/7 7/7/6 48/62/50 
f 49/63/51 35/64/52 14/14/12 
f 14/14/12 8/8/7 49/63/51 
f 33/65/53 46/60/48 5/5/4 
f 5/5/4 24/24/22 33/65/53 
s 2
f 47/66/54 46/67/55 40/47/42 
f 40/47/42 41/48/43 47/66/54 
f 46/68/55 33/69/31 34/70/34 
f 34/70/34 40/71/42 46/68/55 
f 35/72/37 49/73/56 43/74/45 
f 43/74/45 36/75/38 35/72/37 
f 49/76/56 48/77/57 45/56/47 
f 45/56/47 43/54/45 49/76/56 
s 1
f 3/3/2 50/78/2 4/4/3 
f 9/9/8 51/79/2 10/10/2 
f 11/11/9 52/80/58 12/12/10 
f 13/13/11 51/79/2 9/9/8 
f 26/26/24 53/81/59 27/27/25 
f 4/4/3 50/78/2 25/25/23 
f 27/27/25 53/81/59 31/82/60 
f 37/83/61 52/80/58 11/11/9 
f 54/84/62 55/85/62 56/86/62 
f 56/86/62 57/87/63 58/88/64 
f 56/86/62 58/88/64 59/89/62 
f 54/84/62 56/86/62 59/89/62 
f 60/90/65 61/91/66 56/86/62 
f 56/86/62 55/85/62 62/92/62 
f 56/86/62 62/92/62 63/93/62 
f 60/90/65 56/86/62 63/93/62 
f 64/94/67 65/95/68 66/96/62 
f 66/96/62 67/97/69 60/90/65 
f 64/94/67 66/96/62 60/90/65 
f 64/94/67 60/90/65 63/93/62 
s 2
f 68/98/70 69/99/71 70/100/72 
f 70/100/72 71/101/73 68/98/70 
f 70/100/72 69/99/71 72/102/71 
f 72/102/71 73/103/74 70/100/72 
f 72/102/71 69/99/71 74/104/75 
f 74/104/75 75/105/76 72/102/71 
f 74/104/75 69/99/71 68/98/70 
f 68/98/70 76/106/77 74/104/75 
s 1
f 59/89/62 58/88/64 77/107/78 
f 77/107/78 78/108/62 79/109/67 
f 59/89/62 77/107/78 79/109/67 
f 59/89/62 79/109/67 80/110/68 
s 2
f 81/111/79 82/112/80 68/98/70 
f 68/98/70 71/101/73 81/111/79 
f 68/98/70 82/112/80 83/113/81 
f 83/113/81 76/106/77 68/98/70 
f 82/112/80 84/114/82 85/115/82 
f 82/112/80 85/115/82 78/116/83 
f 78/116/83 77/117/84 86/118/85 
f 78/116/83 86/118/85 87/119/86 
f 78/116/83 87/119/86 83/113/81 
f 82/112/80 78/116/83 83/113/81 
f 88/120/87 67/121/84 66/122/88 
f 89/123/82 84/114/82 82/112/80 
f 66/122/88 89/123/82 82/112/80 
f 66/122/88 82/112/80 81/111/79 
f 66/122/88 81/111/79 90/124/89 
f 88/120/87 66/122/88 90/124/89 
f 83/113/81 91/125/90 74/104/75 
f 74/104/75 76/106/77 83/113/81 
f 74/126/75 91/127/90 92/128/91 
f 92/128/91 75/129/76 74/126/75 
f 92/128/91 91/127/90 93/130/92 
f 93/130/92 94/131/93 92/128/91 
f 87/132/86 93/130/92 91/127/90 
f 91/127/90 83/133/81 87/132/86 
f 90/134/89 81/135/79 95/136/94 
f 95/136/94 96/137/95 90/134/89 
f 96/137/95 95/136/94 97/138/96 
f 97/138/96 98/139/97 96/137/95 
f 97/138/96 95/136/94 70/140/72 
f 70/140/72 73/141/74 97/138/96 
f 70/100/72 95/142/94 81/111/79 
f 81/111/79 71/101/73 70/100/72 
s 1
f 57/87/63 99/143/98 100/144/99 
f 100/144/99 58/88/64 57/87/63 
f 60/90/65 101/145/100 102/146/101 
f 102/146/101 61/91/66 60/90/65 
f 67/97/69 88/147/102 101/145/100 
f 101/145/100 60/90/65 67/97/69 
f 58/88/64 100/144/99 86/148/103 
f 86/148/103 77/107/78 58/88/64 
s 2
f 93/130/92 100/149/104 99/150/105 
f 99/150/105 94/131/93 93/130/92 
f 87/151/86 86/152/85 100/153/104 
f 100/153/104 93/154/92 87/151/86 
f 96/155/95 101/156/106 88/157/87 
f 88/157/87 90/158/89 96/155/95 
f 98/139/97 102/159/107 101/160/106 
f 101/160/106 96/137/95 98/139/97 
s 1
f 59/89/62 103/161/62 54/84/62 
f 62/92/62 104/162/62 63/93/62 
f 65/95/68 105/163/62 66/96/62 
f 63/93/62 104/162/62 64/94/67 
f 78/108/62 106/164/62 79/109/67 
f 80/110/68 103/161/62 59/89/62 
f 85/165/62 106/164/62 78/108/62 
f 66/96/62 105/163/62 89/166/62 
s 4
f 57/167/108 56/168/109 1/169/110 
f 1/169/110 6/170/111 57/167/108 
s 2
f 55/171/112 54/172/113 3/173/113 
f 3/173/113 2/174/112 55/171/112 
s 4
f 56/168/109 61/175/114 7/176/115 
f 7/176/115 1/169/110 56/168/109 
s 2
f 62/177/116 55/171/112 2/174/112 
f 2/174/112 10/178/116 62/177/116 
f 65/179/117 64/180/118 13/181/119 
f 13/181/119 12/182/120 65/179/117 
s 1
f 73/183/121 72/184/122 19/185/122 
f 19/185/122 20/186/123 73/183/121 
f 72/184/122 75/187/124 22/188/125 
f 22/188/125 19/185/122 72/184/122 
s 2
f 80/189/126 79/190/127 26/191/128 
f 26/191/128 25/192/129 80/189/126 
s 4
f 85/193/130 84/194/131 32/195/132 
f 32/195/132 31/82/133 85/193/130 
f 84/194/131 89/196/134 37/83/135 
f 37/83/135 32/195/132 84/194/131 
s 12
f 75/197/136 92/198/137 39/199/138 
f 39/199/138 22/200/139 75/197/136 
s 4
f 92/198/137 94/201/140 41/202/141 
f 41/202/141 39/199/138 92/198/137 
f 98/203/142 97/204/143 44/205/144 
f 44/205/144 45/206/145 98/203/142 
s 12
f 97/204/143 73/207/146 20/208/147 
f 20/208/147 44/205/144 97/204/143 
s 4
f 99/209/148 57/167/108 6/170/111 
f 6/170/111 47/210/149 99/209/148 
f 61/175/114 102/211/150 48/212/151 
f 48/212/151 7/176/115 61/175/114 
f 94/201/140 99/209/148 47/210/149 
f 47/210/149 41/202/141 94/201/140 
f 102/211/150 98/203/142 45/206/145 
f 45/206/145 48/212/151 102/211/150 
s 2
f 54/172/113 103/213/152 50/214/152 
f 50/214/152 3/173/113 54/172/113 
f 104/215/153 62/177/116 10/178/116 
f 10/178/116 51/216/153 104/215/153 
s 8
f 105/217/154 65/218/154 12/219/154 
f 12/219/154 52/220/154 105/217/154 
s 4
f 64/221/155 104/222/156 51/223/156 
f 51/223/156 13/224/157 64/221/155 
s 8
f 79/225/158 106/226/159 53/227/160 
f 53/227/160 26/228/161 79/225/158 
s 4
f 103/229/162 80/230/163 25/231/162 
f 25/231/162 50/232/162 103/229/162 
s 12
f 106/233/159 85/193/130 31/82/133 
f 31/82/133 53/81/160 106/233/159 
s 4
f 89/196/134 105/234/164 52/80/165 
f 52/80/165 37/83/135 89/196/134 
s 2
f 84/235/166 107/236/166 108/237/167 
f 108/237/167 89/238/168 84/235/166 
f 85/239/169 109/240/170 107/236/166 
f 107/236/166 84/235/166 85/239/169 
f 80/241/171 110/242/171 111/243/171 
f 111/243/171 79/244/171 80/241/171 
f 55/245/84 112/246/84 113/247/172 
f 113/247/172 54/248/173 55/245/84 
f 62/249/174 114/250/175 112/246/84 
f 112/246/84 55/245/84 62/249/174 
f 65/251/176 115/252/176 116/253/176 
f 116/253/176 64/254/176 65/251/176 
f 89/238/168 108/237/167 117/255/177 
f 117/255/177 105/256/177 89/238/168 
f 109/240/170 85/239/169 106/257/178 
f 106/257/178 118/258/178 109/240/170 
s 4
f 110/259/179 80/260/179 103/261/179 
f 103/261/179 119/262/179 110/259/179 
f 79/263/180 111/264/180 118/265/180 
f 118/265/180 106/266/180 79/263/180 
s 2
f 54/248/173 113/247/172 119/267/181 
f 119/267/181 103/268/181 54/248/173 
f 114/250/175 62/249/174 104/269/182 
f 104/269/182 120/270/182 114/250/175 
s 4
f 115/271/183 65/272/183 105/273/183 
f 105/273/183 117/274/183 115/271/183 
f 64/275/184 116/276/184 120/277/184 
f 120/277/184 104/278/184 64/275/184 
s off
f 109/279/185 118/280/185 111/281/185 
f 109/279/186 111/281/186 110/282/186 
f 109/279/185 110/282/185 107/283/185 
f 114/284/185 120/285/185 116/286/185 
f 114/284/186 116/286/186 115/287/186 
f 112/288/185 114/284/185 115/287/185 
f 112/288/185 115/287/185 117/289/185 
f 117/289/185 113/290/185 112/288/185 
f 113/290/185 117/289/185 108/291/185 
f 108/291/185 119/292/185 113/290/185 
f 119/292/185 108/291/185 107/283/185 
f 107/283/185 110/282/185 119/292/185 
# 252 faces

