# 3ds Max Wavefront OBJ Exporter v0.99 - (c)2007 guruware
# File Created: 18.06.2022 20:54:39

mtllib lopata.mtl

#
# object Box001
#

v  0.0000 4.1464 17.0031
v  0.0000 1.9347 15.5310
v  1.0601 1.9347 15.5310
v  3.2872 1.9744 15.5574
v  8.4237 2.1455 15.6659
v  8.4250 4.1516 17.0012
v  -8.4271 4.1490 16.9992
v  -8.4260 2.1485 15.6677
v  -3.3146 1.9746 15.5575
v  -1.0875 1.9347 15.5310
v  -3.2550 -0.4375 13.8846
v  -2.1696 0.8365 14.8000
v  -2.1690 0.8211 14.7897
v  -6.9112 -0.4371 13.8840
v  -11.7563 0.7157 -16.7027
v  0.0000 0.6937 -16.7982
v  0.0000 -0.4905 -13.7398
v  -8.9387 -0.4897 -13.7196
v  0.0000 1.8532 -19.7721
v  -12.7696 1.8546 -19.7241
v  11.7563 0.7157 -16.7027
v  12.7696 1.8546 -19.7241
v  8.9387 -0.4897 -13.7196
v  6.9120 -0.4369 13.8843
v  2.1418 0.8211 14.7898
v  2.1423 0.8364 14.8000
v  3.2276 -0.4375 13.8846
v  0.0000 -1.1208 -0.0029
v  -10.9013 -0.4585 0.0183
v  10.9012 -0.4585 0.0183
v  0.9958 -0.4954 13.7103
v  0.0000 -0.4995 13.6653
v  8.0286 -0.4377 13.5314
v  8.5775 -0.4438 12.5160
v  -8.0265 -0.4390 13.5300
v  -8.5772 -0.4442 12.5146
v  -1.0232 -0.4954 13.7103
v  13.1035 1.4992 -0.7128
v  13.1408 3.3634 -1.4840
v  10.1191 1.9671 14.1750
v  10.1728 4.2469 15.3897
v  -13.1035 1.4992 -0.7128
v  -10.1204 1.9704 14.1758
v  -13.1408 3.3634 -1.4840
v  -10.1694 4.2374 15.3931
v  9.5311 1.9892 15.1917
v  9.5236 4.1797 16.6023
v  -9.5209 4.1718 16.5993
v  -9.5358 1.9965 15.1937
v  1.8876 1.6563 15.3457
v  -1.9150 1.6563 15.3457
v  -1.8668 0.0014 14.2441
v  1.8394 0.0014 14.2441
v  1.0601 2.2117 15.1147
v  0.0000 2.2117 15.1147
v  0.0000 4.4235 16.5868
v  8.3588 4.4235 16.5868
v  8.3588 2.4323 15.2615
v  3.2872 2.2514 15.1411
v  -8.3588 2.4323 15.2615
v  -8.3588 4.4235 16.5868
v  -1.0875 2.2117 15.1147
v  -3.3146 2.2516 15.1413
v  -2.1692 1.0982 14.3736
v  -2.1696 1.1136 14.3838
v  -3.2512 0.0000 13.6426
v  -6.8857 0.0000 13.6426
v  0.0000 0.0000 -13.6426
v  0.0000 1.1595 -16.6166
v  -11.5426 1.1595 -16.6166
v  -8.8731 0.0000 -13.6426
v  0.0000 2.3190 -19.5905
v  -12.6412 2.3190 -19.5905
v  11.5426 1.1595 -16.6166
v  12.6412 2.3190 -19.5905
v  8.8731 0.0000 -13.6426
v  6.8857 0.0000 13.6426
v  3.2238 0.0000 13.6426
v  2.1422 1.1136 14.3838
v  2.1418 1.0982 14.3736
v  -10.7027 0.0000 -0.0000
v  0.0000 -0.6208 -0.0000
v  10.7027 0.0000 -0.0000
v  0.0000 0.0000 13.6426
v  0.9958 0.0000 13.6426
v  7.8779 0.0000 13.3424
v  8.3595 0.0000 12.4418
v  -7.8779 0.0000 13.3424
v  -1.0232 0.0000 13.6426
v  -8.3595 0.0000 12.4418
v  12.6412 1.6856 -0.7509
v  12.6412 3.3712 -1.5018
v  9.6909 2.1755 14.0228
v  9.7119 4.3441 15.2221
v  -12.6412 1.6856 -0.7509
v  -9.6909 2.1755 14.0228
v  -12.6412 3.3712 -1.5018
v  -9.7119 4.3441 15.2221
v  9.2541 4.4036 16.2456
v  9.2488 2.2578 14.8785
v  -9.2488 2.2578 14.8785
v  -9.2541 4.4036 16.2456
v  1.8876 1.9333 14.9294
v  -1.9150 1.9333 14.9294
v  -1.8668 0.2784 13.8279
v  1.8394 0.2784 13.8279
v  0.0000 0.0000 64.7725
v  -1.0232 0.0000 64.7725
v  0.9958 0.0000 64.7725
v  2.1418 1.0982 64.7722
v  2.1422 1.1136 64.7722
v  0.0000 2.2117 64.7720
v  1.0601 2.2117 64.7720
v  -1.0875 2.2117 64.7720
v  -2.1696 1.1136 64.7722
v  -2.1692 1.0982 64.7722
v  -1.8668 0.2784 64.7724
v  1.8394 0.2784 64.7724
v  1.8876 1.9333 64.7720
v  -1.9150 1.9333 64.7720
# 120 vertices

vn -0.0000 -0.5539 0.8326
vn 0.0000 -0.5541 0.8325
vn -0.0000 -0.5541 0.8325
vn 0.0029 -0.5570 0.8305
vn 0.1432 -0.5790 0.8027
vn 0.1406 -0.5442 0.8271
vn -0.1437 -0.5484 0.8238
vn -0.1476 -0.5755 0.8043
vn -0.0007 -0.5540 0.8325
vn -0.0054 -0.5929 0.8053
vn -0.0032 -0.5817 0.8134
vn 0.3737 -0.6025 0.7052
vn -0.0912 -0.6017 0.7935
vn -0.4439 -0.8799 -0.1695
vn 0.0000 -0.9321 -0.3622
vn -0.0000 -0.9810 -0.1940
vn -0.1285 -0.9789 -0.1587
vn -0.0000 -0.9324 -0.3614
vn -0.2634 -0.9285 -0.2617
vn 0.4439 -0.8799 -0.1695
vn 0.2634 -0.9285 -0.2617
vn 0.1285 -0.9789 -0.1587
vn 0.0932 -0.6021 0.7930
vn 0.0001 -0.5541 0.8324
vn 0.1617 -0.6701 0.7244
vn 0.0012 -0.5977 0.8018
vn 0.0000 -1.0000 -0.0048
vn -0.4013 -0.9152 0.0365
vn 0.4013 -0.9152 0.0365
vn 0.0131 -0.9989 0.0446
vn 0.0000 -0.9990 0.0454
vn 0.3132 -0.9335 0.1747
vn 0.0002 -1.0000 0.0029
vn 0.0236 -0.9994 0.0272
vn 0.4306 -0.8899 0.1502
vn -0.0235 -0.9994 0.0271
vn -0.0001 -1.0000 0.0057
vn -0.3077 -0.9353 0.1749
vn -0.4302 -0.8905 0.1482
vn -0.0131 -0.9989 0.0446
vn 0.9230 -0.3778 0.0737
vn 0.9988 -0.0372 0.0313
vn 0.8549 -0.4189 0.3062
vn 0.9104 -0.2111 0.3560
vn -0.9229 -0.3778 0.0736
vn -0.8566 -0.4139 0.3082
vn -0.9988 -0.0372 0.0312
vn -0.9043 -0.2260 0.3620
vn 0.2502 -0.5903 0.7674
vn 0.3041 -0.5150 0.8014
vn -0.2937 -0.5263 0.7979
vn -0.2496 -0.5864 0.7707
vn -0.2309 -0.6423 0.7308
vn 0.2296 -0.6406 0.7327
vn 0.8479 -0.2714 0.4554
vn 0.7665 -0.4583 0.4500
vn -0.7781 -0.4389 0.4493
vn -0.8517 -0.2803 0.4427
vn 0.0045 -0.6422 0.7665
vn -0.0045 -0.6422 0.7665
vn -0.0374 -0.7014 0.7118
vn 0.0374 -0.7014 0.7118
vn 0.0000 0.5541 -0.8325
vn -0.1324 0.5437 -0.8288
vn -0.1298 0.5736 -0.8088
vn 0.1344 0.5676 -0.8123
vn 0.1366 0.5489 -0.8247
vn -0.0000 0.5541 -0.8325
vn -0.0002 0.5542 -0.8324
vn -0.0001 0.5541 -0.8324
vn 0.0849 0.5895 -0.8033
vn 0.0000 0.9809 0.1943
vn 0.0000 0.9317 0.3633
vn 0.4274 0.8875 0.1722
vn 0.1312 0.9793 0.1540
vn 0.2568 0.9288 0.2672
vn -0.4274 0.8875 0.1722
vn -0.2568 0.9288 0.2672
vn -0.1312 0.9793 0.1540
vn -0.0873 0.5881 -0.8041
vn 0.3971 0.9170 -0.0366
vn -0.0000 1.0000 0.0058
vn -0.3971 0.9170 -0.0367
vn 0.0000 0.9990 -0.0455
vn -0.0135 0.9995 -0.0268
vn 0.0000 1.0000 -0.0000
vn -0.3193 0.9322 -0.1707
vn -0.4360 0.8876 -0.1484
vn 0.3126 0.9343 -0.1715
vn 0.0135 0.9996 -0.0267
vn 0.4354 0.8884 -0.1455
vn -0.9247 0.3729 -0.0762
vn -0.9992 0.0157 -0.0356
vn -0.8565 0.4169 -0.3043
vn -0.9219 0.1943 -0.3352
vn 0.9247 0.3729 -0.0762
vn 0.8591 0.4103 -0.3060
vn 0.9992 0.0157 -0.0356
vn 0.9151 0.2133 -0.3421
vn -0.2955 0.5139 -0.8054
vn -0.2254 0.5876 -0.7771
vn 0.2260 0.5808 -0.7820
vn 0.2823 0.5280 -0.8009
vn 0.2232 0.6373 -0.7376
vn -0.2204 0.6307 -0.7441
vn -0.7808 0.4421 -0.4415
vn -0.8714 0.2502 -0.4220
vn 0.7935 0.4196 -0.4407
vn 0.8754 0.2613 -0.4067
vn 0.1081 0.8390 0.5333
vn 0.0000 0.8325 0.5541
vn -0.0000 0.8325 0.5540
vn 0.0944 0.8467 0.5237
vn 0.0000 -0.8325 -0.5541
vn -0.1909 -0.8172 -0.5439
vn -0.0897 0.8424 0.5314
vn -0.0868 0.8359 0.5420
vn 0.1909 -0.8172 -0.5439
vn -0.9997 -0.0204 -0.0133
vn -0.9997 -0.0203 -0.0133
vn -0.9996 -0.0234 -0.0155
vn -0.9996 -0.0235 -0.0156
vn -0.0035 0.2793 -0.9602
vn 0.0017 0.3622 -0.9321
vn -0.0036 0.2774 -0.9607
vn 0.0000 0.2765 -0.9610
vn 0.0001 0.2791 -0.9603
vn 0.9997 -0.0201 -0.0137
vn 0.9997 -0.0200 -0.0136
vn 0.9996 -0.0244 -0.0163
vn 0.9996 -0.0245 -0.0164
vn -0.1528 0.1214 0.9808
vn 0.0157 0.0585 0.9982
vn 0.0153 0.0588 0.9982
vn -0.2130 0.2251 0.9508
vn 0.3183 0.2331 0.9189
vn 0.2673 0.1149 0.9567
vn 0.9558 0.2909 -0.0432
vn 0.0193 0.9984 -0.0533
vn 0.0260 0.9982 -0.0540
vn 0.9597 0.2776 -0.0425
vn 0.2192 0.9737 0.0613
vn 0.1829 0.9813 0.0599
vn -0.2204 0.9753 0.0133
vn -0.0256 0.9973 -0.0684
vn -0.0203 0.9974 -0.0689
vn -0.2484 0.9676 0.0448
vn -0.9625 0.2707 -0.0157
vn -0.9565 0.2911 -0.0175
vn 0.3383 0.8856 0.3182
vn 0.2633 0.9103 0.3193
vn -0.2849 0.9007 0.3281
vn -0.2910 0.8796 0.3764
vn -0.3747 -0.7718 -0.5137
vn 0.3747 -0.7718 -0.5137
vn 0.9573 0.2405 0.1601
vn 0.9573 0.2406 0.1601
vn 0.9694 -0.2043 -0.1362
vn 0.9694 -0.2045 -0.1361
vn 0.9694 -0.2044 -0.1361
vn 0.9694 -0.2042 -0.1362
vn -0.9573 0.2405 0.1603
vn -0.8142 0.4175 0.4033
vn -0.8434 0.4473 0.2978
vn -0.9573 0.2405 0.1604
vn -0.9694 -0.2045 -0.1361
vn -0.9694 -0.2045 -0.1360
vn 0.3685 0.7739 0.5151
vn 0.4603 0.6110 0.6441
vn 0.0000 -1.0000 -0.0000
vn -0.1587 -0.9873 -0.0000
vn -0.1476 -0.9891 -0.0000
vn 0.1476 -0.9891 -0.0000
vn 0.1587 -0.9873 -0.0000
vn -0.9996 0.0291 -0.0000
vn 0.1616 0.9869 -0.0000
vn 0.1716 0.9852 -0.0000
vn -0.1716 0.9852 -0.0000
vn -0.1616 0.9869 -0.0000
vn 0.9996 0.0291 -0.0000
vn -0.3134 -0.9496 -0.0000
vn 0.3134 -0.9496 -0.0000
vn 0.9567 0.2912 -0.0000
vn 0.9401 -0.3409 -0.0000
vn 0.3189 0.9478 -0.0000
vn -0.3189 0.9478 -0.0000
vn -0.9401 -0.3409 -0.0000
vn -0.9567 0.2912 -0.0000
vn 0.0000 0.0002 1.0000
vn 0.0003 -0.0005 -1.0000
vn -0.0000 0.0002 1.0000
# 191 vertex normals

vt 0.0970 0.3685 0.0000
vt 0.1287 0.3685 0.0000
vt 0.1287 0.3837 0.0000
vt 0.1281 0.4156 0.0000
vt 0.1257 0.4893 0.0000
vt 0.0969 0.4893 0.0000
vt 0.0970 0.2477 0.0000
vt 0.1256 0.2477 0.0000
vt 0.1281 0.3210 0.0000
vt 0.1287 0.3529 0.0000
vt 0.1627 0.3218 0.0000
vt 0.1445 0.3374 0.0000
vt 0.1447 0.3374 0.0000
vt 0.1627 0.2694 0.0000
vt 0.5318 0.1967 0.0000
vt 0.7003 0.1953 0.0000
vt 0.7003 0.2392 0.0000
vt 0.5722 0.2395 0.0000
vt 0.7003 0.1527 0.0000
vt 0.5173 0.1534 0.0000
vt 0.8689 0.1967 0.0000
vt 0.8834 0.1534 0.0000
vt 0.8285 0.2395 0.0000
vt 0.1627 0.4676 0.0000
vt 0.1447 0.3992 0.0000
vt 0.1445 0.3992 0.0000
vt 0.1627 0.4148 0.0000
vt 0.7003 0.4362 0.0000
vt 0.5440 0.4365 0.0000
vt 0.8567 0.4365 0.0000
vt 0.7146 0.6328 0.0000
vt 0.7003 0.6321 0.0000
vt 0.8155 0.6302 0.0000
vt 0.7995 0.6353 0.0000
vt 0.7466 0.6353 0.0000
vt 0.8233 0.6157 0.0000
vt 0.6537 0.6353 0.0000
vt 0.6013 0.6353 0.0000
vt 0.5853 0.6302 0.0000
vt 0.5774 0.6156 0.0000
vt 0.6857 0.6328 0.0000
vt 0.8882 0.4260 0.0000
vt 0.2953 0.4215 0.0000
vt 0.3224 0.4114 0.0000
vt 0.3256 0.6409 0.0000
vt 0.3078 0.6836 0.0000
vt 0.3231 0.1978 0.0000
vt 0.2911 0.1793 0.0000
vt 0.3569 0.2228 0.0000
vt 0.3508 0.4019 0.0000
vt 0.4345 0.4009 0.0000
vt 0.4064 0.3904 0.0000
vt 0.4066 0.2113 0.0000
vt 0.4412 0.1875 0.0000
vt 0.4612 0.4120 0.0000
vt 0.4737 0.1700 0.0000
vt 0.4232 0.6302 0.0000
vt 0.4395 0.6735 0.0000
vt 0.5125 0.4260 0.0000
vt 0.1279 0.5052 0.0000
vt 0.0965 0.5050 0.0000
vt 0.0966 0.2320 0.0000
vt 0.1278 0.2318 0.0000
vt 0.1627 0.2534 0.0000
vt 0.1627 0.4836 0.0000
vt 0.2926 0.1619 0.0000
vt 0.3233 0.1832 0.0000
vt 0.0328 0.1993 0.0000
vt 0.0427 0.1530 0.0000
vt 0.0593 0.1527 0.0000
vt 0.0496 0.1991 0.0000
vt 0.2116 0.5140 0.0000
vt 0.1641 0.5140 0.0000
vt 0.1678 0.4976 0.0000
vt 0.2153 0.4978 0.0000
vt 0.4416 0.1729 0.0000
vt 0.4728 0.1527 0.0000
vt 0.1327 0.3956 0.0000
vt 0.1327 0.3410 0.0000
vt 0.1564 0.3417 0.0000
vt 0.1564 0.3949 0.0000
vt 0.1636 0.3828 0.0000
vt 0.1636 0.3538 0.0000
vt 0.1958 0.3493 0.0000
vt 0.1958 0.3645 0.0000
vt 0.1641 0.3645 0.0000
vt 0.1641 0.2446 0.0000
vt 0.1926 0.2446 0.0000
vt 0.1952 0.3173 0.0000
vt 0.1926 0.4843 0.0000
vt 0.1641 0.4843 0.0000
vt 0.1958 0.3800 0.0000
vt 0.1952 0.4120 0.0000
vt 0.2117 0.3956 0.0000
vt 0.2115 0.3956 0.0000
vt 0.2275 0.4111 0.0000
vt 0.2275 0.4632 0.0000
vt 0.8760 0.8182 0.0000
vt 0.9187 0.8182 0.0000
vt 0.9187 0.9837 0.0000
vt 0.8760 0.9455 0.0000
vt 0.9613 0.8182 0.0000
vt 0.9613 0.9995 0.0000
vt 0.9187 0.6527 0.0000
vt 0.9613 0.6370 0.0000
vt 0.8760 0.6910 0.0000
vt 0.2275 0.2657 0.0000
vt 0.2275 0.3182 0.0000
vt 0.2115 0.3337 0.0000
vt 0.2117 0.3337 0.0000
vt 0.6804 0.9717 0.0000
vt 0.6804 0.8182 0.0000
vt 0.6804 0.6648 0.0000
vt 0.4848 0.8182 0.0000
vt 0.4848 0.8040 0.0000
vt 0.4848 0.7720 0.0000
vt 0.4848 0.7195 0.0000
vt 0.4891 0.7053 0.0000
vt 0.5020 0.6984 0.0000
vt 0.4891 0.9312 0.0000
vt 0.4848 0.9170 0.0000
vt 0.4848 0.8649 0.0000
vt 0.4848 0.8329 0.0000
vt 0.5020 0.9381 0.0000
vt 0.6912 0.6370 0.0000
vt 0.4944 0.1953 0.0000
vt 0.4869 0.4228 0.0000
vt 0.4627 0.4121 0.0000
vt 0.4778 0.1527 0.0000
vt 0.4798 0.6347 0.0000
vt 0.4487 0.6519 0.0000
vt 0.5110 0.6120 0.0000
vt 0.5110 0.4336 0.0000
vt 0.2311 0.6198 0.0000
vt 0.2373 0.4415 0.0000
vt 0.2619 0.4316 0.0000
vt 0.2615 0.6435 0.0000
vt 0.2864 0.4217 0.0000
vt 0.2920 0.6618 0.0000
vt 0.2623 0.2040 0.0000
vt 0.2804 0.1619 0.0000
vt 0.6912 0.9995 0.0000
vt 0.1644 0.2318 0.0000
vt 0.1951 0.2318 0.0000
vt 0.1951 0.4971 0.0000
vt 0.1644 0.4971 0.0000
vt 0.2275 0.4774 0.0000
vt 0.2275 0.2515 0.0000
vt 0.4787 0.6469 0.0000
vt 0.4479 0.6665 0.0000
vt 0.1287 0.5056 0.0000
vt 0.1429 0.5089 0.0000
vt 0.1432 0.5527 0.0000
vt 0.1299 0.5486 0.0000
vt 0.0650 0.1991 0.0000
vt 0.0512 0.2004 0.0000
vt 0.0606 0.1576 0.0000
vt 0.0752 0.1573 0.0000
vt 0.2923 0.6765 0.0000
vt 0.2622 0.6558 0.0000
vt 0.1998 0.3374 0.0000
vt 0.1998 0.3919 0.0000
vt 0.2235 0.3912 0.0000
vt 0.2235 0.3381 0.0000
vt 0.2275 0.3502 0.0000
vt 0.2275 0.3791 0.0000
vt 0.3411 0.1587 0.0000
vt 0.2212 0.1587 0.0000
vt 0.2212 0.1527 0.0000
vt 0.3420 0.1527 0.0000
vt 0.2339 0.2592 0.0000
vt 0.2339 0.2744 0.0000
vt 0.2280 0.2744 0.0000
vt 0.2280 0.2592 0.0000
vt 0.1014 0.1587 0.0000
vt 0.1004 0.1528 0.0000
vt 0.2339 0.2436 0.0000
vt 0.2280 0.2436 0.0000
vt 0.7477 0.0423 0.0000
vt 0.7477 0.0420 0.0000
vt 0.7549 0.0421 0.0000
vt 0.7549 0.0423 0.0000
vt 0.0894 0.5961 0.0000
vt 0.0894 0.4149 0.0000
vt 0.0961 0.4149 0.0000
vt 0.0960 0.5980 0.0000
vt 0.0894 0.2336 0.0000
vt 0.0960 0.2318 0.0000
vt 0.0912 0.6054 0.0000
vt 0.0909 0.6055 0.0000
vt 0.0894 0.5985 0.0000
vt 0.0896 0.5984 0.0000
vt 0.1564 0.3828 0.0000
vt 0.1564 0.3685 0.0000
vt 0.1636 0.3685 0.0000
vt 0.1564 0.3538 0.0000
vt 0.4025 0.6774 0.0000
vt 0.4025 0.4180 0.0000
vt 0.4096 0.4178 0.0000
vt 0.4043 0.6793 0.0000
vt 0.3605 0.1782 0.0000
vt 0.3671 0.1758 0.0000
vt 0.0820 0.1782 0.0000
vt 0.0399 0.4180 0.0000
vt 0.0328 0.4178 0.0000
vt 0.0754 0.1758 0.0000
vt 0.0399 0.6774 0.0000
vt 0.0381 0.6793 0.0000
vt 0.3539 0.1636 0.0000
vt 0.3578 0.1585 0.0000
vt 0.0885 0.1636 0.0000
vt 0.0847 0.1585 0.0000
vt 0.2366 0.2863 0.0000
vt 0.2306 0.2863 0.0000
vt 0.2366 0.2318 0.0000
vt 0.2306 0.2318 0.0000
vt 0.0994 0.5840 0.0000
vt 0.0965 0.5693 0.0000
vt 0.1036 0.5679 0.0000
vt 0.1065 0.5826 0.0000
vt 0.7507 0.0211 0.0000
vt 0.7477 0.0065 0.0000
vt 0.7547 0.0051 0.0000
vt 0.7577 0.0197 0.0000
vt 0.7484 0.0389 0.0000
vt 0.7477 0.0239 0.0000
vt 0.7549 0.0236 0.0000
vt 0.7556 0.0386 0.0000
vt 0.0334 0.1125 0.0000
vt 0.0328 0.0977 0.0000
vt 0.0399 0.0974 0.0000
vt 0.0406 0.1122 0.0000
vt 0.1525 0.3949 0.0000
vt 0.1525 0.3417 0.0000
vt 0.7382 0.0273 0.0000
vt 0.0051 0.0273 0.0000
vt 0.0051 0.0126 0.0000
vt 0.7382 0.0126 0.0000
vt 0.7382 0.0415 0.0000
vt 0.0051 0.0415 0.0000
vt 0.0284 0.0651 0.0000
vt 0.0284 0.7877 0.0000
vt 0.0282 0.7877 0.0000
vt 0.0282 0.0652 0.0000
vt 0.7540 0.1152 0.0000
vt 0.0420 0.1152 0.0000
vt 0.0420 0.1000 0.0000
vt 0.7540 0.1000 0.0000
vt 0.7540 0.1308 0.0000
vt 0.0420 0.1308 0.0000
vt 0.7645 0.0837 0.0000
vt 0.0420 0.0837 0.0000
vt 0.0420 0.0835 0.0000
vt 0.7646 0.0835 0.0000
vt 0.0051 0.0005 0.0000
vt 0.7356 0.0005 0.0000
vt 0.7356 0.0536 0.0000
vt 0.0051 0.0536 0.0000
vt 0.0420 0.0558 0.0000
vt 0.7646 0.0558 0.0000
vt 0.7567 0.0684 0.0000
vt 0.0420 0.0684 0.0000
vt 0.0132 0.0638 0.0000
vt 0.0132 0.7863 0.0000
vt 0.0005 0.7863 0.0000
vt 0.0005 0.0558 0.0000
vt 0.0420 0.0881 0.0000
vt 0.7567 0.0881 0.0000
vt 0.7567 0.1427 0.0000
vt 0.0420 0.1427 0.0000
vt 0.0271 0.0651 0.0000
vt 0.0271 0.7876 0.0000
vt 0.0143 0.7955 0.0000
vt 0.0143 0.0651 0.0000
vt 0.0420 0.0697 0.0000
vt 0.7646 0.0697 0.0000
vt 0.7646 0.0822 0.0000
vt 0.0500 0.0822 0.0000
vt 0.1282 0.5510 0.0000
vt 0.1242 0.5631 0.0000
vt 0.1123 0.5674 0.0000
vt 0.1125 0.5674 0.0000
vt 0.1282 0.5367 0.0000
vt 0.0965 0.5211 0.0000
vt 0.1005 0.5093 0.0000
vt 0.1125 0.5056 0.0000
vt 0.1123 0.5056 0.0000
vt 0.0965 0.5367 0.0000
vt 0.1242 0.5100 0.0000
vt 0.0965 0.5519 0.0000
vt 0.1282 0.5220 0.0000
vt 0.1005 0.5638 0.0000
# 292 texture coords

o Box001
g Box001
usemtl wire_177148027
s 1
f 1/1/1 2/2/2 3/3/3 
f 1/1/1 3/3/3 4/4/4 
f 1/1/1 4/4/4 5/5/5 
f 1/1/1 5/5/5 6/6/6 
f 1/1/1 7/7/7 8/8/8 
f 1/1/1 8/8/8 9/9/9 
f 1/1/1 9/9/9 10/10/2 
f 1/1/1 10/10/2 2/2/2 
f 11/11/10 12/12/11 13/13/12 
f 13/13/12 9/9/9 8/8/8 
f 11/11/10 13/13/12 8/8/8 
f 11/11/10 8/8/8 14/14/13 
s 2
f 15/15/14 16/16/15 17/17/16 
f 17/17/16 18/18/17 15/15/14 
f 19/19/18 16/16/15 15/15/14 
f 15/15/14 20/20/19 19/19/18 
f 21/21/20 16/16/15 19/19/18 
f 19/19/18 22/22/21 21/21/20 
f 17/17/16 16/16/15 21/21/20 
f 21/21/20 23/23/22 17/17/16 
s 1
f 24/24/23 5/5/5 4/4/4 
f 4/4/4 25/25/24 26/26/25 
f 24/24/23 4/4/4 26/26/25 
f 24/24/23 26/26/25 27/27/26 
s 2
f 17/17/16 28/28/27 29/29/28 
f 29/29/28 18/18/17 17/17/16 
f 30/30/29 28/28/27 17/17/16 
f 17/17/16 23/23/22 30/30/29 
f 31/31/30 32/32/31 28/28/27 
f 33/33/32 24/34/33 27/35/34 
f 34/36/35 33/33/32 27/35/34 
f 30/30/29 34/36/35 27/35/34 
f 28/28/27 30/30/29 27/35/34 
f 31/31/30 28/28/27 27/35/34 
f 11/37/36 14/38/37 35/39/38 
f 11/37/36 35/39/38 36/40/39 
f 11/37/36 36/40/39 29/29/28 
f 11/37/36 29/29/28 28/28/27 
f 28/28/27 32/32/31 37/41/40 
f 11/37/36 28/28/27 37/41/40 
f 21/21/20 38/42/41 30/30/29 
f 30/30/29 23/23/22 21/21/20 
f 39/43/42 38/44/41 21/45/20 
f 21/45/20 22/46/21 39/43/42 
f 40/47/43 38/44/41 39/43/42 
f 39/43/42 41/48/44 40/47/43 
f 38/44/41 40/47/43 34/49/35 
f 34/49/35 30/50/29 38/44/41 
f 42/51/45 29/52/28 36/53/39 
f 36/53/39 43/54/46 42/51/45 
f 44/55/47 42/51/45 43/54/46 
f 43/54/46 45/56/48 44/55/47 
f 15/57/14 42/51/45 44/55/47 
f 44/55/47 20/58/19 15/57/14 
f 29/29/28 42/59/45 15/15/14 
f 15/15/14 18/18/17 29/29/28 
s 1
f 46/60/49 47/61/50 6/6/6 
f 6/6/6 5/5/5 46/60/49 
f 48/62/51 49/63/52 8/8/8 
f 8/8/8 7/7/7 48/62/51 
f 49/63/52 35/64/53 14/14/13 
f 14/14/13 8/8/8 49/63/52 
f 33/65/54 46/60/49 5/5/5 
f 5/5/5 24/24/23 33/65/54 
s 2
f 47/66/55 46/67/56 40/47/43 
f 40/47/43 41/48/44 47/66/55 
f 46/68/56 33/69/32 34/70/35 
f 34/70/35 40/71/43 46/68/56 
f 35/72/38 49/73/57 43/74/46 
f 43/74/46 36/75/39 35/72/38 
f 49/76/57 48/77/58 45/56/48 
f 45/56/48 43/54/46 49/76/57 
s 1
f 3/3/3 50/78/3 4/4/4 
f 9/9/9 51/79/2 10/10/2 
f 11/11/10 52/80/59 12/12/11 
f 13/13/12 51/79/2 9/9/9 
f 26/26/25 53/81/60 27/27/26 
f 4/4/4 50/78/3 25/25/24 
f 27/27/26 53/81/60 31/82/61 
f 37/83/62 52/80/59 11/11/10 
f 54/84/63 55/85/63 56/86/63 
f 56/86/63 57/87/64 58/88/65 
f 56/86/63 58/88/65 59/89/63 
f 54/84/63 56/86/63 59/89/63 
f 60/90/66 61/91/67 56/86/63 
f 56/86/63 55/85/63 62/92/68 
f 56/86/63 62/92/68 63/93/63 
f 60/90/66 56/86/63 63/93/63 
f 64/94/69 65/95/70 66/96/68 
f 66/96/68 67/97/71 60/90/66 
f 64/94/69 66/96/68 60/90/66 
f 64/94/69 60/90/66 63/93/63 
s 2
f 68/98/72 69/99/73 70/100/74 
f 70/100/74 71/101/75 68/98/72 
f 70/100/74 69/99/73 72/102/73 
f 72/102/73 73/103/76 70/100/74 
f 72/102/73 69/99/73 74/104/77 
f 74/104/77 75/105/78 72/102/73 
f 74/104/77 69/99/73 68/98/72 
f 68/98/72 76/106/79 74/104/77 
s 1
f 59/89/63 58/88/65 77/107/80 
f 77/107/80 78/108/63 79/109/69 
f 59/89/63 77/107/80 79/109/69 
f 59/89/63 79/109/69 80/110/70 
s 2
f 81/111/81 82/112/82 68/98/72 
f 68/98/72 71/101/75 81/111/81 
f 68/98/72 82/112/82 83/113/83 
f 83/113/83 76/106/79 68/98/72 
f 82/112/82 84/114/84 85/115/84 
f 82/112/82 85/115/84 78/116/85 
f 78/116/85 77/117/86 86/118/87 
f 78/116/85 86/118/87 87/119/88 
f 78/116/85 87/119/88 83/113/83 
f 82/112/82 78/116/85 83/113/83 
f 88/120/89 67/121/86 66/122/90 
f 89/123/84 84/114/84 82/112/82 
f 66/122/90 89/123/84 82/112/82 
f 66/122/90 82/112/82 81/111/81 
f 66/122/90 81/111/81 90/124/91 
f 88/120/89 66/122/90 90/124/91 
f 83/113/83 91/125/92 74/104/77 
f 74/104/77 76/106/79 83/113/83 
f 74/126/77 91/127/92 92/128/93 
f 92/128/93 75/129/78 74/126/77 
f 92/128/93 91/127/92 93/130/94 
f 93/130/94 94/131/95 92/128/93 
f 87/132/88 93/130/94 91/127/92 
f 91/127/92 83/133/83 87/132/88 
f 90/134/91 81/135/81 95/136/96 
f 95/136/96 96/137/97 90/134/91 
f 96/137/97 95/136/96 97/138/98 
f 97/138/98 98/139/99 96/137/97 
f 97/138/98 95/136/96 70/140/74 
f 70/140/74 73/141/76 97/138/98 
f 70/100/74 95/142/96 81/111/81 
f 81/111/81 71/101/75 70/100/74 
s 1
f 57/87/64 99/143/100 100/144/101 
f 100/144/101 58/88/65 57/87/64 
f 60/90/66 101/145/102 102/146/103 
f 102/146/103 61/91/67 60/90/66 
f 67/97/71 88/147/104 101/145/102 
f 101/145/102 60/90/66 67/97/71 
f 58/88/65 100/144/101 86/148/105 
f 86/148/105 77/107/80 58/88/65 
s 2
f 93/130/94 100/149/106 99/150/107 
f 99/150/107 94/131/95 93/130/94 
f 87/151/88 86/152/87 100/153/106 
f 100/153/106 93/154/94 87/151/88 
f 96/155/97 101/156/108 88/157/89 
f 88/157/89 90/158/91 96/155/97 
f 98/139/99 102/159/109 101/160/108 
f 101/160/108 96/137/97 98/139/99 
s 1
f 59/89/63 103/161/63 54/84/63 
f 62/92/68 104/162/68 63/93/63 
f 65/95/70 105/163/68 66/96/68 
f 63/93/63 104/162/68 64/94/69 
f 78/108/63 106/164/63 79/109/69 
f 80/110/70 103/161/63 59/89/63 
f 85/165/63 106/164/63 78/108/63 
f 66/96/68 105/163/68 89/166/63 
s 4
f 57/167/110 56/168/111 1/169/112 
f 1/169/112 6/170/113 57/167/110 
s 2
f 55/171/114 54/172/115 3/173/115 
f 3/173/115 2/174/114 55/171/114 
s 4
f 56/168/111 61/175/116 7/176/117 
f 7/176/117 1/169/112 56/168/111 
s 2
f 62/177/118 55/171/114 2/174/114 
f 2/174/114 10/178/118 62/177/118 
f 65/179/119 64/180/120 13/181/121 
f 13/181/121 12/182/122 65/179/119 
s 1
f 73/183/123 72/184/124 19/185/124 
f 19/185/124 20/186/125 73/183/123 
f 72/184/124 75/187/126 22/188/127 
f 22/188/127 19/185/124 72/184/124 
s 2
f 80/189/128 79/190/129 26/191/130 
f 26/191/130 25/192/131 80/189/128 
s 4
f 85/193/132 84/194/133 32/195/134 
f 32/195/134 31/82/135 85/193/132 
f 84/194/133 89/196/136 37/83/137 
f 37/83/137 32/195/134 84/194/133 
s 12
f 75/197/138 92/198/139 39/199/140 
f 39/199/140 22/200/141 75/197/138 
s 4
f 92/198/139 94/201/142 41/202/143 
f 41/202/143 39/199/140 92/198/139 
f 98/203/144 97/204/145 44/205/146 
f 44/205/146 45/206/147 98/203/144 
s 12
f 97/204/145 73/207/148 20/208/149 
f 20/208/149 44/205/146 97/204/145 
s 4
f 99/209/150 57/167/110 6/170/113 
f 6/170/113 47/210/151 99/209/150 
f 61/175/116 102/211/152 48/212/153 
f 48/212/153 7/176/117 61/175/116 
f 94/201/142 99/209/150 47/210/151 
f 47/210/151 41/202/143 94/201/142 
f 102/211/152 98/203/144 45/206/147 
f 45/206/147 48/212/153 102/211/152 
s 2
f 54/172/115 103/213/154 50/214/154 
f 50/214/154 3/173/115 54/172/115 
f 104/215/155 62/177/118 10/178/118 
f 10/178/118 51/216/155 104/215/155 
s 8
f 105/217/156 65/218/157 12/219/157 
f 12/219/157 52/220/156 105/217/156 
s 4
f 64/221/158 104/222/159 51/223/160 
f 51/223/160 13/224/161 64/221/158 
s 8
f 79/225/162 106/226/163 53/227/164 
f 53/227/164 26/228/165 79/225/162 
s 4
f 103/229/166 80/230/167 25/231/166 
f 25/231/166 50/232/166 103/229/166 
s 12
f 106/233/163 85/193/132 31/82/135 
f 31/82/135 53/81/164 106/233/163 
s 4
f 89/196/136 105/234/168 52/80/169 
f 52/80/169 37/83/137 89/196/136 
s 2
f 84/235/170 107/236/170 108/237/171 
f 108/237/171 89/238/172 84/235/170 
f 85/239/173 109/240/174 107/236/170 
f 107/236/170 84/235/170 85/239/173 
f 80/241/175 110/242/175 111/243/175 
f 111/243/175 79/244/175 80/241/175 
f 55/245/86 112/246/86 113/247/176 
f 113/247/176 54/248/177 55/245/86 
f 62/249/178 114/250/179 112/246/86 
f 112/246/86 55/245/86 62/249/178 
f 65/251/180 115/252/180 116/253/180 
f 116/253/180 64/254/180 65/251/180 
f 89/238/172 108/237/171 117/255/181 
f 117/255/181 105/256/181 89/238/172 
f 109/240/174 85/239/173 106/257/182 
f 106/257/182 118/258/182 109/240/174 
s 4
f 110/259/183 80/260/183 103/261/183 
f 103/261/183 119/262/183 110/259/183 
f 79/263/184 111/264/184 118/265/184 
f 118/265/184 106/266/184 79/263/184 
s 2
f 54/248/177 113/247/176 119/267/185 
f 119/267/185 103/268/185 54/248/177 
f 114/250/179 62/249/178 104/269/186 
f 104/269/186 120/270/186 114/250/179 
s 4
f 115/271/187 65/272/187 105/273/187 
f 105/273/187 117/274/187 115/271/187 
f 64/275/188 116/276/188 120/277/188 
f 120/277/188 104/278/188 64/275/188 
s off
f 109/279/189 118/280/189 111/281/189 
f 109/279/190 111/281/190 110/282/190 
f 109/279/189 110/282/189 107/283/189 
f 114/284/191 120/285/191 116/286/191 
f 114/284/190 116/286/190 115/287/190 
f 112/288/189 114/284/189 115/287/189 
f 112/288/189 115/287/189 117/289/189 
f 117/289/189 113/290/189 112/288/189 
f 113/290/191 117/289/191 108/291/191 
f 108/291/189 119/292/189 113/290/189 
f 119/292/189 108/291/189 107/283/189 
f 107/283/191 110/282/191 119/292/191 
# 252 faces

