# UnrealEd OBJ exporter (_Internal)



v 4224.335938 67.511749 2499.999023

v -775.664307 67.377045 2499.999023

v 4224.335938 67.511749 -2500.000977

v -775.664307 67.377045 -2500.000977

v 4224.333008 167.511749 -2500.000977

v -775.667236 167.377045 -2500.000977

v -775.667236 167.377045 2499.999023

v 4224.333008 167.511749 2499.999023

v 4224.333008 167.511749 2499.999023

v -775.667236 167.377045 2499.999023

v -775.664307 67.377045 2499.999023

v 4224.335938 67.511749 2499.999023

v 4224.333008 167.511749 -2500.000977

v 4224.333008 167.511749 2499.999023

v 4224.335938 67.511749 2499.999023

v 4224.335938 67.511749 -2500.000977

v -775.667236 167.377045 -2500.000977

v 4224.333008 167.511749 -2500.000977

v 4224.335938 67.511749 -2500.000977

v -775.664307 67.377045 -2500.000977

v -775.667236 167.377045 2499.999023

v -775.667236 167.377045 -2500.000977

v -775.664307 67.377045 -2500.000977

v -775.664307 67.377045 2499.999023



vt 0.675293 0.015625

vt 0.989746 0.015625

vt 0.675293 0.330078

vt 0.989746 0.330078

vt 0.329834 0.330078

vt 0.015373 0.330078

vt 0.015373 0.015625

vt 0.329834 0.015625

vt 0.329834 0.660156

vt 0.015373 0.660156

vt 0.015373 0.345703

vt 0.329834 0.345703

vt 0.659668 0.330078

vt 0.345215 0.330078

vt 0.345215 0.015625

vt 0.659668 0.015625

vt 0.329834 0.989983

vt 0.015373 0.989983

vt 0.015373 0.675537

vt 0.329834 0.675537

vt 0.659668 0.660156

vt 0.345215 0.660156

vt 0.345215 0.345703

vt 0.659668 0.345703



vn 0.000000 -1.000000 0.000000

vn 0.000000 -1.000000 0.000000

vn 0.000000 -1.000000 0.000000

vn 0.000000 -1.000000 0.000000

vn 0.000000 1.000000 0.000000

vn 0.000000 1.000000 0.000000

vn 0.000000 1.000000 0.000000

vn 0.000000 1.000000 0.000000

vn 0.000000 0.000000 1.000000

vn 0.000000 0.000000 1.000000

vn 0.000000 0.000000 1.000000

vn 0.000000 0.000000 1.000000

vn 1.000000 0.000000 0.000000

vn 1.000000 0.000000 0.000000

vn 1.000000 0.000000 0.000000

vn 1.000000 0.000000 0.000000

vn 0.000000 0.000000 -1.000000

vn 0.000000 0.000000 -1.000000

vn 0.000000 0.000000 -1.000000

vn 0.000000 0.000000 -1.000000

vn -1.000000 0.000000 0.000000

vn -1.000000 0.000000 0.000000

vn -1.000000 0.000000 0.000000

vn -1.000000 0.000000 0.000000

f 1/1/1 2/2/2 3/3/3

f 2/2/2 4/4/4 3/3/3

f 5/5/5 6/6/6 7/7/7

f 5/5/5 7/7/7 8/8/8

f 9/9/9 10/10/10 11/11/11

f 9/9/9 11/11/11 12/12/12

f 13/13/13 14/14/14 15/15/15

f 13/13/13 15/15/15 16/16/16

f 17/17/17 18/18/18 19/19/19

f 17/17/17 19/19/19 20/20/20

f 21/21/21 22/22/22 23/23/23

f 21/21/21 23/23/23 24/24/24

