# UnrealEd OBJ exporter (_Internal)



v 3110.000000 176.250244 1420.000000

v 3109.999268 176.250000 1520.000000

v 3110.000000 163.750000 1520.000000

v 3110.000000 163.750244 1420.000000

v 110.000076 163.750000 1420.000000

v 110.000031 163.750000 1520.000000

v 110.000031 176.250000 1520.000000

v 110.000145 176.250000 1420.000000

v 3110.000000 176.250244 -1330.000000

v 3109.999268 176.250000 -1230.000000

v 3110.000000 163.750000 -1230.000000

v 3110.000000 163.750244 -1330.000000

v 110.000076 163.750000 -1330.000000

v 110.000031 163.750000 -1230.000000

v 110.000031 176.250000 -1230.000000

v 110.000145 176.250000 -1330.000000

v 3049.991455 176.250488 -1279.999512

v 3149.991211 176.250488 -1279.999512

v 3149.991211 163.750488 -1280.000000

v 3049.991455 163.750488 -1279.999756

v 3050.000000 163.750000 1470.000122

v 3150.000000 163.750000 1469.999878

v 3150.000000 176.250000 1469.999878

v 3050.000000 176.250000 1470.000000

v 59.991455 176.250488 -1279.999512

v 159.991333 176.250488 -1279.999512

v 159.991333 163.750488 -1280.000000

v 59.991455 163.750488 -1279.999756

v 60.000008 163.750000 1470.000122

v 160.000000 163.750000 1469.999878

v 160.000000 176.250000 1469.999878

v 60.000008 176.250000 1470.000000

v 3110.000000 163.750244 1420.000000

v 3110.000000 163.750000 1520.000000

v 2360.000000 163.750244 1520.000000

v 2360.000244 163.750000 1420.000000

v 1610.000000 163.750000 1520.000000

v 1610.000122 163.750122 1420.000000

v 859.999939 163.750000 1520.000000

v 860.000183 163.750000 1420.000000

v 110.000031 163.750000 1520.000000

v 110.000076 163.750000 1420.000000

v 3110.000000 163.750000 1520.000000

v 3109.999268 176.250000 1520.000000

v 2359.999268 176.250000 1520.000000

v 2360.000000 163.750244 1520.000000

v 1609.999634 176.250000 1520.000000

v 1610.000000 163.750000 1520.000000

v 859.999939 176.250000 1520.000000

v 859.999939 163.750000 1520.000000

v 110.000031 176.250000 1520.000000

v 110.000031 163.750000 1520.000000

v 110.000145 176.250000 1420.000000

v 110.000031 176.250000 1520.000000

v 859.999939 176.250000 1520.000000

v 860.000061 176.250061 1420.000000

v 1609.999634 176.250000 1520.000000

v 1610.000000 176.250122 1420.000000

v 2359.999268 176.250000 1520.000000

v 2360.000244 176.250000 1420.000000

v 3109.999268 176.250000 1520.000000

v 3110.000000 176.250244 1420.000000

v 3110.000000 176.250244 1420.000000

v 3110.000000 163.750244 1420.000000

v 2360.000244 163.750000 1420.000000

v 2360.000244 176.250000 1420.000000

v 1610.000122 163.750122 1420.000000

v 1610.000000 176.250122 1420.000000

v 860.000183 163.750000 1420.000000

v 860.000061 176.250061 1420.000000

v 110.000076 163.750000 1420.000000

v 110.000145 176.250000 1420.000000

v 3110.000000 163.750244 -1330.000000

v 3110.000000 163.750000 -1230.000000

v 2360.000000 163.750244 -1230.000000

v 2360.000244 163.750000 -1330.000000

v 1610.000000 163.750000 -1230.000000

v 1610.000122 163.750122 -1330.000000

v 859.999939 163.750000 -1230.000000

v 860.000183 163.750000 -1330.000000

v 110.000031 163.750000 -1230.000000

v 110.000076 163.750000 -1330.000000

v 3110.000000 163.750000 -1230.000000

v 3109.999268 176.250000 -1230.000000

v 2359.999268 176.250000 -1230.000000

v 2360.000000 163.750244 -1230.000000

v 1609.999634 176.250000 -1230.000000

v 1610.000000 163.750000 -1230.000000

v 859.999939 176.250000 -1230.000000

v 859.999939 163.750000 -1230.000000

v 110.000031 176.250000 -1230.000000

v 110.000031 163.750000 -1230.000000

v 110.000145 176.250000 -1330.000000

v 110.000031 176.250000 -1230.000000

v 859.999939 176.250000 -1230.000000

v 860.000061 176.250061 -1330.000000

v 1609.999634 176.250000 -1230.000000

v 1610.000000 176.250122 -1330.000000

v 2359.999268 176.250000 -1230.000000

v 2360.000244 176.250000 -1330.000000

v 3109.999268 176.250000 -1230.000000

v 3110.000000 176.250244 -1330.000000

v 3110.000000 176.250244 -1330.000000

v 3110.000000 163.750244 -1330.000000

v 2360.000244 163.750000 -1330.000000

v 2360.000244 176.250000 -1330.000000

v 1610.000122 163.750122 -1330.000000

v 1610.000000 176.250122 -1330.000000

v 860.000183 163.750000 -1330.000000

v 860.000061 176.250061 -1330.000000

v 110.000076 163.750000 -1330.000000

v 110.000145 176.250000 -1330.000000

v 3049.991455 163.750488 -1279.999756

v 3149.991211 163.750488 -1280.000000

v 3149.993408 163.750488 -592.500000

v 3049.993408 163.750488 -592.499512

v 3149.995605 163.750244 95.000000

v 3049.995605 163.750244 95.000000

v 3149.997803 163.750122 782.500000

v 3049.997803 163.750122 782.500122

v 3150.000000 163.750000 1469.999878

v 3050.000000 163.750000 1470.000122

v 3149.991211 163.750488 -1280.000000

v 3149.991211 176.250488 -1279.999512

v 3149.993408 176.250488 -592.499512

v 3149.993408 163.750488 -592.500000

v 3149.995605 176.250244 95.000244

v 3149.995605 163.750244 95.000000

v 3149.997803 176.250122 782.500000

v 3149.997803 163.750122 782.500000

v 3150.000000 176.250000 1469.999878

v 3150.000000 163.750000 1469.999878

v 3050.000000 176.250000 1470.000000

v 3150.000000 176.250000 1469.999878

v 3149.997803 176.250122 782.500000

v 3049.997803 176.250122 782.500061

v 3149.995605 176.250244 95.000244

v 3049.995605 176.250244 95.000122

v 3149.993408 176.250488 -592.499512

v 3049.993408 176.250488 -592.499512

v 3149.991211 176.250488 -1279.999512

v 3049.991455 176.250488 -1279.999512

v 3049.991455 176.250488 -1279.999512

v 3049.991455 163.750488 -1279.999756

v 3049.993408 163.750488 -592.499512

v 3049.993408 176.250488 -592.499512

v 3049.995605 163.750244 95.000000

v 3049.995605 176.250244 95.000122

v 3049.997803 163.750122 782.500122

v 3049.997803 176.250122 782.500061

v 3050.000000 163.750000 1470.000122

v 3050.000000 176.250000 1470.000000

v 59.991455 163.750488 -1279.999756

v 159.991333 163.750488 -1280.000000

v 159.993408 163.750488 -592.500000

v 59.993469 163.750488 -592.499512

v 159.995667 163.750244 95.000000

v 59.995605 163.750244 95.000000

v 159.997803 163.750122 782.500000

v 59.997833 163.750122 782.500122

v 160.000000 163.750000 1469.999878

v 60.000008 163.750000 1470.000122

v 159.991333 163.750488 -1280.000000

v 159.991333 176.250488 -1279.999512

v 159.993408 176.250488 -592.499512

v 159.993408 163.750488 -592.500000

v 159.995728 176.250244 95.000244

v 159.995667 163.750244 95.000000

v 159.997833 176.250122 782.500000

v 159.997803 163.750122 782.500000

v 160.000000 176.250000 1469.999878

v 160.000000 163.750000 1469.999878

v 60.000008 176.250000 1470.000000

v 160.000000 176.250000 1469.999878

v 159.997833 176.250122 782.500000

v 59.997864 176.250122 782.500061

v 159.995728 176.250244 95.000244

v 59.995667 176.250244 95.000122

v 159.993408 176.250488 -592.499512

v 59.993469 176.250488 -592.499512

v 159.991333 176.250488 -1279.999512

v 59.991455 176.250488 -1279.999512

v 59.991455 176.250488 -1279.999512

v 59.991455 163.750488 -1279.999756

v 59.993469 163.750488 -592.499512

v 59.993469 176.250488 -592.499512

v 59.995605 163.750244 95.000000

v 59.995667 176.250244 95.000122

v 59.997833 163.750122 782.500122

v 59.997864 176.250122 782.500061

v 60.000008 163.750000 1470.000122

v 60.000008 176.250000 1470.000000



vt 0.784180 3.123047

vt 0.784180 2.627930

vt 1.283203 2.627930

vt 1.283203 3.123047

vt 1.283203 2.614258

vt 1.283203 2.118164

vt 0.784180 2.118164

vt 0.784180 2.614258

vt 0.784180 3.123047

vt 0.784180 2.627930

vt 1.283203 2.627930

vt 1.283203 3.123047

vt 1.283203 2.614258

vt 1.283203 2.118164

vt 0.784180 2.118164

vt 0.784180 2.614258

vt 0.784180 3.123047

vt 0.784180 2.627930

vt 1.283203 2.627930

vt 1.283203 3.123047

vt 1.283203 2.614258

vt 1.283203 2.118164

vt 0.784180 2.118164

vt 0.784180 2.614258

vt 0.784180 3.123047

vt 0.784180 2.627930

vt 1.283203 2.627930

vt 1.283203 3.123047

vt 1.283203 2.614258

vt 1.283203 2.118164

vt 0.784180 2.118164

vt 0.784180 2.614258

vt 1.496094 4.998047

vt 0.994629 4.998047

vt 0.994629 3.748047

vt 1.496094 3.748047

vt 0.994629 2.499023

vt 1.496094 2.499023

vt 0.994629 1.249878

vt 1.496094 1.249878

vt 0.994629 0.000488

vt 1.496094 0.000488

vt 0.994629 4.998047

vt 0.501465 4.998047

vt 0.501465 3.748047

vt 0.994629 3.748047

vt 0.501465 2.499023

vt 0.994629 2.499023

vt 0.501465 1.249878

vt 0.994629 1.249878

vt 0.501465 0.000488

vt 0.994629 0.000488

vt 0.003380 0.000488

vt 0.501465 0.000488

vt 0.501465 1.249878

vt 0.002535 1.249878

vt 0.501465 2.499023

vt 0.001690 2.499023

vt 0.501465 3.748047

vt 0.000845 3.748047

vt 0.501465 4.998047

vt 0.000000 4.998047

vt 1.989258 5.000000

vt 1.496094 4.998047

vt 1.496094 3.748047

vt 1.992188 3.750000

vt 1.496094 2.499023

vt 1.994141 2.500000

vt 1.496094 1.249878

vt 1.997070 1.250000

vt 1.496094 0.000488

vt 1.999023 0.000488

vt 1.496094 4.998047

vt 0.994629 4.998047

vt 0.994629 3.748047

vt 1.496094 3.748047

vt 0.994629 2.499023

vt 1.496094 2.499023

vt 0.994629 1.249878

vt 1.496094 1.249878

vt 0.994629 0.000488

vt 1.496094 0.000488

vt 0.994629 4.998047

vt 0.501465 4.998047

vt 0.501465 3.748047

vt 0.994629 3.748047

vt 0.501465 2.499023

vt 0.994629 2.499023

vt 0.501465 1.249878

vt 0.994629 1.249878

vt 0.501465 0.000488

vt 0.994629 0.000488

vt 0.003380 0.000488

vt 0.501465 0.000488

vt 0.501465 1.249878

vt 0.002535 1.249878

vt 0.501465 2.499023

vt 0.001690 2.499023

vt 0.501465 3.748047

vt 0.000845 3.748047

vt 0.501465 4.998047

vt 0.000000 4.998047

vt 1.989258 5.000000

vt 1.496094 4.998047

vt 1.496094 3.748047

vt 1.992188 3.750000

vt 1.496094 2.499023

vt 1.994141 2.500000

vt 1.496094 1.249878

vt 1.997070 1.250000

vt 1.496094 0.000488

vt 1.999023 0.000488

vt 1.496094 4.998047

vt 0.994629 4.998047

vt 0.994629 3.748047

vt 1.496094 3.748047

vt 0.994629 2.499023

vt 1.496094 2.499023

vt 0.994629 1.249878

vt 1.496094 1.249878

vt 0.994629 0.000488

vt 1.496094 0.000488

vt 0.994629 4.998047

vt 0.501465 4.998047

vt 0.501465 3.748047

vt 0.994629 3.748047

vt 0.501465 2.499023

vt 0.994629 2.499023

vt 0.501465 1.249878

vt 0.994629 1.249878

vt 0.501465 0.000488

vt 0.994629 0.000488

vt 0.003380 0.000488

vt 0.501465 0.000488

vt 0.501465 1.249878

vt 0.002535 1.249878

vt 0.501465 2.499023

vt 0.001690 2.499023

vt 0.501465 3.748047

vt 0.000845 3.748047

vt 0.501465 4.998047

vt 0.000000 4.998047

vt 1.989258 5.000000

vt 1.496094 4.998047

vt 1.496094 3.748047

vt 1.992188 3.750000

vt 1.496094 2.499023

vt 1.994141 2.500000

vt 1.496094 1.249878

vt 1.997070 1.250000

vt 1.496094 0.000488

vt 1.999023 0.000488

vt 1.496094 4.998047

vt 0.994629 4.998047

vt 0.994629 3.748047

vt 1.496094 3.748047

vt 0.994629 2.499023

vt 1.496094 2.499023

vt 0.994629 1.249878

vt 1.496094 1.249878

vt 0.994629 0.000488

vt 1.496094 0.000488

vt 0.994629 4.998047

vt 0.501465 4.998047

vt 0.501465 3.748047

vt 0.994629 3.748047

vt 0.501465 2.499023

vt 0.994629 2.499023

vt 0.501465 1.249878

vt 0.994629 1.249878

vt 0.501465 0.000488

vt 0.994629 0.000488

vt 0.003380 0.000488

vt 0.501465 0.000488

vt 0.501465 1.249878

vt 0.002535 1.249878

vt 0.501465 2.499023

vt 0.001690 2.499023

vt 0.501465 3.748047

vt 0.000845 3.748047

vt 0.501465 4.998047

vt 0.000000 4.998047

vt 1.989258 5.000000

vt 1.496094 4.998047

vt 1.496094 3.748047

vt 1.992188 3.750000

vt 1.496094 2.499023

vt 1.994141 2.500000

vt 1.496094 1.249878

vt 1.997070 1.250000

vt 1.496094 0.000488

vt 1.999023 0.000488



vn 1.000000 0.000000 0.000000

vn 1.000000 0.000000 0.000000

vn 1.000000 0.000000 0.000000

vn 1.000000 0.000000 0.000000

vn -1.000000 0.000000 0.000000

vn -1.000000 0.000000 0.000000

vn -1.000000 0.000000 0.000000

vn -1.000000 0.000000 0.000000

vn 1.000000 0.000000 0.000000

vn 1.000000 0.000000 0.000000

vn 1.000000 0.000000 0.000000

vn 1.000000 0.000000 0.000000

vn -1.000000 0.000000 0.000000

vn -1.000000 0.000000 0.000000

vn -1.000000 0.000000 0.000000

vn -1.000000 0.000000 0.000000

vn 0.000000 0.000000 -1.000000

vn 0.000000 0.000000 -1.000000

vn 0.000000 0.000000 -1.000000

vn 0.000000 0.000000 -1.000000

vn 0.000000 0.000000 1.000000

vn 0.000000 0.000000 1.000000

vn 0.000000 0.000000 1.000000

vn 0.000000 0.000000 1.000000

vn 0.000000 0.000000 -1.000000

vn 0.000000 0.000000 -1.000000

vn 0.000000 0.000000 -1.000000

vn 0.000000 0.000000 -1.000000

vn 0.000000 0.000000 1.000000

vn 0.000000 0.000000 1.000000

vn 0.000000 0.000000 1.000000

vn 0.000000 0.000000 1.000000

vn 0.000000 -1.000000 0.000000

vn 0.000000 -1.000000 0.000000

vn 0.000000 -1.000000 0.000000

vn 0.000000 -1.000000 0.000000

vn 0.000000 -1.000000 0.000000

vn 0.000000 -1.000000 0.000000

vn 0.000000 -1.000000 0.000000

vn 0.000000 -1.000000 0.000000

vn 0.000000 -1.000000 0.000000

vn 0.000000 -1.000000 0.000000

vn 0.000000 0.000000 1.000000

vn 0.000000 0.000000 1.000000

vn 0.000000 0.000000 1.000000

vn 0.000000 0.000000 1.000000

vn 0.000000 0.000000 1.000000

vn 0.000000 0.000000 1.000000

vn 0.000000 0.000000 1.000000

vn 0.000000 0.000000 1.000000

vn 0.000000 0.000000 1.000000

vn 0.000000 0.000000 1.000000

vn 0.000000 1.000000 0.000000

vn 0.000000 1.000000 0.000000

vn 0.000000 1.000000 0.000000

vn 0.000000 1.000000 0.000000

vn 0.000000 1.000000 0.000000

vn 0.000000 1.000000 0.000000

vn 0.000000 1.000000 0.000000

vn 0.000000 1.000000 0.000000

vn 0.000000 1.000000 0.000000

vn 0.000000 1.000000 0.000000

vn 0.000000 0.000000 -1.000000

vn 0.000000 0.000000 -1.000000

vn 0.000000 0.000000 -1.000000

vn 0.000000 0.000000 -1.000000

vn 0.000000 0.000000 -1.000000

vn 0.000000 0.000000 -1.000000

vn 0.000000 0.000000 -1.000000

vn 0.000000 0.000000 -1.000000

vn 0.000000 0.000000 -1.000000

vn 0.000000 0.000000 -1.000000

vn 0.000000 -1.000000 0.000000

vn 0.000000 -1.000000 0.000000

vn 0.000000 -1.000000 0.000000

vn 0.000000 -1.000000 0.000000

vn 0.000000 -1.000000 0.000000

vn 0.000000 -1.000000 0.000000

vn 0.000000 -1.000000 0.000000

vn 0.000000 -1.000000 0.000000

vn 0.000000 -1.000000 0.000000

vn 0.000000 -1.000000 0.000000

vn 0.000000 0.000000 1.000000

vn 0.000000 0.000000 1.000000

vn 0.000000 0.000000 1.000000

vn 0.000000 0.000000 1.000000

vn 0.000000 0.000000 1.000000

vn 0.000000 0.000000 1.000000

vn 0.000000 0.000000 1.000000

vn 0.000000 0.000000 1.000000

vn 0.000000 0.000000 1.000000

vn 0.000000 0.000000 1.000000

vn 0.000000 1.000000 0.000000

vn 0.000000 1.000000 0.000000

vn 0.000000 1.000000 0.000000

vn 0.000000 1.000000 0.000000

vn 0.000000 1.000000 0.000000

vn 0.000000 1.000000 0.000000

vn 0.000000 1.000000 0.000000

vn 0.000000 1.000000 0.000000

vn 0.000000 1.000000 0.000000

vn 0.000000 1.000000 0.000000

vn 0.000000 0.000000 -1.000000

vn 0.000000 0.000000 -1.000000

vn 0.000000 0.000000 -1.000000

vn 0.000000 0.000000 -1.000000

vn 0.000000 0.000000 -1.000000

vn 0.000000 0.000000 -1.000000

vn 0.000000 0.000000 -1.000000

vn 0.000000 0.000000 -1.000000

vn 0.000000 0.000000 -1.000000

vn 0.000000 0.000000 -1.000000

vn 0.000000 -1.000000 0.000000

vn 0.000000 -1.000000 0.000000

vn 0.000000 -1.000000 0.000000

vn 0.000000 -1.000000 0.000000

vn 0.000000 -1.000000 0.000000

vn 0.000000 -1.000000 0.000000

vn 0.000000 -1.000000 0.000000

vn 0.000000 -1.000000 0.000000

vn 0.000000 -1.000000 0.000000

vn 0.000000 -1.000000 0.000000

vn 1.000000 0.000000 0.000000

vn 1.000000 0.000000 0.000000

vn 1.000000 0.000000 0.000000

vn 1.000000 0.000000 0.000000

vn 1.000000 0.000000 0.000000

vn 1.000000 0.000000 0.000000

vn 1.000000 0.000000 0.000000

vn 1.000000 0.000000 0.000000

vn 1.000000 0.000000 0.000000

vn 1.000000 0.000000 0.000000

vn 0.000000 1.000000 0.000000

vn 0.000000 1.000000 0.000000

vn 0.000000 1.000000 0.000000

vn 0.000000 1.000000 0.000000

vn 0.000000 1.000000 0.000000

vn 0.000000 1.000000 0.000000

vn 0.000000 1.000000 0.000000

vn 0.000000 1.000000 0.000000

vn 0.000000 1.000000 0.000000

vn 0.000000 1.000000 0.000000

vn -1.000000 0.000000 0.000000

vn -1.000000 0.000000 0.000000

vn -1.000000 0.000000 0.000000

vn -1.000000 0.000000 0.000000

vn -1.000000 0.000000 0.000000

vn -1.000000 0.000000 0.000000

vn -1.000000 0.000000 0.000000

vn -1.000000 0.000000 0.000000

vn -1.000000 0.000000 0.000000

vn -1.000000 0.000000 0.000000

vn 0.000000 -1.000000 0.000000

vn 0.000000 -1.000000 0.000000

vn 0.000000 -1.000000 0.000000

vn 0.000000 -1.000000 0.000000

vn 0.000000 -1.000000 0.000000

vn 0.000000 -1.000000 0.000000

vn 0.000000 -1.000000 0.000000

vn 0.000000 -1.000000 0.000000

vn 0.000000 -1.000000 0.000000

vn 0.000000 -1.000000 0.000000

vn 1.000000 0.000000 0.000000

vn 1.000000 0.000000 0.000000

vn 1.000000 0.000000 0.000000

vn 1.000000 0.000000 0.000000

vn 1.000000 0.000000 0.000000

vn 1.000000 0.000000 0.000000

vn 1.000000 0.000000 0.000000

vn 1.000000 0.000000 0.000000

vn 1.000000 0.000000 0.000000

vn 1.000000 0.000000 0.000000

vn 0.000000 1.000000 0.000000

vn 0.000000 1.000000 0.000000

vn 0.000000 1.000000 0.000000

vn 0.000000 1.000000 0.000000

vn 0.000000 1.000000 0.000000

vn 0.000000 1.000000 0.000000

vn 0.000000 1.000000 0.000000

vn 0.000000 1.000000 0.000000

vn 0.000000 1.000000 0.000000

vn 0.000000 1.000000 0.000000

vn -1.000000 0.000000 0.000000

vn -1.000000 0.000000 0.000000

vn -1.000000 0.000000 0.000000

vn -1.000000 0.000000 0.000000

vn -1.000000 0.000000 0.000000

vn -1.000000 0.000000 0.000000

vn -1.000000 0.000000 0.000000

vn -1.000000 0.000000 0.000000

vn -1.000000 0.000000 0.000000

vn -1.000000 0.000000 0.000000

f 1/1/1 2/2/2 3/3/3

f 3/3/3 4/4/4 1/1/1

f 5/5/5 6/6/6 7/7/7

f 7/7/7 8/8/8 5/5/5

f 9/9/9 10/10/10 11/11/11

f 11/11/11 12/12/12 9/9/9

f 13/13/13 14/14/14 15/15/15

f 15/15/15 16/16/16 13/13/13

f 17/17/17 18/18/18 19/19/19

f 19/19/19 20/20/20 17/17/17

f 21/21/21 22/22/22 23/23/23

f 23/23/23 24/24/24 21/21/21

f 25/25/25 26/26/26 27/27/27

f 27/27/27 28/28/28 25/25/25

f 29/29/29 30/30/30 31/31/31

f 31/31/31 32/32/32 29/29/29

f 33/33/33 34/34/34 35/35/35

f 35/35/35 36/36/36 33/33/33

f 36/36/36 35/35/35 37/37/37

f 37/37/37 38/38/38 36/36/36

f 38/38/38 37/37/37 39/39/39

f 39/39/39 40/40/40 38/38/38

f 40/40/40 39/39/39 41/41/41

f 41/41/41 42/42/42 40/40/40

f 43/43/43 44/44/44 45/45/45

f 45/45/45 46/46/46 43/43/43

f 46/46/46 45/45/45 47/47/47

f 47/47/47 48/48/48 46/46/46

f 48/48/48 47/47/47 49/49/49

f 49/49/49 50/50/50 48/48/48

f 50/50/50 49/49/49 51/51/51

f 51/51/51 52/52/52 50/50/50

f 53/53/53 54/54/54 55/55/55

f 55/55/55 56/56/56 53/53/53

f 56/56/56 55/55/55 57/57/57

f 57/57/57 58/58/58 56/56/56

f 58/58/58 57/57/57 59/59/59

f 59/59/59 60/60/60 58/58/58

f 60/60/60 59/59/59 61/61/61

f 61/61/61 62/62/62 60/60/60

f 63/63/63 64/64/64 65/65/65

f 65/65/65 66/66/66 63/63/63

f 66/66/66 65/65/65 67/67/67

f 67/67/67 68/68/68 66/66/66

f 68/68/68 67/67/67 69/69/69

f 69/69/69 70/70/70 68/68/68

f 70/70/70 69/69/69 71/71/71

f 71/71/71 72/72/72 70/70/70

f 73/73/73 74/74/74 75/75/75

f 75/75/75 76/76/76 73/73/73

f 76/76/76 75/75/75 77/77/77

f 77/77/77 78/78/78 76/76/76

f 78/78/78 77/77/77 79/79/79

f 79/79/79 80/80/80 78/78/78

f 80/80/80 79/79/79 81/81/81

f 81/81/81 82/82/82 80/80/80

f 83/83/83 84/84/84 85/85/85

f 85/85/85 86/86/86 83/83/83

f 86/86/86 85/85/85 87/87/87

f 87/87/87 88/88/88 86/86/86

f 88/88/88 87/87/87 89/89/89

f 89/89/89 90/90/90 88/88/88

f 90/90/90 89/89/89 91/91/91

f 91/91/91 92/92/92 90/90/90

f 93/93/93 94/94/94 95/95/95

f 95/95/95 96/96/96 93/93/93

f 96/96/96 95/95/95 97/97/97

f 97/97/97 98/98/98 96/96/96

f 98/98/98 97/97/97 99/99/99

f 99/99/99 100/100/100 98/98/98

f 100/100/100 99/99/99 101/101/101

f 101/101/101 102/102/102 100/100/100

f 103/103/103 104/104/104 105/105/105

f 105/105/105 106/106/106 103/103/103

f 106/106/106 105/105/105 107/107/107

f 107/107/107 108/108/108 106/106/106

f 108/108/108 107/107/107 109/109/109

f 109/109/109 110/110/110 108/108/108

f 110/110/110 109/109/109 111/111/111

f 111/111/111 112/112/112 110/110/110

f 113/113/113 114/114/114 115/115/115

f 115/115/115 116/116/116 113/113/113

f 116/116/116 115/115/115 117/117/117

f 117/117/117 118/118/118 116/116/116

f 118/118/118 117/117/117 119/119/119

f 119/119/119 120/120/120 118/118/118

f 120/120/120 119/119/119 121/121/121

f 121/121/121 122/122/122 120/120/120

f 123/123/123 124/124/124 125/125/125

f 125/125/125 126/126/126 123/123/123

f 126/126/126 125/125/125 127/127/127

f 127/127/127 128/128/128 126/126/126

f 128/128/128 127/127/127 129/129/129

f 129/129/129 130/130/130 128/128/128

f 130/130/130 129/129/129 131/131/131

f 131/131/131 132/132/132 130/130/130

f 133/133/133 134/134/134 135/135/135

f 135/135/135 136/136/136 133/133/133

f 136/136/136 135/135/135 137/137/137

f 137/137/137 138/138/138 136/136/136

f 138/138/138 137/137/137 139/139/139

f 139/139/139 140/140/140 138/138/138

f 140/140/140 139/139/139 141/141/141

f 141/141/141 142/142/142 140/140/140

f 143/143/143 144/144/144 145/145/145

f 145/145/145 146/146/146 143/143/143

f 146/146/146 145/145/145 147/147/147

f 147/147/147 148/148/148 146/146/146

f 148/148/148 147/147/147 149/149/149

f 149/149/149 150/150/150 148/148/148

f 150/150/150 149/149/149 151/151/151

f 151/151/151 152/152/152 150/150/150

f 153/153/153 154/154/154 155/155/155

f 155/155/155 156/156/156 153/153/153

f 156/156/156 155/155/155 157/157/157

f 157/157/157 158/158/158 156/156/156

f 158/158/158 157/157/157 159/159/159

f 159/159/159 160/160/160 158/158/158

f 160/160/160 159/159/159 161/161/161

f 161/161/161 162/162/162 160/160/160

f 163/163/163 164/164/164 165/165/165

f 165/165/165 166/166/166 163/163/163

f 166/166/166 165/165/165 167/167/167

f 167/167/167 168/168/168 166/166/166

f 168/168/168 167/167/167 169/169/169

f 169/169/169 170/170/170 168/168/168

f 170/170/170 169/169/169 171/171/171

f 171/171/171 172/172/172 170/170/170

f 173/173/173 174/174/174 175/175/175

f 175/175/175 176/176/176 173/173/173

f 176/176/176 175/175/175 177/177/177

f 177/177/177 178/178/178 176/176/176

f 178/178/178 177/177/177 179/179/179

f 179/179/179 180/180/180 178/178/178

f 180/180/180 179/179/179 181/181/181

f 181/181/181 182/182/182 180/180/180

f 183/183/183 184/184/184 185/185/185

f 185/185/185 186/186/186 183/183/183

f 186/186/186 185/185/185 187/187/187

f 187/187/187 188/188/188 186/186/186

f 188/188/188 187/187/187 189/189/189

f 189/189/189 190/190/190 188/188/188

f 190/190/190 189/189/189 191/191/191

f 191/191/191 192/192/192 190/190/190

