# UnrealEd OBJ exporter (_Internal)



v -280.000000 170.000000 -1600.000000

v 3520.000000 170.000000 -1600.000000

v 3520.000000 470.000000 -1600.000000

v -280.000000 470.000000 -1600.000000

v -280.000000 170.000000 -1620.000000

v -280.000000 470.000000 -1620.000000

v 3520.000000 470.000000 -1620.000000

v 3520.000000 170.000000 -1620.000000

v 3520.000000 170.000000 -1620.000000

v 3520.000000 170.000000 -1600.000000

v -280.000000 170.000000 -1600.000000

v -280.000000 170.000000 -1620.000000

v 3520.000000 470.000000 -1620.000000

v 3520.000000 470.000000 -1600.000000

v 3520.000000 170.000000 -1600.000000

v 3520.000000 170.000000 -1620.000000

v -280.000000 470.000000 -1620.000000

v -280.000000 470.000000 -1600.000000

v 3520.000000 470.000000 -1600.000000

v 3520.000000 470.000000 -1620.000000

v -280.000000 470.000000 -1620.000000

v -280.000000 170.000000 -1620.000000

v -280.000000 170.000000 -1600.000000

v -280.000000 470.000000 -1600.000000

v 3470.000000 170.000000 -290.000031

v 3469.997070 170.000000 -1689.999878

v 3469.997070 620.000000 -1689.999878

v 3470.000000 620.000000 -290.000031

v 3450.000000 170.000000 -289.999969

v 3450.000000 620.000000 -289.999969

v 3449.997070 620.000000 -1689.999878

v 3449.997070 170.000000 -1689.999878

v 3449.997070 170.000000 -1689.999878

v 3469.997070 170.000000 -1689.999878

v 3470.000000 170.000000 -290.000031

v 3450.000000 170.000000 -289.999969

v 3449.997070 620.000000 -1689.999878

v 3469.997070 620.000000 -1689.999878

v 3469.997070 170.000000 -1689.999878

v 3449.997070 170.000000 -1689.999878

v 3450.000000 620.000000 -289.999969

v 3470.000000 620.000000 -290.000031

v 3469.997070 620.000000 -1689.999878

v 3449.997070 620.000000 -1689.999878

v 3450.000000 620.000000 -289.999969

v 3450.000000 170.000000 -289.999969

v 3470.000000 170.000000 -290.000031

v 3470.000000 620.000000 -290.000031

v 3470.000000 170.000000 710.000000

v 3469.998535 170.000000 -89.999878

v 3469.998535 620.000000 -89.999878

v 3470.000000 620.000000 710.000000

v 3450.000000 170.000000 710.000000

v 3450.000000 620.000000 710.000000

v 3449.998535 620.000000 -89.999817

v 3449.998535 170.000000 -89.999817

v 3449.998535 170.000000 -89.999817

v 3469.998535 170.000000 -89.999878

v 3470.000000 170.000000 710.000000

v 3450.000000 170.000000 710.000000

v 3449.998535 620.000000 -89.999817

v 3469.998535 620.000000 -89.999878

v 3469.998535 170.000000 -89.999878

v 3449.998535 170.000000 -89.999817

v 3450.000000 620.000000 710.000000

v 3470.000000 620.000000 710.000000

v 3469.998535 620.000000 -89.999878

v 3449.998535 620.000000 -89.999817

v 3450.000000 620.000000 710.000000

v 3450.000000 170.000000 710.000000

v 3470.000000 170.000000 710.000000

v 3470.000000 620.000000 710.000000

v 3470.000000 170.000000 1770.000000

v 3469.998291 170.000000 904.000061

v 3469.998291 620.000000 904.000061

v 3470.000000 620.000000 1770.000000

v 3450.000000 170.000000 1770.000000

v 3450.000000 620.000000 1770.000000

v 3449.998291 620.000000 904.000122

v 3449.998291 170.000000 904.000122

v 3449.998291 170.000000 904.000122

v 3469.998291 170.000000 904.000061

v 3470.000000 170.000000 1770.000000

v 3450.000000 170.000000 1770.000000

v 3449.998291 620.000000 904.000122

v 3469.998291 620.000000 904.000061

v 3469.998291 170.000000 904.000061

v 3449.998291 170.000000 904.000122

v 3450.000000 620.000000 1770.000000

v 3470.000000 620.000000 1770.000000

v 3469.998291 620.000000 904.000061

v 3449.998291 620.000000 904.000122

v 3450.000000 620.000000 1770.000000

v 3450.000000 170.000000 1770.000000

v 3470.000000 170.000000 1770.000000

v 3470.000000 620.000000 1770.000000

v -280.000000 170.000000 1790.000000

v 3520.000000 170.000000 1790.000000

v 3520.000000 470.000000 1790.000000

v -280.000000 470.000000 1790.000000

v -280.000000 170.000000 1770.000000

v -280.000000 470.000000 1770.000000

v 3520.000000 470.000000 1770.000000

v 3520.000000 170.000000 1770.000000

v 3520.000000 170.000000 1770.000000

v 3520.000000 170.000000 1790.000000

v -280.000000 170.000000 1790.000000

v -280.000000 170.000000 1770.000000

v 3520.000000 470.000000 1770.000000

v 3520.000000 470.000000 1790.000000

v 3520.000000 170.000000 1790.000000

v 3520.000000 170.000000 1770.000000

v -280.000000 470.000000 1770.000000

v -280.000000 470.000000 1790.000000

v 3520.000000 470.000000 1790.000000

v 3520.000000 470.000000 1770.000000

v -280.000000 470.000000 1770.000000

v -280.000000 170.000000 1770.000000

v -280.000000 170.000000 1790.000000

v -280.000000 470.000000 1790.000000

v -280.000061 170.000000 1780.000000

v -280.006836 170.000000 -1619.999756

v -280.006836 620.000000 -1619.999756

v -279.999939 620.000000 1780.000000

v -320.000061 170.000000 1780.000000

v -319.999939 620.000000 1780.000000

v -320.006836 620.000000 -1619.999756

v -320.006836 170.000000 -1619.999756

v -320.006836 170.000000 -1619.999756

v -280.006836 170.000000 -1619.999756

v -280.000061 170.000000 1780.000000

v -320.000061 170.000000 1780.000000

v -320.006836 620.000000 -1619.999756

v -280.006836 620.000000 -1619.999756

v -280.006836 170.000000 -1619.999756

v -320.006836 170.000000 -1619.999756

v -319.999939 620.000000 1780.000000

v -279.999939 620.000000 1780.000000

v -280.006836 620.000000 -1619.999756

v -320.006836 620.000000 -1619.999756

v -319.999939 620.000000 1780.000000

v -320.000061 170.000000 1780.000000

v -280.000061 170.000000 1780.000000

v -279.999939 620.000000 1780.000000

v 3470.000000 170.000000 -89.999359

v 3470.000488 170.000000 -289.999359

v 3470.000488 620.000000 -289.999359

v 3470.000000 620.000000 -89.999359

v 3450.000000 170.000000 -89.999420

v 3450.000000 620.000000 -89.999420

v 3450.000488 620.000000 -289.999390

v 3450.000488 170.000000 -289.999390

v 3450.000488 170.000000 -289.999390

v 3470.000488 170.000000 -289.999359

v 3470.000000 170.000000 -89.999359

v 3450.000000 170.000000 -89.999420

v 3450.000488 620.000000 -289.999390

v 3470.000488 620.000000 -289.999359

v 3470.000488 170.000000 -289.999359

v 3450.000488 170.000000 -289.999390

v 3450.000000 620.000000 -89.999420

v 3470.000000 620.000000 -89.999359

v 3470.000488 620.000000 -289.999359

v 3450.000488 620.000000 -289.999390

v 3450.000000 620.000000 -89.999420

v 3450.000000 170.000000 -89.999420

v 3470.000000 170.000000 -89.999359

v 3470.000000 620.000000 -89.999359



vt 3.998047 0.000000

vt -0.000000 0.000000

vt -0.000000 2.999023

vt 3.998047 2.999023

vt -0.000000 0.000000

vt -0.000000 2.999023

vt 3.998047 2.999023

vt 3.998047 0.000000

vt 2.097656 0.001953

vt 1.898438 0.001953

vt 1.898438 3.998047

vt 2.097656 3.998047

vt 2.097656 2.999023

vt 1.898438 2.999023

vt 1.898438 0.000000

vt 2.097656 0.000000

vt 2.097656 3.998047

vt 1.898438 3.998047

vt 1.898438 0.001953

vt 2.097656 0.001953

vt 2.097656 2.999023

vt 2.097656 0.000000

vt 1.898438 0.000000

vt 1.898438 2.999023

vt 3.998047 0.000000

vt -0.000000 0.000000

vt -0.000000 2.999023

vt 3.998047 2.999023

vt -0.000000 0.000000

vt -0.000000 2.999023

vt 3.998047 2.999023

vt 3.998047 0.000000

vt 2.097656 0.001953

vt 1.898438 0.001953

vt 1.898438 3.998047

vt 2.097656 3.998047

vt 2.097656 2.999023

vt 1.898438 2.999023

vt 1.898438 0.000000

vt 2.097656 0.000000

vt 2.097656 3.998047

vt 1.898438 3.998047

vt 1.898438 0.001953

vt 2.097656 0.001953

vt 2.097656 2.999023

vt 2.097656 0.000000

vt 1.898438 0.000000

vt 1.898438 2.999023

vt 3.998047 0.000000

vt -0.000000 0.000000

vt -0.000000 2.999023

vt 3.998047 2.999023

vt -0.000000 0.000000

vt -0.000000 2.999023

vt 3.998047 2.999023

vt 3.998047 0.000000

vt 2.097656 0.001953

vt 1.898438 0.001953

vt 1.898438 3.998047

vt 2.097656 3.998047

vt 2.097656 2.999023

vt 1.898438 2.999023

vt 1.898438 0.000000

vt 2.097656 0.000000

vt 2.097656 3.998047

vt 1.898438 3.998047

vt 1.898438 0.001953

vt 2.097656 0.001953

vt 2.097656 2.999023

vt 2.097656 0.000000

vt 1.898438 0.000000

vt 1.898438 2.999023

vt 3.998047 0.000000

vt -0.000000 0.000000

vt -0.000000 2.999023

vt 3.998047 2.999023

vt -0.000000 0.000000

vt -0.000000 2.999023

vt 3.998047 2.999023

vt 3.998047 0.000000

vt 2.097656 0.001953

vt 1.898438 0.001953

vt 1.898438 3.998047

vt 2.097656 3.998047

vt 2.097656 2.999023

vt 1.898438 2.999023

vt 1.898438 0.000000

vt 2.097656 0.000000

vt 2.097656 3.998047

vt 1.898438 3.998047

vt 1.898438 0.001953

vt 2.097656 0.001953

vt 2.097656 2.999023

vt 2.097656 0.000000

vt 1.898438 0.000000

vt 1.898438 2.999023

vt 3.998047 0.000000

vt -0.000000 0.000000

vt -0.000000 2.999023

vt 3.998047 2.999023

vt -0.000000 0.000000

vt -0.000000 2.999023

vt 3.998047 2.999023

vt 3.998047 0.000000

vt 2.097656 0.001953

vt 1.898438 0.001953

vt 1.898438 3.998047

vt 2.097656 3.998047

vt 2.097656 2.999023

vt 1.898438 2.999023

vt 1.898438 0.000000

vt 2.097656 0.000000

vt 2.097656 3.998047

vt 1.898438 3.998047

vt 1.898438 0.001953

vt 2.097656 0.001953

vt 2.097656 2.999023

vt 2.097656 0.000000

vt 1.898438 0.000000

vt 1.898438 2.999023

vt 3.998047 0.000000

vt -0.000000 0.000000

vt -0.000000 2.999023

vt 3.998047 2.999023

vt -0.000000 0.000000

vt -0.000000 2.999023

vt 3.998047 2.999023

vt 3.998047 0.000000

vt 2.097656 0.001953

vt 1.898438 0.001953

vt 1.898438 3.998047

vt 2.097656 3.998047

vt 2.097656 2.999023

vt 1.898438 2.999023

vt 1.898438 0.000000

vt 2.097656 0.000000

vt 2.097656 3.998047

vt 1.898438 3.998047

vt 1.898438 0.001953

vt 2.097656 0.001953

vt 2.097656 2.999023

vt 2.097656 0.000000

vt 1.898438 0.000000

vt 1.898438 2.999023

vt 3.998047 0.000000

vt -0.000000 0.000000

vt -0.000000 2.999023

vt 3.998047 2.999023

vt -0.000000 0.000000

vt -0.000000 2.999023

vt 3.998047 2.999023

vt 3.998047 0.000000

vt 2.097656 0.001953

vt 1.898438 0.001953

vt 1.898438 3.998047

vt 2.097656 3.998047

vt 2.097656 2.999023

vt 1.898438 2.999023

vt 1.898438 0.000000

vt 2.097656 0.000000

vt 2.097656 3.998047

vt 1.898438 3.998047

vt 1.898438 0.001953

vt 2.097656 0.001953

vt 2.097656 2.999023

vt 2.097656 0.000000

vt 1.898438 0.000000

vt 1.898438 2.999023



vn 0.000000 0.000000 1.000000

vn 0.000000 0.000000 1.000000

vn 0.000000 0.000000 1.000000

vn 0.000000 0.000000 1.000000

vn 0.000000 0.000000 -1.000000

vn 0.000000 0.000000 -1.000000

vn 0.000000 0.000000 -1.000000

vn 0.000000 0.000000 -1.000000

vn 0.000000 -1.000000 0.000000

vn 0.000000 -1.000000 0.000000

vn 0.000000 -1.000000 0.000000

vn 0.000000 -1.000000 0.000000

vn 1.000000 0.000000 0.000000

vn 1.000000 0.000000 0.000000

vn 1.000000 0.000000 0.000000

vn 1.000000 0.000000 0.000000

vn 0.000000 1.000000 0.000000

vn 0.000000 1.000000 0.000000

vn 0.000000 1.000000 0.000000

vn 0.000000 1.000000 0.000000

vn -1.000000 0.000000 0.000000

vn -1.000000 0.000000 0.000000

vn -1.000000 0.000000 0.000000

vn -1.000000 0.000000 0.000000

vn 1.000000 0.000000 0.000000

vn 1.000000 0.000000 0.000000

vn 1.000000 0.000000 0.000000

vn 1.000000 0.000000 0.000000

vn -1.000000 0.000000 0.000000

vn -1.000000 0.000000 0.000000

vn -1.000000 0.000000 0.000000

vn -1.000000 0.000000 0.000000

vn 0.000000 -1.000000 0.000000

vn 0.000000 -1.000000 0.000000

vn 0.000000 -1.000000 0.000000

vn 0.000000 -1.000000 0.000000

vn 0.000000 0.000000 -1.000000

vn 0.000000 0.000000 -1.000000

vn 0.000000 0.000000 -1.000000

vn 0.000000 0.000000 -1.000000

vn 0.000000 1.000000 0.000000

vn 0.000000 1.000000 0.000000

vn 0.000000 1.000000 0.000000

vn 0.000000 1.000000 0.000000

vn 0.000000 0.000000 1.000000

vn 0.000000 0.000000 1.000000

vn 0.000000 0.000000 1.000000

vn 0.000000 0.000000 1.000000

vn 1.000000 0.000000 0.000000

vn 1.000000 0.000000 0.000000

vn 1.000000 0.000000 0.000000

vn 1.000000 0.000000 0.000000

vn -1.000000 0.000000 0.000000

vn -1.000000 0.000000 0.000000

vn -1.000000 0.000000 0.000000

vn -1.000000 0.000000 0.000000

vn 0.000000 -1.000000 0.000000

vn 0.000000 -1.000000 0.000000

vn 0.000000 -1.000000 0.000000

vn 0.000000 -1.000000 0.000000

vn 0.000000 0.000000 -1.000000

vn 0.000000 0.000000 -1.000000

vn 0.000000 0.000000 -1.000000

vn 0.000000 0.000000 -1.000000

vn 0.000000 1.000000 0.000000

vn 0.000000 1.000000 0.000000

vn 0.000000 1.000000 0.000000

vn 0.000000 1.000000 0.000000

vn 0.000000 0.000000 1.000000

vn 0.000000 0.000000 1.000000

vn 0.000000 0.000000 1.000000

vn 0.000000 0.000000 1.000000

vn 1.000000 0.000000 0.000000

vn 1.000000 0.000000 0.000000

vn 1.000000 0.000000 0.000000

vn 1.000000 0.000000 0.000000

vn -1.000000 0.000000 0.000000

vn -1.000000 0.000000 0.000000

vn -1.000000 0.000000 0.000000

vn -1.000000 0.000000 0.000000

vn 0.000000 -1.000000 0.000000

vn 0.000000 -1.000000 0.000000

vn 0.000000 -1.000000 0.000000

vn 0.000000 -1.000000 0.000000

vn 0.000000 0.000000 -1.000000

vn 0.000000 0.000000 -1.000000

vn 0.000000 0.000000 -1.000000

vn 0.000000 0.000000 -1.000000

vn 0.000000 1.000000 0.000000

vn 0.000000 1.000000 0.000000

vn 0.000000 1.000000 0.000000

vn 0.000000 1.000000 0.000000

vn 0.000000 0.000000 1.000000

vn 0.000000 0.000000 1.000000

vn 0.000000 0.000000 1.000000

vn 0.000000 0.000000 1.000000

vn 0.000000 0.000000 1.000000

vn 0.000000 0.000000 1.000000

vn 0.000000 0.000000 1.000000

vn 0.000000 0.000000 1.000000

vn 0.000000 0.000000 -1.000000

vn 0.000000 0.000000 -1.000000

vn 0.000000 0.000000 -1.000000

vn 0.000000 0.000000 -1.000000

vn 0.000000 -1.000000 0.000000

vn 0.000000 -1.000000 0.000000

vn 0.000000 -1.000000 0.000000

vn 0.000000 -1.000000 0.000000

vn 1.000000 0.000000 0.000000

vn 1.000000 0.000000 0.000000

vn 1.000000 0.000000 0.000000

vn 1.000000 0.000000 0.000000

vn 0.000000 1.000000 0.000000

vn 0.000000 1.000000 0.000000

vn 0.000000 1.000000 0.000000

vn 0.000000 1.000000 0.000000

vn -1.000000 0.000000 0.000000

vn -1.000000 0.000000 0.000000

vn -1.000000 0.000000 0.000000

vn -1.000000 0.000000 0.000000

vn 1.000000 0.000000 0.000000

vn 1.000000 0.000000 0.000000

vn 1.000000 0.000000 0.000000

vn 1.000000 0.000000 0.000000

vn -1.000000 0.000000 0.000000

vn -1.000000 0.000000 0.000000

vn -1.000000 0.000000 0.000000

vn -1.000000 0.000000 0.000000

vn 0.000000 -1.000000 0.000000

vn 0.000000 -1.000000 0.000000

vn 0.000000 -1.000000 0.000000

vn 0.000000 -1.000000 0.000000

vn 0.000000 0.000000 -1.000000

vn 0.000000 0.000000 -1.000000

vn 0.000000 0.000000 -1.000000

vn 0.000000 0.000000 -1.000000

vn 0.000000 1.000000 0.000000

vn 0.000000 1.000000 0.000000

vn 0.000000 1.000000 0.000000

vn 0.000000 1.000000 0.000000

vn 0.000000 0.000000 1.000000

vn 0.000000 0.000000 1.000000

vn 0.000000 0.000000 1.000000

vn 0.000000 0.000000 1.000000

vn 1.000000 0.000000 0.000000

vn 1.000000 0.000000 0.000000

vn 1.000000 0.000000 0.000000

vn 1.000000 0.000000 0.000000

vn -1.000000 0.000000 0.000000

vn -1.000000 0.000000 0.000000

vn -1.000000 0.000000 0.000000

vn -1.000000 0.000000 0.000000

vn 0.000000 -1.000000 0.000000

vn 0.000000 -1.000000 0.000000

vn 0.000000 -1.000000 0.000000

vn 0.000000 -1.000000 0.000000

vn 0.000000 0.000000 -1.000000

vn 0.000000 0.000000 -1.000000

vn 0.000000 0.000000 -1.000000

vn 0.000000 0.000000 -1.000000

vn 0.000000 1.000000 0.000000

vn 0.000000 1.000000 0.000000

vn 0.000000 1.000000 0.000000

vn 0.000000 1.000000 0.000000

vn 0.000000 0.000000 1.000000

vn 0.000000 0.000000 1.000000

vn 0.000000 0.000000 1.000000

vn 0.000000 0.000000 1.000000

f 1/1/1 2/2/2 3/3/3

f 3/3/3 4/4/4 1/1/1

f 5/5/5 6/6/6 7/7/7

f 7/7/7 8/8/8 5/5/5

f 9/9/9 10/10/10 11/11/11

f 11/11/11 12/12/12 9/9/9

f 13/13/13 14/14/14 15/15/15

f 15/15/15 16/16/16 13/13/13

f 17/17/17 18/18/18 19/19/19

f 19/19/19 20/20/20 17/17/17

f 21/21/21 22/22/22 23/23/23

f 23/23/23 24/24/24 21/21/21

f 25/25/25 26/26/26 27/27/27

f 27/27/27 28/28/28 25/25/25

f 29/29/29 30/30/30 31/31/31

f 31/31/31 32/32/32 29/29/29

f 33/33/33 34/34/34 35/35/35

f 35/35/35 36/36/36 33/33/33

f 37/37/37 38/38/38 39/39/39

f 39/39/39 40/40/40 37/37/37

f 41/41/41 42/42/42 43/43/43

f 43/43/43 44/44/44 41/41/41

f 45/45/45 46/46/46 47/47/47

f 47/47/47 48/48/48 45/45/45

f 49/49/49 50/50/50 51/51/51

f 51/51/51 52/52/52 49/49/49

f 53/53/53 54/54/54 55/55/55

f 55/55/55 56/56/56 53/53/53

f 57/57/57 58/58/58 59/59/59

f 59/59/59 60/60/60 57/57/57

f 61/61/61 62/62/62 63/63/63

f 63/63/63 64/64/64 61/61/61

f 65/65/65 66/66/66 67/67/67

f 67/67/67 68/68/68 65/65/65

f 69/69/69 70/70/70 71/71/71

f 71/71/71 72/72/72 69/69/69

f 73/73/73 74/74/74 75/75/75

f 75/75/75 76/76/76 73/73/73

f 77/77/77 78/78/78 79/79/79

f 79/79/79 80/80/80 77/77/77

f 81/81/81 82/82/82 83/83/83

f 83/83/83 84/84/84 81/81/81

f 85/85/85 86/86/86 87/87/87

f 87/87/87 88/88/88 85/85/85

f 89/89/89 90/90/90 91/91/91

f 91/91/91 92/92/92 89/89/89

f 93/93/93 94/94/94 95/95/95

f 95/95/95 96/96/96 93/93/93

f 97/97/97 98/98/98 99/99/99

f 99/99/99 100/100/100 97/97/97

f 101/101/101 102/102/102 103/103/103

f 103/103/103 104/104/104 101/101/101

f 105/105/105 106/106/106 107/107/107

f 107/107/107 108/108/108 105/105/105

f 109/109/109 110/110/110 111/111/111

f 111/111/111 112/112/112 109/109/109

f 113/113/113 114/114/114 115/115/115

f 115/115/115 116/116/116 113/113/113

f 117/117/117 118/118/118 119/119/119

f 119/119/119 120/120/120 117/117/117

f 121/121/121 122/122/122 123/123/123

f 123/123/123 124/124/124 121/121/121

f 125/125/125 126/126/126 127/127/127

f 127/127/127 128/128/128 125/125/125

f 129/129/129 130/130/130 131/131/131

f 131/131/131 132/132/132 129/129/129

f 133/133/133 134/134/134 135/135/135

f 135/135/135 136/136/136 133/133/133

f 137/137/137 138/138/138 139/139/139

f 139/139/139 140/140/140 137/137/137

f 141/141/141 142/142/142 143/143/143

f 143/143/143 144/144/144 141/141/141

f 145/145/145 146/146/146 147/147/147

f 147/147/147 148/148/148 145/145/145

f 149/149/149 150/150/150 151/151/151

f 151/151/151 152/152/152 149/149/149

f 153/153/153 154/154/154 155/155/155

f 155/155/155 156/156/156 153/153/153

f 157/157/157 158/158/158 159/159/159

f 159/159/159 160/160/160 157/157/157

f 161/161/161 162/162/162 163/163/163

f 163/163/163 164/164/164 161/161/161

f 165/165/165 166/166/166 167/167/167

f 167/167/167 168/168/168 165/165/165

