# 3ds Max Wavefront OBJ Exporter v0.99 - (c)2007 guruware
# File Created: 23.06.2022 04:25:15

#
# object Cylinder001
#

v  172.4482 0.0000 125.2906
v  125.2910 0.0000 172.4479
v  65.8695 0.0000 202.7248
v  0.0002 0.0000 213.1575
v  -65.8691 0.0000 202.7249
v  -125.2907 0.0000 172.4481
v  -172.4480 0.0000 125.2909
v  -202.7248 0.0000 65.8694
v  -213.1575 0.0000 0.0001
v  -202.7249 0.0000 -65.8692
v  -172.4481 0.0000 -125.2908
v  -125.2908 0.0000 -172.4480
v  -65.8693 0.0000 -202.7248
v  -0.0000 0.0000 -213.1575
v  65.8693 0.0000 -202.7248
v  125.2908 0.0000 -172.4480
v  172.4480 0.0000 -125.2908
v  202.7248 0.0000 -65.8693
v  213.1575 0.0000 -0.0000
v  202.7249 0.0000 65.8690
v  35.1171 8.9046 0.0000
v  33.3984 8.9046 -10.8518
v  28.4103 8.9046 -20.6413
v  20.6413 8.9046 -28.4104
v  10.8518 8.9046 -33.3984
v  0.0000 8.9046 -35.1171
v  -10.8518 8.9046 -33.3984
v  -20.6413 8.9046 -28.4103
v  -28.4104 8.9046 -20.6413
v  -33.3984 8.9046 -10.8518
v  -35.1171 8.9046 -0.0000
v  -33.3984 8.9046 10.8518
v  -28.4103 8.9046 20.6413
v  -20.6413 8.9046 28.4103
v  -10.8518 8.9046 33.3984
v  0.0000 8.9046 35.1171
v  10.8518 8.9046 33.3983
v  20.6413 8.9046 28.4103
v  28.4104 8.9046 20.6413
v  33.3984 8.9046 10.8517
v  213.1575 6.2132 0.0000
v  202.7248 6.2132 -65.8693
v  134.1932 1.2469 -43.6020
v  141.0991 1.2469 0.0000
v  172.4480 6.2132 -125.2908
v  114.1515 1.2469 -82.9359
v  125.2908 6.2132 -172.4480
v  82.9359 1.2469 -114.1516
v  65.8693 6.2132 -202.7248
v  43.6020 1.2469 -134.1932
v  -0.0000 6.2132 -213.1575
v  0.0000 1.2469 -141.0991
v  -65.8693 6.2132 -202.7248
v  -43.6020 1.2469 -134.1932
v  -125.2908 6.2132 -172.4480
v  -82.9359 1.2469 -114.1515
v  -172.4481 6.2132 -125.2908
v  -114.1516 1.2469 -82.9359
v  -202.7249 6.2132 -65.8692
v  -134.1932 1.2469 -43.6020
v  -213.1575 6.2132 0.0001
v  -141.0991 1.2469 0.0000
v  -202.7248 6.2132 65.8694
v  -134.1932 1.2469 43.6021
v  -172.4480 6.2132 125.2909
v  -114.1515 1.2469 82.9360
v  -125.2907 6.2132 172.4481
v  -82.9359 1.2469 114.1516
v  -65.8691 6.2132 202.7249
v  -43.6019 1.2469 134.1932
v  0.0002 6.2132 213.1575
v  0.0001 1.2469 141.0991
v  65.8695 6.2132 202.7248
v  43.6022 1.2469 134.1931
v  125.2910 6.2132 172.4479
v  82.9361 1.2469 114.1514
v  172.4482 6.2132 125.2906
v  114.1516 1.2469 82.9358
v  202.7249 6.2132 65.8690
v  134.1933 1.2469 43.6018
v  134.1933 0.7664 43.6018
v  141.0991 0.7664 0.0000
v  134.1932 0.7664 -43.6020
v  114.1515 0.7664 -82.9359
v  82.9359 0.7664 -114.1516
v  43.6020 0.7664 -134.1932
v  0.0000 0.7664 -141.0991
v  -43.6020 0.7664 -134.1932
v  -82.9359 0.7664 -114.1515
v  -114.1516 0.7664 -82.9359
v  -134.1932 0.7664 -43.6020
v  -141.0991 0.7664 0.0000
v  -134.1932 0.7664 43.6021
v  -114.1515 0.7664 82.9360
v  -82.9359 0.7664 114.1516
v  -43.6019 0.7664 134.1932
v  0.0001 0.7664 141.0991
v  43.6022 0.7664 134.1931
v  82.9361 0.7664 114.1514
v  114.1516 0.7664 82.9358
# 100 vertices

vn 0.0000 -1.0000 -0.0000
vn 0.9511 0.0000 -0.3090
vn 1.0000 0.0000 -0.0000
vn 0.8090 0.0000 -0.5878
vn 0.5878 0.0000 -0.8090
vn 0.3090 0.0000 -0.9511
vn -0.0000 0.0000 -1.0000
vn -0.3090 0.0000 -0.9511
vn -0.5878 0.0000 -0.8090
vn -0.8090 0.0000 -0.5878
vn -0.9511 0.0000 -0.3090
vn -1.0000 0.0000 0.0000
vn -0.9511 0.0000 0.3090
vn -0.8090 0.0000 0.5878
vn -0.5878 0.0000 0.8090
vn -0.3090 0.0000 0.9511
vn 0.0000 0.0000 1.0000
vn 0.3090 0.0000 0.9511
vn 0.5878 0.0000 0.8090
vn 0.8090 0.0000 0.5878
vn 0.9511 0.0000 0.3090
vn 0.0421 0.9991 -0.0000
vn 0.0401 0.9991 -0.0130
vn 0.0341 0.9991 -0.0248
vn 0.0248 0.9991 -0.0341
vn 0.0130 0.9991 -0.0401
vn 0.0000 0.9991 -0.0421
vn -0.0130 0.9991 -0.0401
vn -0.0248 0.9991 -0.0341
vn -0.0341 0.9991 -0.0248
vn -0.0401 0.9991 -0.0130
vn -0.0421 0.9991 0.0000
vn -0.0401 0.9991 0.0130
vn -0.0341 0.9991 0.0248
vn -0.0248 0.9991 0.0341
vn -0.0130 0.9991 0.0401
vn 0.0000 0.9991 0.0421
vn 0.0130 0.9991 0.0401
vn 0.0248 0.9991 0.0341
vn 0.0341 0.9991 0.0248
vn 0.0401 0.9991 0.0130
vn -0.0688 0.9976 0.0000
vn -0.0654 0.9976 0.0212
vn -0.0556 0.9976 0.0404
vn -0.0404 0.9976 0.0556
vn -0.0212 0.9976 0.0654
vn 0.0000 0.9976 0.0688
vn 0.0212 0.9976 0.0654
vn 0.0404 0.9976 0.0556
vn 0.0556 0.9976 0.0404
vn 0.0654 0.9976 0.0212
vn 0.0688 0.9976 -0.0000
vn 0.0654 0.9976 -0.0212
vn 0.0556 0.9976 -0.0404
vn 0.0404 0.9976 -0.0556
vn 0.0212 0.9976 -0.0654
vn -0.0000 0.9976 -0.0688
vn -0.0212 0.9976 -0.0654
vn -0.0404 0.9976 -0.0556
vn -0.0556 0.9976 -0.0404
vn -0.0654 0.9976 -0.0212
vn 0.0728 0.9971 0.0237
vn 0.0766 0.9971 -0.0000
vn 0.0728 0.9971 -0.0237
vn 0.0619 0.9971 -0.0450
vn 0.0450 0.9971 -0.0619
vn 0.0237 0.9971 -0.0728
vn -0.0000 0.9971 -0.0766
vn -0.0237 0.9971 -0.0728
vn -0.0450 0.9971 -0.0619
vn -0.0619 0.9971 -0.0450
vn -0.0728 0.9971 -0.0237
vn -0.0766 0.9971 0.0000
vn -0.0728 0.9971 0.0237
vn -0.0619 0.9971 0.0450
vn -0.0450 0.9971 0.0619
vn -0.0237 0.9971 0.0728
vn 0.0000 0.9971 0.0766
vn 0.0237 0.9971 0.0728
vn 0.0450 0.9971 0.0619
vn 0.0619 0.9971 0.0450
vn 0.9877 0.0000 -0.1564
vn 0.8910 0.0000 -0.4540
vn 0.7071 0.0000 -0.7071
vn 0.4540 0.0000 -0.8910
vn 0.1564 0.0000 -0.9877
vn -0.1564 0.0000 -0.9877
vn -0.1564 -0.0000 -0.9877
vn -0.4540 0.0000 -0.8910
vn -0.7071 0.0000 -0.7071
vn -0.8910 0.0000 -0.4540
vn -0.9877 0.0000 -0.1564
vn -0.9877 0.0000 0.1564
vn -0.9877 -0.0000 0.1564
vn -0.8910 0.0000 0.4540
vn -0.7071 0.0000 0.7071
vn -0.4540 0.0000 0.8910
vn -0.1564 -0.0000 0.9877
vn -0.1564 0.0000 0.9877
vn 0.1564 0.0000 0.9877
vn 0.4540 0.0000 0.8910
vn 0.7071 0.0000 0.7071
vn 0.8910 0.0000 0.4540
vn 0.9877 -0.0000 0.1564
vn 0.9877 0.0000 0.1564
# 105 vertex normals

vt 0.2748 0.0000 -0.1584
vt 0.1623 0.0000 -0.4596
vt 0.0827 0.0000 -0.7159
vt 0.0441 0.0000 -0.9021
vt 0.0500 0.0000 -1.0000
vt 0.1000 0.0000 -1.0000
vt 0.1892 0.0000 -0.9021
vt 0.3087 0.0000 -0.7159
vt 0.4470 0.0000 -0.4596
vt 0.5905 0.0000 -0.1584
vt 0.7252 0.0000 0.1584
vt 0.8377 0.0000 0.4596
vt 0.9173 0.0000 0.7159
vt 0.9560 0.0000 0.9021
vt 0.9500 0.0000 1.0000
vt 0.9000 0.0000 1.0000
vt 0.8500 0.0000 1.0000
vt 0.8000 0.0000 1.0000
vt 0.7500 0.0000 1.0000
vt 0.4095 0.0000 0.1584
vt 0.0000 0.0000 1.0000
vt -0.0500 0.0000 1.0000
vt 0.0500 0.0000 1.0000
vt 0.1000 0.0000 1.0000
vt 0.1500 0.0000 1.0000
vt 0.2000 0.0000 1.0000
vt 0.2500 0.0000 1.0000
vt 0.3000 0.0000 1.0000
vt 0.3500 0.0000 1.0000
vt 0.4000 0.0000 1.0000
vt 0.4500 0.0000 1.0000
vt 0.5000 0.0000 1.0000
vt 0.5500 0.0000 1.0000
vt 0.6000 0.0000 1.0000
vt 0.6500 0.0000 1.0000
vt 0.7000 0.0000 1.0000
vt -0.8506 1.0000 -3.9422
vt 0.8000 1.0000 1.0000
vt 0.8500 1.0000 1.0000
vt 0.9000 1.0000 1.0000
vt 0.7412 1.0000 0.5824
vt 0.5751 1.0000 0.1486
vt 0.5687 1.0000 0.1179
vt 0.5556 1.0000 0.0757
vt 0.5371 1.0000 0.0261
vt 0.5149 1.0000 -0.0261
vt 0.4913 1.0000 -0.0757
vt 0.4685 1.0000 -0.1179
vt 0.4488 1.0000 -0.1486
vt 0.4341 1.0000 -0.1647
vt 0.4259 1.0000 -0.1647
vt 0.4249 1.0000 -0.1486
vt 0.4313 1.0000 -0.1179
vt 0.4444 1.0000 -0.0757
vt -1.0541 1.0000 -4.5506
vt -2.5012 1.0000 -8.8843
vt 0.7500 1.0000 1.0000
vt 0.9500 1.0000 1.0000
vt 0.0000 1.0000 1.0000
vt -0.0500 1.0000 1.0000
vt 0.0500 1.0000 1.0000
vt 0.1000 1.0000 1.0000
vt 0.1500 1.0000 1.0000
vt 0.2000 1.0000 1.0000
vt 0.2500 1.0000 1.0000
vt 0.3000 1.0000 1.0000
vt 0.3500 1.0000 1.0000
vt 0.4000 1.0000 1.0000
vt 0.4500 1.0000 1.0000
vt 0.5000 1.0000 1.0000
vt 0.5500 1.0000 1.0000
vt 0.6000 1.0000 1.0000
vt 0.6500 1.0000 1.0000
vt 0.7000 1.0000 1.0000
vt 0.9560 1.0000 0.9021
vt 0.9173 1.0000 0.7159
vt 0.8377 1.0000 0.4596
vt 0.7252 1.0000 0.1584
vt 0.5905 1.0000 -0.1584
vt 0.4470 1.0000 -0.4596
vt 0.3087 1.0000 -0.7159
vt 0.1892 1.0000 -0.9021
vt 0.1000 1.0000 -1.0000
vt 0.0500 1.0000 -1.0000
vt 0.0440 1.0000 -0.9021
vt 0.0827 1.0000 -0.7159
vt 0.1623 1.0000 -0.4596
vt 0.2748 1.0000 -0.1584
# 88 texture coords

o Cylinder001
g Cylinder001
s 1
f 1/1/1 2/2/1 3/3/1 
f 3/3/1 4/4/1 5/5/1 
f 5/5/1 6/6/1 7/7/1 
f 3/3/1 5/5/1 7/7/1 
f 7/7/1 8/8/1 9/9/1 
f 9/9/1 10/10/1 11/11/1 
f 7/7/1 9/9/1 11/11/1 
f 11/11/1 12/12/1 13/13/1 
f 13/13/1 14/14/1 15/15/1 
f 11/11/1 13/13/1 15/15/1 
f 15/15/1 16/16/1 17/17/1 
f 17/17/1 18/18/1 19/19/1 
f 15/15/1 17/17/1 19/19/1 
f 11/11/1 15/15/1 19/19/1 
f 7/7/1 11/11/1 19/19/1 
f 3/3/1 7/7/1 19/19/1 
f 1/1/1 3/3/1 19/19/1 
f 20/20/1 1/1/1 19/19/1 
s 2
f 18/18/2 18/18/2 19/19/3 
f 19/19/3 19/19/3 18/18/2 
f 17/17/4 17/17/4 18/18/2 
f 18/18/2 18/18/2 17/17/4 
f 16/16/5 16/16/5 17/17/4 
f 17/17/4 17/17/4 16/16/5 
f 15/15/6 15/15/6 16/16/5 
f 16/16/5 16/16/5 15/15/6 
f 14/21/7 14/21/7 15/22/6 
f 15/22/6 15/22/6 14/21/7 
f 13/23/8 13/23/8 14/21/7 
f 14/21/7 14/21/7 13/23/8 
f 12/24/9 12/24/9 13/23/8 
f 13/23/8 13/23/8 12/24/9 
f 11/25/10 11/25/10 12/24/9 
f 12/24/9 12/24/9 11/25/10 
f 10/26/11 10/26/11 11/25/10 
f 11/25/10 11/25/10 10/26/11 
f 9/27/12 9/27/12 10/26/11 
f 10/26/11 10/26/11 9/27/12 
f 8/28/13 8/28/13 9/27/12 
f 9/27/12 9/27/12 8/28/13 
f 7/29/14 7/29/14 8/28/13 
f 8/28/13 8/28/13 7/29/14 
f 6/30/15 6/30/15 7/29/14 
f 7/29/14 7/29/14 6/30/15 
f 5/31/16 5/31/16 6/30/15 
f 6/30/15 6/30/15 5/31/16 
f 4/32/17 4/32/17 5/31/16 
f 5/31/16 5/31/16 4/32/17 
f 3/33/18 3/33/18 4/32/17 
f 4/32/17 4/32/17 3/33/18 
f 2/34/19 2/34/19 3/33/18 
f 3/33/18 3/33/18 2/34/19 
f 1/35/20 1/35/20 2/34/19 
f 2/34/19 2/34/19 1/35/20 
f 20/36/21 20/36/21 1/35/20 
f 1/35/20 1/35/20 20/36/21 
f 19/19/3 19/19/3 20/36/21 
f 20/36/21 20/36/21 19/19/3 
s 1
f 21/37/22 22/38/23 23/39/24 
f 23/39/24 24/40/25 25/41/26 
f 25/41/26 26/42/27 27/43/28 
f 23/39/24 25/41/26 27/43/28 
f 27/43/28 28/44/29 29/45/30 
f 29/45/30 30/46/31 31/47/32 
f 27/43/28 29/45/30 31/47/32 
f 31/47/32 32/48/33 33/49/34 
f 33/49/34 34/50/35 35/51/36 
f 31/47/32 33/49/34 35/51/36 
f 35/51/36 36/52/37 37/53/38 
f 37/53/38 38/54/39 39/55/40 
f 35/51/36 37/53/38 39/55/40 
f 31/47/32 35/51/36 39/55/40 
f 27/43/28 31/47/32 39/55/40 
f 23/39/24 27/43/28 39/55/40 
f 21/37/22 23/39/24 39/55/40 
f 40/56/41 21/37/22 39/55/40 
f 41/19/42 42/18/43 43/38/43 
f 43/38/43 44/57/42 41/19/42 
f 42/18/43 45/17/44 46/39/44 
f 46/39/44 43/38/43 42/18/43 
f 45/17/44 47/16/45 48/40/45 
f 48/40/45 46/39/44 45/17/44 
f 47/16/45 49/15/46 50/58/46 
f 50/58/46 48/40/45 47/16/45 
f 49/22/46 51/21/47 52/59/47 
f 52/59/47 50/60/46 49/22/46 
f 51/21/47 53/23/48 54/61/48 
f 54/61/48 52/59/47 51/21/47 
f 53/23/48 55/24/49 56/62/49 
f 56/62/49 54/61/48 53/23/48 
f 55/24/49 57/25/50 58/63/50 
f 58/63/50 56/62/49 55/24/49 
f 57/25/50 59/26/51 60/64/51 
f 60/64/51 58/63/50 57/25/50 
f 59/26/51 61/27/52 62/65/52 
f 62/65/52 60/64/51 59/26/51 
f 61/27/52 63/28/53 64/66/53 
f 64/66/53 62/65/52 61/27/52 
f 63/28/53 65/29/54 66/67/54 
f 66/67/54 64/66/53 63/28/53 
f 65/29/54 67/30/55 68/68/55 
f 68/68/55 66/67/54 65/29/54 
f 67/30/55 69/31/56 70/69/56 
f 70/69/56 68/68/55 67/30/55 
f 69/31/56 71/32/57 72/70/57 
f 72/70/57 70/69/56 69/31/56 
f 71/32/57 73/33/58 74/71/58 
f 74/71/58 72/70/57 71/32/57 
f 73/33/58 75/34/59 76/72/59 
f 76/72/59 74/71/58 73/33/58 
f 75/34/59 77/35/60 78/73/60 
f 78/73/60 76/72/59 75/34/59 
f 77/35/60 79/36/61 80/74/61 
f 80/74/61 78/73/60 77/35/60 
f 79/36/61 41/19/42 44/57/42 
f 44/57/42 80/74/61 79/36/61 
f 21/37/22 40/56/41 81/74/62 
f 81/74/62 82/57/63 21/37/22 
f 22/38/23 21/37/22 82/57/63 
f 82/57/63 83/38/64 22/38/23 
f 23/39/24 22/38/23 83/38/64 
f 83/38/64 84/39/65 23/39/24 
f 24/40/25 23/39/24 84/39/65 
f 84/39/65 85/40/66 24/40/25 
f 25/41/26 24/40/25 85/40/66 
f 85/40/66 86/58/67 25/41/26 
f 26/42/27 25/41/26 86/58/67 
f 86/58/67 87/75/68 26/42/27 
f 27/43/28 26/42/27 87/75/68 
f 87/75/68 88/76/69 27/43/28 
f 28/44/29 27/43/28 88/76/69 
f 88/76/69 89/77/70 28/44/29 
f 29/45/30 28/44/29 89/77/70 
f 89/77/70 90/78/71 29/45/30 
f 30/46/31 29/45/30 90/78/71 
f 90/78/71 91/79/72 30/46/31 
f 31/47/32 30/46/31 91/79/72 
f 91/79/72 92/80/73 31/47/32 
f 32/48/33 31/47/32 92/80/73 
f 92/80/73 93/81/74 32/48/33 
f 33/49/34 32/48/33 93/81/74 
f 93/81/74 94/82/75 33/49/34 
f 34/50/35 33/49/34 94/82/75 
f 94/82/75 95/83/76 34/50/35 
f 35/51/36 34/50/35 95/83/76 
f 95/83/76 96/84/77 35/51/36 
f 36/52/37 35/51/36 96/84/77 
f 96/84/77 97/85/78 36/52/37 
f 37/53/38 36/52/37 97/85/78 
f 97/85/78 98/86/79 37/53/38 
f 38/54/39 37/53/38 98/86/79 
f 98/86/79 99/87/80 38/54/39 
f 39/55/40 38/54/39 99/87/80 
f 99/87/80 100/88/81 39/55/40 
f 40/56/41 39/55/40 100/88/81 
f 100/88/81 81/74/62 40/56/41 
s off
f 19/19/82 18/18/82 42/18/82 
f 42/18/82 41/19/82 19/19/82 
f 18/18/83 17/17/83 45/17/83 
f 45/17/83 42/18/83 18/18/83 
f 17/17/84 16/16/84 47/16/84 
f 47/16/84 45/17/84 17/17/84 
f 16/16/85 15/15/85 49/15/85 
f 49/15/85 47/16/85 16/16/85 
f 15/22/86 14/21/86 51/21/86 
f 51/21/86 49/22/86 15/22/86 
f 14/21/87 13/23/87 53/23/87 
f 53/23/88 51/21/88 14/21/88 
f 13/23/89 12/24/89 55/24/89 
f 55/24/89 53/23/89 13/23/89 
f 12/24/90 11/25/90 57/25/90 
f 57/25/90 55/24/90 12/24/90 
f 11/25/91 10/26/91 59/26/91 
f 59/26/91 57/25/91 11/25/91 
f 10/26/92 9/27/92 61/27/92 
f 61/27/92 59/26/92 10/26/92 
f 9/27/93 8/28/93 63/28/93 
f 63/28/94 61/27/94 9/27/94 
f 8/28/95 7/29/95 65/29/95 
f 65/29/95 63/28/95 8/28/95 
f 7/29/96 6/30/96 67/30/96 
f 67/30/96 65/29/96 7/29/96 
f 6/30/97 5/31/97 69/31/97 
f 69/31/97 67/30/97 6/30/97 
f 5/31/98 4/32/98 71/32/98 
f 71/32/99 69/31/99 5/31/99 
f 4/32/100 3/33/100 73/33/100 
f 73/33/100 71/32/100 4/32/100 
f 3/33/101 2/34/101 75/34/101 
f 75/34/101 73/33/101 3/33/101 
f 2/34/102 1/35/102 77/35/102 
f 77/35/102 75/34/102 2/34/102 
f 1/35/103 20/36/103 79/36/103 
f 79/36/103 77/35/103 1/35/103 
f 20/36/104 19/19/104 41/19/104 
f 41/19/105 79/36/105 20/36/105 
f 83/38/94 82/57/94 44/57/94 
f 44/57/93 43/38/93 83/38/93 
f 82/57/92 81/74/92 80/74/92 
f 80/74/92 44/57/92 82/57/92 
f 81/74/91 100/73/91 78/73/91 
f 78/73/91 80/74/91 81/74/91 
f 100/73/90 99/72/90 76/72/90 
f 76/72/90 78/73/90 100/73/90 
f 99/72/89 98/71/89 74/71/89 
f 74/71/89 76/72/89 99/72/89 
f 98/71/88 97/70/88 72/70/88 
f 72/70/87 74/71/87 98/71/87 
f 97/70/86 96/69/86 70/69/86 
f 70/69/86 72/70/86 97/70/86 
f 96/69/85 95/68/85 68/68/85 
f 68/68/85 70/69/85 96/69/85 
f 95/68/84 94/67/84 66/67/84 
f 66/67/84 68/68/84 95/68/84 
f 94/67/83 93/66/83 64/66/83 
f 64/66/83 66/67/83 94/67/83 
f 93/66/82 92/65/82 62/65/82 
f 62/65/82 64/66/82 93/66/82 
f 92/65/105 91/64/105 60/64/105 
f 60/64/104 62/65/104 92/65/104 
f 91/64/103 90/63/103 58/63/103 
f 58/63/103 60/64/103 91/64/103 
f 90/63/102 89/62/102 56/62/102 
f 56/62/102 58/63/102 90/63/102 
f 89/62/101 88/61/101 54/61/101 
f 54/61/101 56/62/101 89/62/101 
f 88/61/100 87/59/100 52/59/100 
f 52/59/100 54/61/100 88/61/100 
f 87/59/99 86/60/99 50/60/99 
f 50/60/98 52/59/98 87/59/98 
f 86/58/97 85/40/97 48/40/97 
f 48/40/97 50/58/97 86/58/97 
f 85/40/96 84/39/96 46/39/96 
f 46/39/96 48/40/96 85/40/96 
f 84/39/95 83/38/95 43/38/95 
f 43/38/95 46/39/95 84/39/95 
# 236 faces

