# UnrealEd OBJ exporter (_Internal)



v 1135.997681 80.000000 -1683.998901

v 1135.997925 80.000000 -1183.998901

v 635.997681 80.000000 -1683.998657

v 635.997925 80.000000 -1183.998657

v 635.997681 180.000000 -1683.998657

v 635.997925 180.000000 -1183.998657

v 1135.997925 180.000000 -1183.998901

v 1135.997681 180.000000 -1683.998901

v 1135.997681 180.000000 -1683.998901

v 1135.997925 180.000000 -1183.998901

v 1135.997925 80.000000 -1183.998901

v 1135.997681 80.000000 -1683.998901

v 635.997681 180.000000 -1683.998657

v 1135.997681 180.000000 -1683.998901

v 1135.997681 80.000000 -1683.998901

v 635.997681 80.000000 -1683.998657

v 635.997925 180.000000 -1183.998657

v 635.997681 180.000000 -1683.998657

v 635.997681 80.000000 -1683.998657

v 635.997925 80.000000 -1183.998657

v 1135.997925 180.000000 -1183.998901

v 635.997925 180.000000 -1183.998657

v 635.997925 80.000000 -1183.998657

v 1135.997925 80.000000 -1183.998901

v 1239.551147 85.000000 -1433.999146

v 885.998169 85.000000 -1080.445435

v 885.997437 85.000000 -1787.552124

v 532.444458 85.000000 -1433.998413

v 885.997437 185.000000 -1787.552124

v 532.444458 185.000000 -1433.998413

v 885.998169 185.000000 -1080.445435

v 1239.551147 185.000000 -1433.999146

v 1239.551147 185.000000 -1433.999146

v 885.998169 185.000000 -1080.445435

v 885.998169 85.000000 -1080.445435

v 1239.551147 85.000000 -1433.999146

v 885.997437 185.000000 -1787.552124

v 1239.551147 185.000000 -1433.999146

v 1239.551147 85.000000 -1433.999146

v 885.997437 85.000000 -1787.552124

v 532.444458 185.000000 -1433.998413

v 885.997437 185.000000 -1787.552124

v 885.997437 85.000000 -1787.552124

v 532.444458 85.000000 -1433.998413

v 885.998169 185.000000 -1080.445435

v 532.444458 185.000000 -1433.998413

v 532.444458 85.000000 -1433.998413

v 885.998169 85.000000 -1080.445435



vt 0.675293 0.015625

vt 0.989746 0.015625

vt 0.675293 0.330078

vt 0.989746 0.330078

vt 0.329834 0.330078

vt 0.015373 0.330078

vt 0.015373 0.015625

vt 0.329834 0.015625

vt 0.329834 0.660156

vt 0.015373 0.660156

vt 0.015373 0.345703

vt 0.329834 0.345703

vt 0.659668 0.330078

vt 0.345215 0.330078

vt 0.345215 0.015625

vt 0.659668 0.015625

vt 0.329834 0.989983

vt 0.015373 0.989983

vt 0.015373 0.675537

vt 0.329834 0.675537

vt 0.659668 0.660156

vt 0.345215 0.660156

vt 0.345215 0.345703

vt 0.659668 0.345703

vt 0.675293 0.015625

vt 0.989746 0.015625

vt 0.675293 0.330078

vt 0.989746 0.330078

vt 0.329834 0.330078

vt 0.015373 0.330078

vt 0.015373 0.015625

vt 0.329834 0.015625

vt 0.329834 0.660156

vt 0.015373 0.660156

vt 0.015373 0.345703

vt 0.329834 0.345703

vt 0.659668 0.330078

vt 0.345215 0.330078

vt 0.345215 0.015625

vt 0.659668 0.015625

vt 0.329834 0.989983

vt 0.015373 0.989983

vt 0.015373 0.675537

vt 0.329834 0.675537

vt 0.659668 0.660156

vt 0.345215 0.660156

vt 0.345215 0.345703

vt 0.659668 0.345703



vn 0.000000 -1.000000 0.000000

vn 0.000000 -1.000000 0.000000

vn 0.000000 -1.000000 0.000000

vn 0.000000 -1.000000 0.000000

vn 0.000000 1.000000 0.000000

vn 0.000000 1.000000 0.000000

vn 0.000000 1.000000 0.000000

vn 0.000000 1.000000 0.000000

vn 1.000000 0.000000 0.000000

vn 1.000000 0.000000 0.000000

vn 1.000000 0.000000 0.000000

vn 1.000000 0.000000 0.000000

vn 0.000000 0.000000 -1.000000

vn 0.000000 0.000000 -1.000000

vn 0.000000 0.000000 -1.000000

vn 0.000000 0.000000 -1.000000

vn -1.000000 0.000000 0.000000

vn -1.000000 0.000000 0.000000

vn -1.000000 0.000000 0.000000

vn -1.000000 0.000000 0.000000

vn 0.000000 0.000000 1.000000

vn 0.000000 0.000000 1.000000

vn 0.000000 0.000000 1.000000

vn 0.000000 0.000000 1.000000

vn 0.000000 -1.000000 0.000000

vn 0.000000 -1.000000 0.000000

vn 0.000000 -1.000000 0.000000

vn 0.000000 -1.000000 0.000000

vn 0.000000 1.000000 0.000000

vn 0.000000 1.000000 0.000000

vn 0.000000 1.000000 0.000000

vn 0.000000 1.000000 0.000000

vn 0.708661 0.000000 0.708661

vn 0.708661 0.000000 0.708661

vn 0.708661 0.000000 0.708661

vn 0.708661 0.000000 0.708661

vn 0.708661 0.000000 -0.708661

vn 0.708661 0.000000 -0.708661

vn 0.708661 0.000000 -0.708661

vn 0.708661 0.000000 -0.708661

vn -0.708661 0.000000 -0.708661

vn -0.708661 0.000000 -0.708661

vn -0.708661 0.000000 -0.708661

vn -0.708661 0.000000 -0.708661

vn -0.708661 0.000000 0.708661

vn -0.708661 0.000000 0.708661

vn -0.708661 0.000000 0.708661

vn -0.708661 0.000000 0.708661

f 1/1/1 2/2/2 3/3/3

f 2/2/2 4/4/4 3/3/3

f 5/5/5 6/6/6 7/7/7

f 5/5/5 7/7/7 8/8/8

f 9/9/9 10/10/10 11/11/11

f 9/9/9 11/11/11 12/12/12

f 13/13/13 14/14/14 15/15/15

f 13/13/13 15/15/15 16/16/16

f 17/17/17 18/18/18 19/19/19

f 17/17/17 19/19/19 20/20/20

f 21/21/21 22/22/22 23/23/23

f 21/21/21 23/23/23 24/24/24

f 25/25/25 26/26/26 27/27/27

f 26/26/26 28/28/28 27/27/27

f 29/29/29 30/30/30 31/31/31

f 29/29/29 31/31/31 32/32/32

f 33/33/33 34/34/34 35/35/35

f 33/33/33 35/35/35 36/36/36

f 37/37/37 38/38/38 39/39/39

f 37/37/37 39/39/39 40/40/40

f 41/41/41 42/42/42 43/43/43

f 41/41/41 43/43/43 44/44/44

f 45/45/45 46/46/46 47/47/47

f 45/45/45 47/47/47 48/48/48

