# 3ds Max Wavefront OBJ Exporter v0.99 - (c)2007 guruware
# File Created: 18.06.2022 21:37:28

mtllib tab.mtl

#
# object Box001
#

v  4.5909 58.7561 15.5591
v  4.5909 58.7561 -15.0059
v  -4.5909 58.7561 -15.0059
v  -4.5909 58.7561 15.5591
v  4.5909 -26.4255 30.1601
v  4.5909 38.1266 30.1601
v  -4.5909 38.1266 30.1601
v  2.2954 -26.4255 30.1601
v  0.0000 -26.4255 30.1601
v  -2.2954 -26.4255 30.1601
v  -4.5909 -26.4255 30.1601
v  4.5909 -26.4255 -29.6069
v  4.5909 38.1266 -29.6069
v  4.5909 49.0774 -25.9567
v  4.5909 49.0774 26.5099
v  4.5909 -26.4255 -13.2393
v  4.5909 -26.4255 -0.0000
v  4.5909 -26.4255 13.2393
v  -4.5909 -26.4255 -29.6069
v  -4.5909 38.1266 -29.6069
v  -2.2954 -26.4255 -29.6069
v  0.0000 -26.4255 -29.6069
v  2.2954 -26.4255 -29.6069
v  -4.5909 49.0774 26.5099
v  -4.5909 49.0774 -25.9567
v  -4.5909 -26.4255 13.2393
v  -4.5909 -26.4255 -0.0000
v  -4.5909 -26.4255 -13.2393
v  -2.2954 -26.4255 -13.1352
v  -4.3248 -26.4255 -12.2297
v  0.0000 -26.4255 -4.5300
v  0.0000 -116.1233 -0.0000
v  -2.2954 -116.1233 -0.0000
v  -1.7216 -116.1233 -3.3975
v  0.0000 -116.1233 -4.5300
v  -2.2954 -26.4255 -0.0000
v  4.3248 -26.4255 -12.2297
v  2.2954 -26.4255 -13.1352
v  2.2954 -26.4255 -0.0000
v  1.7216 -116.1233 -3.3975
v  2.2954 -116.1233 -0.0000
v  2.2954 -26.4255 13.1179
v  4.3216 -26.4255 12.2154
v  0.0000 -26.4255 4.5127
v  1.7216 -116.1233 3.3846
v  0.0000 -116.1233 4.5127
v  -4.3216 -26.4255 12.2154
v  -2.2954 -26.4255 13.1179
v  -1.7216 -116.1233 3.3846
v  -1.7216 -26.4255 -3.3975
v  1.7216 -26.4255 -3.3975
v  1.7216 -26.4255 3.3846
v  -1.7216 -26.4255 3.3846
# 53 vertices

vn 0.0000 1.0000 -0.0000
vn 0.0000 0.0000 1.0000
vn 0.0000 0.1602 0.9871
vn 1.0000 0.0000 -0.0000
vn 0.0000 0.0000 -1.0000
vn 0.0000 0.1602 -0.9871
vn -1.0000 0.0000 -0.0000
vn 0.0000 0.7493 0.6622
vn 0.0000 0.7493 -0.6622
vn 0.0000 0.3162 0.9487
vn 0.0000 0.3162 -0.9487
vn -0.0000 -1.0000 0.0000
vn 0.0000 -1.0000 0.0000
vn 0.0000 -1.0000 -0.0000
vn -0.0000 -1.0000 -0.0000
vn -0.3282 0.0000 -0.9446
vn 0.3282 0.0000 -0.9446
vn 0.9525 0.0000 -0.3046
vn 0.9521 0.0000 0.3057
vn 0.3271 0.0000 0.9450
vn -0.3271 0.0000 0.9450
vn -0.9521 0.0000 0.3057
vn -0.9525 0.0000 -0.3046
# 23 vertex normals

vt 0.8154 0.7097 0.0000
vt 0.8154 0.9162 0.0000
vt 0.6979 0.9162 0.0000
vt 0.6979 0.7097 0.0000
vt 0.7424 0.5150 0.0000
vt 0.7424 0.0789 0.0000
vt 0.8598 0.0789 0.0000
vt 0.7717 0.5150 0.0000
vt 0.8011 0.5150 0.0000
vt 0.8304 0.5150 0.0000
vt 0.8598 0.5150 0.0000
vt 0.0360 0.1871 0.0000
vt 0.4721 0.1871 0.0000
vt 0.5461 0.2117 0.0000
vt 0.6114 0.2857 0.0000
vt 0.6114 0.4922 0.0000
vt 0.5461 0.5661 0.0000
vt 0.4721 0.5908 0.0000
vt 0.0360 0.2976 0.0000
vt 0.0360 0.3871 0.0000
vt 0.0360 0.4765 0.0000
vt 0.0360 0.5908 0.0000
vt 0.9886 0.0049 0.0000
vt 0.9886 0.4410 0.0000
vt 0.8712 0.4410 0.0000
vt 0.9593 0.0049 0.0000
vt 0.9299 0.0049 0.0000
vt 0.9006 0.0049 0.0000
vt 0.8712 0.0049 0.0000
vt 0.5759 0.9995 0.0000
vt 0.1399 0.9995 0.0000
vt 0.0659 0.9748 0.0000
vt 0.0005 0.9009 0.0000
vt 0.0005 0.6944 0.0000
vt 0.0659 0.6204 0.0000
vt 0.1399 0.5958 0.0000
vt 0.5759 0.8852 0.0000
vt 0.5759 0.7958 0.0000
vt 0.5759 0.7063 0.0000
vt 0.5759 0.5958 0.0000
vt 0.6979 0.6358 0.0000
vt 0.8154 0.6358 0.0000
vt 0.8154 0.9902 0.0000
vt 0.6979 0.9902 0.0000
vt 0.7424 0.0049 0.0000
vt 0.8598 0.0049 0.0000
vt 0.9886 0.5150 0.0000
vt 0.8712 0.5150 0.0000
vt 0.5780 0.5869 0.0000
vt 0.6074 0.5869 0.0000
vt 0.6074 0.6982 0.0000
vt 0.5814 0.7043 0.0000
vt 0.5780 0.6975 0.0000
vt 0.6367 0.5869 0.0000
vt 0.6367 0.7563 0.0000
vt 0.6367 0.7869 0.0000
vt 0.6074 0.7869 0.0000
vt 0.6147 0.7639 0.0000
vt 0.5780 0.7869 0.0000
vt 0.6954 0.6975 0.0000
vt 0.6920 0.7043 0.0000
vt 0.6661 0.6982 0.0000
vt 0.6954 0.5869 0.0000
vt 0.6661 0.5869 0.0000
vt 0.6954 0.7869 0.0000
vt 0.6661 0.7869 0.0000
vt 0.6587 0.7639 0.0000
vt 0.6954 0.9906 0.0000
vt 0.6661 0.9906 0.0000
vt 0.6661 0.8755 0.0000
vt 0.6920 0.8694 0.0000
vt 0.6954 0.8763 0.0000
vt 0.6367 0.9906 0.0000
vt 0.6367 0.8174 0.0000
vt 0.6587 0.8097 0.0000
vt 0.5780 0.8763 0.0000
vt 0.5814 0.8694 0.0000
vt 0.6074 0.8755 0.0000
vt 0.5780 0.9906 0.0000
vt 0.6074 0.9906 0.0000
vt 0.6147 0.8097 0.0000
vt 0.0360 0.1071 0.0000
vt 0.6420 0.1071 0.0000
vt 0.6420 0.1291 0.0000
vt 0.0360 0.1291 0.0000
vt 0.6420 0.0771 0.0000
vt 0.0360 0.0771 0.0000
vt 0.0360 0.0538 0.0000
vt 0.6420 0.0538 0.0000
vt 0.0360 0.1338 0.0000
vt 0.6420 0.1338 0.0000
vt 0.6420 0.1567 0.0000
vt 0.0360 0.1567 0.0000
vt 0.6420 0.0512 0.0000
vt 0.0360 0.0512 0.0000
vt 0.0360 0.0272 0.0000
vt 0.6420 0.0272 0.0000
vt 0.6420 0.1025 0.0000
vt 0.0360 0.1025 0.0000
vt 0.0360 0.0805 0.0000
vt 0.6420 0.0805 0.0000
vt 0.6331 0.0238 0.0000
vt 0.0272 0.0238 0.0000
vt 0.0272 0.0005 0.0000
vt 0.6331 0.0005 0.0000
vt 0.0360 0.1604 0.0000
vt 0.6420 0.1604 0.0000
vt 0.6420 0.1844 0.0000
vt 0.0360 0.1844 0.0000
vt 0.0235 0.0049 0.0000
vt 0.0235 0.6109 0.0000
vt 0.0005 0.6109 0.0000
vt 0.0005 0.0049 0.0000
# 113 texture coords

o Box001
g Box001
usemtl wire_006135058
s 1
f 1/1/1 2/2/1 3/3/1 
f 3/3/1 4/4/1 1/1/1 
f 5/5/2 6/6/3 7/7/3 
f 8/8/2 5/5/2 7/7/3 
f 9/9/2 8/8/2 7/7/3 
f 10/10/2 9/9/2 7/7/3 
f 11/11/2 10/10/2 7/7/3 
s 2
f 12/12/4 13/13/4 14/14/4 
f 14/14/4 2/15/4 1/16/4 
f 1/16/4 15/17/4 6/18/4 
f 14/14/4 1/16/4 6/18/4 
f 12/12/4 14/14/4 6/18/4 
f 16/19/4 12/12/4 6/18/4 
f 17/20/4 16/19/4 6/18/4 
f 18/21/4 17/20/4 6/18/4 
f 5/22/4 18/21/4 6/18/4 
s 1
f 19/23/5 20/24/6 13/25/6 
f 21/26/5 19/23/5 13/25/6 
f 22/27/5 21/26/5 13/25/6 
f 23/28/5 22/27/5 13/25/6 
f 12/29/5 23/28/5 13/25/6 
s 2
f 11/30/7 7/31/7 24/32/7 
f 24/32/7 4/33/7 3/34/7 
f 3/34/7 25/35/7 20/36/7 
f 24/32/7 3/34/7 20/36/7 
f 11/30/7 24/32/7 20/36/7 
f 26/37/7 11/30/7 20/36/7 
f 27/38/7 26/37/7 20/36/7 
f 28/39/7 27/38/7 20/36/7 
f 19/40/7 28/39/7 20/36/7 
s 4
f 1/1/8 4/4/8 24/41/8 
f 24/41/8 15/42/8 1/1/8 
f 3/3/9 2/2/9 14/43/9 
f 14/43/9 25/44/9 3/3/9 
s 1
f 7/7/3 6/6/3 15/45/10 
f 15/45/10 24/46/10 7/7/3 
f 13/25/6 20/24/6 25/47/11 
f 25/47/11 14/48/11 13/25/6 
s 4
f 19/49/12 21/50/13 29/51/12 
f 19/49/12 29/51/12 30/52/12 
f 28/53/12 19/49/12 30/52/12 
f 22/54/13 31/55/13 31/55/12 
f 22/54/13 31/55/12 29/51/12 
f 21/50/13 22/54/13 29/51/12 
f 32/56/14 33/57/14 33/57/14 
f 32/56/14 33/57/14 34/58/14 
f 35/55/14 32/56/14 34/58/14 
f 35/55/14 34/58/14 35/55/4 
f 27/59/14 28/53/12 30/52/12 
f 36/57/14 27/59/14 30/52/12 
f 36/57/14 30/52/12 36/57/14 
f 16/60/13 37/61/14 38/62/13 
f 12/63/13 16/60/13 38/62/13 
f 23/64/13 12/63/13 38/62/13 
f 17/65/14 39/66/14 39/66/14 
f 17/65/14 39/66/14 37/61/14 
f 16/60/13 17/65/14 37/61/14 
f 32/56/14 35/55/14 35/55/14 
f 32/56/14 35/55/14 40/67/14 
f 41/66/14 32/56/14 40/67/14 
f 41/66/14 40/67/14 41/66/4 
f 22/54/13 23/64/13 38/62/13 
f 31/55/13 22/54/13 38/62/13 
f 31/55/13 38/62/13 31/55/14 
f 5/68/14 8/69/14 42/70/14 
f 5/68/14 42/70/14 43/71/14 
f 18/72/14 5/68/14 43/71/14 
f 9/73/14 44/74/15 44/74/14 
f 9/73/14 44/74/14 42/70/14 
f 8/69/14 9/73/14 42/70/14 
f 32/56/14 41/66/14 41/66/14 
f 32/56/14 41/66/14 45/75/14 
f 46/74/14 32/56/14 45/75/14 
f 46/74/14 45/75/14 46/74/4 
f 17/65/14 18/72/14 43/71/14 
f 39/66/14 17/65/14 43/71/14 
f 39/66/14 43/71/14 39/66/14 
f 26/76/15 47/77/14 48/78/15 
f 11/79/15 26/76/15 48/78/15 
f 10/80/14 11/79/15 48/78/15 
f 27/59/14 36/57/14 36/57/14 
f 27/59/14 36/57/14 47/77/14 
f 26/76/15 27/59/14 47/77/14 
f 32/56/14 46/74/14 46/74/14 
f 32/56/14 46/74/14 49/81/14 
f 33/57/14 32/56/14 49/81/14 
f 33/57/14 49/81/14 33/57/4 
f 9/73/14 10/80/14 48/78/15 
f 44/74/15 9/73/14 48/78/15 
f 44/74/15 48/78/15 44/74/14 
f 35/55/14 35/55/4 31/55/12 
f 31/55/12 31/55/13 35/55/14 
f 35/55/14 35/55/14 31/55/13 
f 31/55/13 31/55/14 35/55/14 
f 41/66/14 41/66/4 39/66/14 
f 39/66/14 39/66/14 41/66/14 
f 41/66/14 41/66/14 39/66/14 
f 39/66/14 39/66/14 41/66/14 
f 46/74/14 46/74/4 44/74/14 
f 44/74/14 44/74/15 46/74/14 
f 46/74/14 46/74/14 44/74/15 
f 44/74/15 44/74/14 46/74/14 
f 33/57/14 33/57/4 36/57/14 
f 36/57/14 36/57/14 33/57/14 
f 33/57/14 33/57/14 36/57/14 
f 36/57/14 36/57/14 33/57/14 
f 29/51/12 50/58/14 30/52/12 
f 31/55/12 50/58/14 29/51/12 
f 30/52/12 50/58/14 36/57/14 
f 37/61/14 51/67/14 38/62/13 
f 39/66/14 51/67/14 37/61/14 
f 38/62/13 51/67/14 31/55/14 
f 42/70/14 52/75/14 43/71/14 
f 44/74/14 52/75/14 42/70/14 
f 43/71/14 52/75/14 39/66/14 
f 47/77/14 53/81/14 48/78/15 
f 36/57/14 53/81/14 47/77/14 
f 48/78/15 53/81/14 44/74/14 
s 1
f 31/82/16 35/83/16 34/84/16 
f 34/84/16 50/85/16 31/82/16 
f 35/86/17 31/87/17 51/88/17 
f 51/88/17 40/89/17 35/86/17 
s 2
f 39/90/18 41/91/18 40/92/18 
f 40/92/18 51/93/18 39/90/18 
s 1
f 41/94/19 39/95/19 52/96/19 
f 52/96/19 45/97/19 41/94/19 
s 2
f 44/98/20 46/99/20 45/100/20 
f 45/100/20 52/101/20 44/98/20 
s 1
f 46/102/21 44/103/21 53/104/21 
f 53/104/21 49/105/21 46/102/21 
s 2
f 36/106/22 33/107/22 49/108/22 
f 49/108/22 53/109/22 36/106/22 
f 33/110/23 36/111/23 50/112/23 
f 50/112/23 34/113/23 33/110/23 
# 134 faces

