# 3ds Max Wavefront OBJ Exporter v0.99 - (c)2007 guruware
# File Created: 28.05.2022 21:02:09

mtllib walk.mtl

#
# object default
#

v  510.0034 5.9168 1940.0051
v  510.0034 5.9168 1840.0051
v  510.0031 -6.5832 1840.0051
v  510.0034 -6.5832 1940.0051
v  2010.0032 -6.5834 1940.0005
v  2010.0029 -6.5834 1840.0005
v  2010.0029 5.9166 1840.0005
v  2010.0032 5.9166 1940.0005
v  409.9902 5.9166 -1809.9968
v  509.9901 5.9166 -1809.9963
v  509.9901 -6.5834 -1809.9968
v  409.9902 -6.5837 -1809.9971
v  410.0026 -6.5834 1940.0032
v  510.0026 -6.5834 1940.0029
v  510.0026 5.9166 1940.0029
v  410.0026 5.9166 1940.0032
v  1909.9979 5.9167 840.0007
v  2009.9979 5.9167 840.0004
v  2009.9979 -6.5832 840.0002
v  1909.9979 -6.5833 840.0006
v  1910.0032 -6.5834 1840.0007
v  2010.0032 -6.5834 1840.0002
v  2010.0032 5.9166 1840.0002
v  1910.0032 5.9166 1840.0007
v  3560.0005 5.9172 839.9943
v  3560.0010 5.9171 939.9944
v  3560.0010 -6.5828 939.9944
v  3560.0007 -6.5828 839.9943
v  2010.0011 -6.5834 840.0003
v  2010.0015 -6.5834 940.0004
v  2010.0015 5.9166 940.0004
v  2010.0011 5.9166 840.0003
v  3659.9946 5.9168 939.9967
v  3559.9946 5.9168 939.9962
v  3559.9946 -6.5832 939.9967
v  3659.9946 -6.5832 939.9969
v  3659.9971 -6.5834 -1810.0032
v  3559.9971 -6.5834 -1810.0033
v  3559.9971 5.9166 -1810.0033
v  3659.9971 5.9166 -1810.0032
v  3659.9973 5.9166 -1910.0052
v  3659.9963 5.9166 -1810.0052
v  3659.9968 -6.5834 -1810.0052
v  3659.9973 -6.5834 -1910.0052
v  409.9971 -6.5834 -1909.9983
v  409.9972 -6.5834 -1809.9983
v  409.9972 5.9166 -1809.9983
v  409.9971 5.9166 -1909.9983
v  1497.5059 5.9180 -1184.9990
v  1385.0059 5.9180 -1184.9990
v  1385.0059 -6.5820 -1184.9988
v  1497.5059 -6.5820 -1184.9990
v  1497.5045 -6.5820 -1809.9991
v  1385.0045 -6.5820 -1809.9989
v  1385.0045 5.9181 -1809.9989
v  1497.5045 5.9180 -1809.9991
v  1417.6165 8.9175 -1265.1667
v  1497.1658 8.9175 -1185.6171
v  1497.1658 -3.5825 -1185.6171
v  1417.6165 -3.5825 -1265.1667
v  1055.2239 -3.5826 -902.7751
v  1134.7732 -3.5826 -823.2255
v  1134.7732 8.9174 -823.2255
v  1055.2239 8.9174 -902.7751
v  1134.9984 5.9174 -936.2470
v  1134.9978 5.9175 -823.7470
v  1134.9979 -6.5825 -823.7470
v  1134.9985 -6.5825 -936.2470
v  509.9984 -6.5826 -936.2495
v  509.9979 -6.5826 -823.7495
v  509.9979 5.9174 -823.7495
v  509.9984 5.9174 -936.2495
v  885.0031 -6.5832 1840.0040
v  885.0033 -6.5833 1940.0039
v  1260.0031 -6.5833 1840.0028
v  1260.0032 -6.5832 1940.0029
v  1635.0031 -6.5833 1840.0017
v  1635.0032 -6.5833 1940.0017
v  885.0034 5.9168 1840.0040
v  1260.0033 5.9168 1840.0028
v  1635.0029 5.9166 1840.0017
v  1635.0032 5.9166 1940.0017
v  1260.0032 5.9167 1940.0029
v  885.0034 5.9168 1940.0039
v  509.9933 -6.5832 -872.4971
v  409.9934 -6.5834 -872.4971
v  509.9963 -6.5835 65.0031
v  409.9963 -6.5834 65.0029
v  509.9995 -6.5834 1002.5032
v  409.9995 -6.5835 1002.5031
v  509.9933 5.9166 -872.4963
v  509.9963 5.9166 65.0034
v  509.9995 5.9166 1002.5031
v  409.9995 5.9166 1002.5031
v  409.9963 5.9166 65.0032
v  409.9934 5.9166 -872.4971
v  2009.9993 -6.5834 1090.0002
v  1909.9993 -6.5834 1090.0007
v  2010.0005 -6.5834 1340.0002
v  1910.0006 -6.5834 1340.0006
v  2010.0018 -6.5834 1590.0002
v  1910.0018 -6.5834 1590.0007
v  2009.9993 5.9166 1090.0005
v  2010.0006 5.9166 1340.0004
v  2010.0018 5.9166 1590.0002
v  1910.0018 5.9166 1590.0007
v  1910.0006 5.9167 1340.0007
v  1909.9993 5.9166 1090.0007
v  3172.5010 -6.5829 939.9958
v  3172.5010 -6.5831 839.9958
v  2785.0012 -6.5831 939.9973
v  2785.0010 -6.5832 839.9973
v  2397.5012 -6.5833 939.9989
v  2397.5010 -6.5833 839.9988
v  3172.5010 5.9171 939.9958
v  2785.0010 5.9169 939.9973
v  2397.5012 5.9167 939.9989
v  2397.5010 5.9167 839.9988
v  2785.0010 5.9168 839.9973
v  3172.5010 5.9169 839.9958
v  3559.9951 -6.5832 252.4967
v  3659.9951 -6.5832 252.4967
v  3559.9958 -6.5833 -435.0033
v  3659.9958 -6.5833 -435.0031
v  3559.9966 -6.5834 -1122.5034
v  3659.9966 -6.5834 -1122.5032
v  3559.9951 5.9168 252.4962
v  3559.9958 5.9167 -435.0035
v  3559.9966 5.9166 -1122.5034
v  3659.9966 5.9166 -1122.5032
v  3659.9958 5.9168 -435.0031
v  3659.9951 5.9168 252.4967
v  2847.4971 -6.5832 -1810.0034
v  2847.4973 -6.5834 -1910.0035
v  2034.9969 -6.5834 -1810.0017
v  2034.9972 -6.5833 -1910.0017
v  1222.4971 -6.5834 -1810.0000
v  1222.4971 -6.5834 -1910.0000
v  2847.4963 5.9166 -1810.0034
v  2034.9967 5.9166 -1810.0017
v  1222.4971 5.9166 -1810.0000
v  1222.4969 5.9166 -1910.0000
v  2034.9972 5.9166 -1910.0017
v  2847.4973 5.9166 -1910.0035
v  1385.0055 -6.5820 -1341.2489
v  1497.5055 -6.5820 -1341.2490
v  1385.0051 -6.5820 -1497.4989
v  1497.5051 -6.5820 -1497.4990
v  1385.0049 -6.5820 -1653.7489
v  1497.5049 -6.5820 -1653.7490
v  1385.0055 5.9180 -1341.2490
v  1385.0051 5.9180 -1497.4989
v  1385.0049 5.9181 -1653.7489
v  1497.5049 5.9180 -1653.7491
v  1497.5051 5.9180 -1497.4990
v  1497.5055 5.9180 -1341.2490
v  1406.5676 -3.5825 -1095.0192
v  1327.0183 -3.5825 -1174.5688
v  1315.9695 -3.5825 -1004.4213
v  1236.4202 -3.5825 -1083.9709
v  1225.3713 -3.5826 -913.8234
v  1145.8220 -3.5826 -993.3730
v  1406.5676 8.9175 -1095.0192
v  1315.9695 8.9175 -1004.4213
v  1225.3713 8.9174 -913.8234
v  1145.8220 8.9174 -993.3730
v  1236.4202 8.9174 -1083.9709
v  1327.0183 8.9175 -1174.5688
v  978.7479 -6.5826 -823.7476
v  978.7484 -6.5826 -936.2476
v  822.4979 -6.5826 -823.7483
v  822.4984 -6.5826 -936.2483
v  666.2479 -6.5826 -823.7489
v  666.2484 -6.5826 -936.2489
v  978.7478 5.9174 -823.7476
v  822.4979 5.9174 -823.7483
v  666.2479 5.9174 -823.7489
v  666.2484 5.9174 -936.2489
v  822.4984 5.9174 -936.2483
v  978.7484 5.9174 -936.2476
# 180 vertices

vn -1.0000 0.0000 0.0000
vn 1.0000 0.0000 0.0000
vn 0.0000 0.0000 -1.0000
vn 0.0000 0.0000 1.0000
vn 0.7087 0.0000 -0.7087
vn -0.7087 0.0000 0.7087
vn 0.0000 -1.0000 0.0000
vn 0.0000 1.0000 0.0000
vn 0.7087 0.0000 0.7087
vn -0.7087 0.0000 -0.7087
# 10 vertex normals

vt 0.7842 3.1230 0.0000
vt 0.7842 2.6279 0.0000
vt 1.2832 2.6279 0.0000
vt 1.2832 3.1230 0.0000
vt 1.2832 2.6143 0.0000
vt 1.2832 2.1182 0.0000
vt 0.7842 2.1182 0.0000
vt 0.7842 2.6143 0.0000
vt 1.4961 4.9980 0.0000
vt 0.9946 4.9980 0.0000
vt 0.9946 3.7480 0.0000
vt 1.4961 3.7480 0.0000
vt 0.9946 2.4990 0.0000
vt 1.4961 2.4990 0.0000
vt 0.9946 1.2499 0.0000
vt 1.4961 1.2499 0.0000
vt 0.9946 0.0005 0.0000
vt 1.4961 0.0005 0.0000
vt 0.5015 4.9980 0.0000
vt 0.5015 3.7480 0.0000
vt 0.5015 2.4990 0.0000
vt 0.5015 1.2499 0.0000
vt 0.5015 0.0005 0.0000
vt 0.0034 0.0005 0.0000
vt 0.0025 1.2499 0.0000
vt 0.0017 2.4990 0.0000
vt 0.0008 3.7480 0.0000
vt 0.0000 4.9980 0.0000
vt 1.9893 5.0000 0.0000
vt 1.9922 3.7500 0.0000
vt 1.9941 2.5000 0.0000
vt 1.9971 1.2500 0.0000
vt 1.9990 0.0005 0.0000
# 33 texture coords

o default
g default
usemtl default
s 1
f 1/1/1 2/2/1 3/3/1 
f 3/3/1 4/4/1 1/1/1 
f 5/5/2 6/6/2 7/7/2 
f 7/7/2 8/8/2 5/5/2 
f 9/1/3 10/2/3 11/3/3 
f 11/3/3 12/4/3 9/1/3 
f 13/5/4 14/6/4 15/7/4 
f 15/7/4 16/8/4 13/5/4 
f 17/1/3 18/2/3 19/3/3 
f 19/3/3 20/4/3 17/1/3 
f 21/5/4 22/6/4 23/7/4 
f 23/7/4 24/8/4 21/5/4 
f 25/1/2 26/2/2 27/3/2 
f 27/3/2 28/4/2 25/1/2 
f 29/5/1 30/6/1 31/7/1 
f 31/7/1 32/8/1 29/5/1 
f 33/1/4 34/2/4 35/3/4 
f 35/3/4 36/4/4 33/1/4 
f 37/5/3 38/6/3 39/7/3 
f 39/7/3 40/8/3 37/5/3 
f 41/1/2 42/2/2 43/3/2 
f 43/3/2 44/4/2 41/1/2 
f 45/5/1 46/6/1 47/7/1 
f 47/7/1 48/8/1 45/5/1 
f 49/1/4 50/2/4 51/3/4 
f 51/3/4 52/4/4 49/1/4 
f 53/5/3 54/6/3 55/7/3 
f 55/7/3 56/8/3 53/5/3 
f 57/1/5 58/2/5 59/3/5 
f 59/3/5 60/4/5 57/1/5 
f 61/5/6 62/6/6 63/7/6 
f 63/7/6 64/8/6 61/5/6 
f 65/1/2 66/2/2 67/3/2 
f 67/3/2 68/4/2 65/1/2 
f 69/5/1 70/6/1 71/7/1 
f 71/7/1 72/8/1 69/5/1 
f 4/9/7 3/10/7 73/11/7 
f 73/11/7 74/12/7 4/9/7 
f 74/12/7 73/11/7 75/13/7 
f 75/13/7 76/14/7 74/12/7 
f 76/14/7 75/13/7 77/15/7 
f 77/15/7 78/16/7 76/14/7 
f 78/16/7 77/15/7 6/17/7 
f 6/17/7 5/18/7 78/16/7 
f 3/10/3 2/19/3 79/20/3 
f 79/20/3 73/11/3 3/10/3 
f 73/11/3 79/20/3 80/21/3 
f 80/21/3 75/13/3 73/11/3 
f 75/13/3 80/21/3 81/22/3 
f 81/22/3 77/15/3 75/13/3 
f 77/15/3 81/22/3 7/23/3 
f 7/23/3 6/17/3 77/15/3 
f 8/24/8 7/23/8 81/22/8 
f 81/22/8 82/25/8 8/24/8 
f 82/25/8 81/22/8 80/21/8 
f 80/21/8 83/26/8 82/25/8 
f 83/26/8 80/21/8 79/20/8 
f 79/20/8 84/27/8 83/26/8 
f 84/27/8 79/20/8 2/19/8 
f 2/19/8 1/28/8 84/27/8 
f 1/29/4 4/9/4 74/12/4 
f 74/12/4 84/30/4 1/29/4 
f 84/30/4 74/12/4 76/14/4 
f 76/14/4 83/31/4 84/30/4 
f 83/31/4 76/14/4 78/16/4 
f 78/16/4 82/32/4 83/31/4 
f 82/32/4 78/16/4 5/18/4 
f 5/18/4 8/33/4 82/32/4 
f 12/9/7 11/10/7 85/11/7 
f 85/11/7 86/12/7 12/9/7 
f 86/12/7 85/11/7 87/13/7 
f 87/13/7 88/14/7 86/12/7 
f 88/14/7 87/13/7 89/15/7 
f 89/15/7 90/16/7 88/14/7 
f 90/16/7 89/15/7 14/17/7 
f 14/17/7 13/18/7 90/16/7 
f 11/10/2 10/19/2 91/20/2 
f 91/20/2 85/11/2 11/10/2 
f 85/11/2 91/20/2 92/21/2 
f 92/21/2 87/13/2 85/11/2 
f 87/13/2 92/21/2 93/22/2 
f 93/22/2 89/15/2 87/13/2 
f 89/15/2 93/22/2 15/23/2 
f 15/23/2 14/17/2 89/15/2 
f 16/24/8 15/23/8 93/22/8 
f 93/22/8 94/25/8 16/24/8 
f 94/25/8 93/22/8 92/21/8 
f 92/21/8 95/26/8 94/25/8 
f 95/26/8 92/21/8 91/20/8 
f 91/20/8 96/27/8 95/26/8 
f 96/27/8 91/20/8 10/19/8 
f 10/19/8 9/28/8 96/27/8 
f 9/29/1 12/9/1 86/12/1 
f 86/12/1 96/30/1 9/29/1 
f 96/30/1 86/12/1 88/14/1 
f 88/14/1 95/31/1 96/30/1 
f 95/31/1 88/14/1 90/16/1 
f 90/16/1 94/32/1 95/31/1 
f 94/32/1 90/16/1 13/18/1 
f 13/18/1 16/33/1 94/32/1 
f 20/9/7 19/10/7 97/11/7 
f 97/11/7 98/12/7 20/9/7 
f 98/12/7 97/11/7 99/13/7 
f 99/13/7 100/14/7 98/12/7 
f 100/14/7 99/13/7 101/15/7 
f 101/15/7 102/16/7 100/14/7 
f 102/16/7 101/15/7 22/17/7 
f 22/17/7 21/18/7 102/16/7 
f 19/10/2 18/19/2 103/20/2 
f 103/20/2 97/11/2 19/10/2 
f 97/11/2 103/20/2 104/21/2 
f 104/21/2 99/13/2 97/11/2 
f 99/13/2 104/21/2 105/22/2 
f 105/22/2 101/15/2 99/13/2 
f 101/15/2 105/22/2 23/23/2 
f 23/23/2 22/17/2 101/15/2 
f 24/24/8 23/23/8 105/22/8 
f 105/22/8 106/25/8 24/24/8 
f 106/25/8 105/22/8 104/21/8 
f 104/21/8 107/26/8 106/25/8 
f 107/26/8 104/21/8 103/20/8 
f 103/20/8 108/27/8 107/26/8 
f 108/27/8 103/20/8 18/19/8 
f 18/19/8 17/28/8 108/27/8 
f 17/29/1 20/9/1 98/12/1 
f 98/12/1 108/30/1 17/29/1 
f 108/30/1 98/12/1 100/14/1 
f 100/14/1 107/31/1 108/30/1 
f 107/31/1 100/14/1 102/16/1 
f 102/16/1 106/32/1 107/31/1 
f 106/32/1 102/16/1 21/18/1 
f 21/18/1 24/33/1 106/32/1 
f 28/9/7 27/10/7 109/11/7 
f 109/11/7 110/12/7 28/9/7 
f 110/12/7 109/11/7 111/13/7 
f 111/13/7 112/14/7 110/12/7 
f 112/14/7 111/13/7 113/15/7 
f 113/15/7 114/16/7 112/14/7 
f 114/16/7 113/15/7 30/17/7 
f 30/17/7 29/18/7 114/16/7 
f 27/10/4 26/19/4 115/20/4 
f 115/20/4 109/11/4 27/10/4 
f 109/11/4 115/20/4 116/21/4 
f 116/21/4 111/13/4 109/11/4 
f 111/13/4 116/21/4 117/22/4 
f 117/22/4 113/15/4 111/13/4 
f 113/15/4 117/22/4 31/23/4 
f 31/23/4 30/17/4 113/15/4 
f 32/24/8 31/23/8 117/22/8 
f 117/22/8 118/25/8 32/24/8 
f 118/25/8 117/22/8 116/21/8 
f 116/21/8 119/26/8 118/25/8 
f 119/26/8 116/21/8 115/20/8 
f 115/20/8 120/27/8 119/26/8 
f 120/27/8 115/20/8 26/19/8 
f 26/19/8 25/28/8 120/27/8 
f 25/29/3 28/9/3 110/12/3 
f 110/12/3 120/30/3 25/29/3 
f 120/30/3 110/12/3 112/14/3 
f 112/14/3 119/31/3 120/30/3 
f 119/31/3 112/14/3 114/16/3 
f 114/16/3 118/32/3 119/31/3 
f 118/32/3 114/16/3 29/18/3 
f 29/18/3 32/33/3 118/32/3 
f 36/9/7 35/10/7 121/11/7 
f 121/11/7 122/12/7 36/9/7 
f 122/12/7 121/11/7 123/13/7 
f 123/13/7 124/14/7 122/12/7 
f 124/14/7 123/13/7 125/15/7 
f 125/15/7 126/16/7 124/14/7 
f 126/16/7 125/15/7 38/17/7 
f 38/17/7 37/18/7 126/16/7 
f 35/10/1 34/19/1 127/20/1 
f 127/20/1 121/11/1 35/10/1 
f 121/11/1 127/20/1 128/21/1 
f 128/21/1 123/13/1 121/11/1 
f 123/13/1 128/21/1 129/22/1 
f 129/22/1 125/15/1 123/13/1 
f 125/15/1 129/22/1 39/23/1 
f 39/23/1 38/17/1 125/15/1 
f 40/24/8 39/23/8 129/22/8 
f 129/22/8 130/25/8 40/24/8 
f 130/25/8 129/22/8 128/21/8 
f 128/21/8 131/26/8 130/25/8 
f 131/26/8 128/21/8 127/20/8 
f 127/20/8 132/27/8 131/26/8 
f 132/27/8 127/20/8 34/19/8 
f 34/19/8 33/28/8 132/27/8 
f 33/29/2 36/9/2 122/12/2 
f 122/12/2 132/30/2 33/29/2 
f 132/30/2 122/12/2 124/14/2 
f 124/14/2 131/31/2 132/30/2 
f 131/31/2 124/14/2 126/16/2 
f 126/16/2 130/32/2 131/31/2 
f 130/32/2 126/16/2 37/18/2 
f 37/18/2 40/33/2 130/32/2 
f 44/9/7 43/10/7 133/11/7 
f 133/11/7 134/12/7 44/9/7 
f 134/12/7 133/11/7 135/13/7 
f 135/13/7 136/14/7 134/12/7 
f 136/14/7 135/13/7 137/15/7 
f 137/15/7 138/16/7 136/14/7 
f 138/16/7 137/15/7 46/17/7 
f 46/17/7 45/18/7 138/16/7 
f 43/10/4 42/19/4 139/20/4 
f 139/20/4 133/11/4 43/10/4 
f 133/11/4 139/20/4 140/21/4 
f 140/21/4 135/13/4 133/11/4 
f 135/13/4 140/21/4 141/22/4 
f 141/22/4 137/15/4 135/13/4 
f 137/15/4 141/22/4 47/23/4 
f 47/23/4 46/17/4 137/15/4 
f 48/24/8 47/23/8 141/22/8 
f 141/22/8 142/25/8 48/24/8 
f 142/25/8 141/22/8 140/21/8 
f 140/21/8 143/26/8 142/25/8 
f 143/26/8 140/21/8 139/20/8 
f 139/20/8 144/27/8 143/26/8 
f 144/27/8 139/20/8 42/19/8 
f 42/19/8 41/28/8 144/27/8 
f 41/29/3 44/9/3 134/12/3 
f 134/12/3 144/30/3 41/29/3 
f 144/30/3 134/12/3 136/14/3 
f 136/14/3 143/31/3 144/30/3 
f 143/31/3 136/14/3 138/16/3 
f 138/16/3 142/32/3 143/31/3 
f 142/32/3 138/16/3 45/18/3 
f 45/18/3 48/33/3 142/32/3 
f 52/9/7 51/10/7 145/11/7 
f 145/11/7 146/12/7 52/9/7 
f 146/12/7 145/11/7 147/13/7 
f 147/13/7 148/14/7 146/12/7 
f 148/14/7 147/13/7 149/15/7 
f 149/15/7 150/16/7 148/14/7 
f 150/16/7 149/15/7 54/17/7 
f 54/17/7 53/18/7 150/16/7 
f 51/10/1 50/19/1 151/20/1 
f 151/20/1 145/11/1 51/10/1 
f 145/11/1 151/20/1 152/21/1 
f 152/21/1 147/13/1 145/11/1 
f 147/13/1 152/21/1 153/22/1 
f 153/22/1 149/15/1 147/13/1 
f 149/15/1 153/22/1 55/23/1 
f 55/23/1 54/17/1 149/15/1 
f 56/24/8 55/23/8 153/22/8 
f 153/22/8 154/25/8 56/24/8 
f 154/25/8 153/22/8 152/21/8 
f 152/21/8 155/26/8 154/25/8 
f 155/26/8 152/21/8 151/20/8 
f 151/20/8 156/27/8 155/26/8 
f 156/27/8 151/20/8 50/19/8 
f 50/19/8 49/28/8 156/27/8 
f 49/29/2 52/9/2 146/12/2 
f 146/12/2 156/30/2 49/29/2 
f 156/30/2 146/12/2 148/14/2 
f 148/14/2 155/31/2 156/30/2 
f 155/31/2 148/14/2 150/16/2 
f 150/16/2 154/32/2 155/31/2 
f 154/32/2 150/16/2 53/18/2 
f 53/18/2 56/33/2 154/32/2 
f 60/9/7 59/10/7 157/11/7 
f 157/11/7 158/12/7 60/9/7 
f 158/12/7 157/11/7 159/13/7 
f 159/13/7 160/14/7 158/12/7 
f 160/14/7 159/13/7 161/15/7 
f 161/15/7 162/16/7 160/14/7 
f 162/16/7 161/15/7 62/17/7 
f 62/17/7 61/18/7 162/16/7 
f 59/10/9 58/19/9 163/20/9 
f 163/20/9 157/11/9 59/10/9 
f 157/11/9 163/20/9 164/21/9 
f 164/21/9 159/13/9 157/11/9 
f 159/13/9 164/21/9 165/22/9 
f 165/22/9 161/15/9 159/13/9 
f 161/15/9 165/22/9 63/23/9 
f 63/23/9 62/17/9 161/15/9 
f 64/24/8 63/23/8 165/22/8 
f 165/22/8 166/25/8 64/24/8 
f 166/25/8 165/22/8 164/21/8 
f 164/21/8 167/26/8 166/25/8 
f 167/26/8 164/21/8 163/20/8 
f 163/20/8 168/27/8 167/26/8 
f 168/27/8 163/20/8 58/19/8 
f 58/19/8 57/28/8 168/27/8 
f 57/29/10 60/9/10 158/12/10 
f 158/12/10 168/30/10 57/29/10 
f 168/30/10 158/12/10 160/14/10 
f 160/14/10 167/31/10 168/30/10 
f 167/31/10 160/14/10 162/16/10 
f 162/16/10 166/32/10 167/31/10 
f 166/32/10 162/16/10 61/18/10 
f 61/18/10 64/33/10 166/32/10 
f 68/9/7 67/10/7 169/11/7 
f 169/11/7 170/12/7 68/9/7 
f 170/12/7 169/11/7 171/13/7 
f 171/13/7 172/14/7 170/12/7 
f 172/14/7 171/13/7 173/15/7 
f 173/15/7 174/16/7 172/14/7 
f 174/16/7 173/15/7 70/17/7 
f 70/17/7 69/18/7 174/16/7 
f 67/10/4 66/19/4 175/20/4 
f 175/20/4 169/11/4 67/10/4 
f 169/11/4 175/20/4 176/21/4 
f 176/21/4 171/13/4 169/11/4 
f 171/13/4 176/21/4 177/22/4 
f 177/22/4 173/15/4 171/13/4 
f 173/15/4 177/22/4 71/23/4 
f 71/23/4 70/17/4 173/15/4 
f 72/24/8 71/23/8 177/22/8 
f 177/22/8 178/25/8 72/24/8 
f 178/25/8 177/22/8 176/21/8 
f 176/21/8 179/26/8 178/25/8 
f 179/26/8 176/21/8 175/20/8 
f 175/20/8 180/27/8 179/26/8 
f 180/27/8 175/20/8 66/19/8 
f 66/19/8 65/28/8 180/27/8 
f 65/29/3 68/9/3 170/12/3 
f 170/12/3 180/30/3 65/29/3 
f 180/30/3 170/12/3 172/14/3 
f 172/14/3 179/31/3 180/30/3 
f 179/31/3 172/14/3 174/16/3 
f 174/16/3 178/32/3 179/31/3 
f 178/32/3 174/16/3 69/18/3 
f 69/18/3 72/33/3 178/32/3 
# 0 polygons - 324 triangles

