# 3ds Max Wavefront OBJ Exporter v0.99 - (c)2007 guruware
# File Created: 28.05.2022 21:08:58

mtllib walls.mtl

#
# object UnrealEdObject
#

v  260.0029 -3.5038 2110.0032
v  2160.0029 -3.5038 2110.0022
v  2160.0029 296.4962 2110.0022
v  260.0029 296.4962 2110.0032
v  260.0029 -3.5038 2090.0032
v  260.0029 296.4962 2090.0032
v  2160.0029 296.4962 2090.0022
v  2160.0029 -3.5038 2090.0022
v  260.0031 -3.5038 2110.0029
v  260.0011 -3.5038 -2089.9971
v  260.0011 296.4962 -2089.9971
v  260.0031 296.4962 2110.0029
v  240.0031 -3.5038 2110.0029
v  240.0031 296.4962 2110.0029
v  240.0011 296.4962 -2089.9971
v  240.0011 -3.5038 -2089.9971
v  239.9962 -3.5038 -2089.9976
v  3839.9961 -3.5038 -2089.9966
v  3839.9961 296.4962 -2089.9966
v  239.9962 296.4962 -2089.9976
v  239.9962 -3.5038 -2109.9976
v  239.9962 296.4962 -2109.9976
v  3839.9961 296.4962 -2109.9966
v  3839.9961 -3.5038 -2109.9966
v  3839.9966 -3.5038 -2110.0034
v  3839.9934 -3.5038 1089.9968
v  3839.9934 296.4962 1089.9968
v  3839.9966 296.4962 -2110.0034
v  3859.9966 -3.5038 -2110.0034
v  3859.9966 296.4962 -2110.0034
v  3859.9934 296.4962 1089.9968
v  3859.9934 -3.5038 1089.9968
v  2860.0015 -3.5038 1109.9988
v  3860.0015 -3.5038 1109.9982
v  3860.0015 296.4962 1109.9983
v  2860.0015 296.4962 1109.9988
v  2860.0015 -3.5038 1089.9988
v  2860.0015 296.4962 1089.9988
v  3860.0015 296.4962 1089.9983
v  3860.0015 -3.5038 1089.9982
v  2160.0022 -3.5038 1109.9996
v  2560.0022 -3.5038 1109.9994
v  2560.0022 296.4962 1109.9995
v  2160.0022 296.4962 1109.9996
v  2160.0022 -3.5038 1089.9996
v  2160.0022 296.4962 1089.9996
v  2560.0022 296.4962 1089.9995
v  2560.0022 -3.5038 1089.9994
v  2160.0037 -3.5038 2089.9995
v  2160.0017 -3.5038 1089.9996
v  2160.0017 296.4962 1089.9996
v  2160.0037 296.4962 2089.9995
v  2140.0037 -3.5038 2089.9995
v  2140.0037 296.4962 2089.9995
v  2140.0017 296.4962 1089.9998
v  2140.0017 -3.5038 1089.9998
v  2560.0017 -3.5038 1104.9994
v  2860.0017 -3.5038 1104.9993
v  2860.0017 146.4962 1104.9993
v  2560.0017 146.4962 1104.9994
v  2560.0017 -3.5038 1094.9994
v  2560.0017 146.4962 1094.9994
v  2860.0017 146.4962 1094.9993
v  2860.0017 -3.5038 1094.9993
# 64 vertices

vn 0.0000 0.0000 1.0000
vn -0.0000 0.0000 -1.0000
vn -0.0000 -0.0000 -1.0000
vn 0.0000 -1.0000 -0.0000
vn 1.0000 0.0000 -0.0000
vn 0.0000 1.0000 -0.0000
vn -1.0000 0.0000 -0.0000
vn -1.0000 0.0000 0.0000
vn 0.0000 0.0000 -1.0000
vn -0.0000 0.0000 1.0000
vn 1.0000 0.0000 0.0000
vn -0.0000 -1.0000 -0.0000
vn 0.0000 1.0000 0.0000
vn -0.0000 1.0000 0.0000
vn 0.0000 -0.0000 1.0000
vn 0.0000 -1.0000 0.0000
vn -0.0000 1.0000 -0.0000
# 17 vertex normals

vt 3.9980 0.0000 0.0000
vt -0.0000 0.0000 0.0000
vt -0.0000 2.9990 0.0000
vt 3.9980 2.9990 0.0000
vt 2.0977 0.0020 0.0000
vt 1.8984 0.0020 0.0000
vt 1.8984 3.9980 0.0000
vt 2.0977 3.9980 0.0000
vt 2.0977 2.9990 0.0000
vt 1.8984 2.9990 0.0000
vt 1.8984 0.0000 0.0000
vt 2.0977 0.0000 0.0000
# 12 texture coords

o UnrealEdObject
g UnrealEdObject
usemtl default
s off
f 1/1/1 2/2/1 3/3/1 
f 3/3/1 4/4/1 1/1/1 
f 5/2/2 6/3/2 7/4/3 
f 7/4/2 8/1/2 5/2/3 
f 8/5/4 2/6/4 1/7/4 
f 1/7/4 5/8/4 8/5/4 
f 7/9/5 3/10/5 2/11/5 
f 2/11/5 8/12/5 7/9/5 
f 6/8/6 4/7/6 3/6/6 
f 3/6/6 7/5/6 6/8/6 
f 6/9/7 5/12/7 1/11/7 
f 1/11/7 4/10/7 6/9/7 
f 9/1/5 10/2/5 11/3/5 
f 11/3/5 12/4/5 9/1/5 
f 13/2/8 14/3/8 15/4/8 
f 15/4/8 16/1/8 13/2/8 
f 16/5/4 10/6/4 9/7/4 
f 9/7/4 13/8/4 16/5/4 
f 15/9/9 11/10/9 10/11/9 
f 10/11/9 16/12/9 15/9/9 
f 14/8/6 12/7/6 11/6/6 
f 11/6/6 15/5/6 14/8/6 
f 14/9/1 13/12/1 9/11/1 
f 9/11/1 12/10/1 14/9/1 
f 17/1/10 18/2/10 19/3/10 
f 19/3/10 20/4/10 17/1/10 
f 21/2/9 22/3/9 23/4/9 
f 23/4/9 24/1/9 21/2/9 
f 24/5/4 18/6/4 17/7/4 
f 17/7/4 21/8/4 24/5/4 
f 23/9/5 19/10/5 18/11/5 
f 18/11/5 24/12/5 23/9/5 
f 22/8/6 20/7/6 19/6/6 
f 19/6/6 23/5/6 22/8/6 
f 22/9/7 21/12/7 17/11/7 
f 17/11/7 20/10/7 22/9/7 
f 25/1/7 26/2/7 27/3/7 
f 27/3/7 28/4/7 25/1/7 
f 29/2/11 30/3/11 31/4/11 
f 31/4/11 32/1/11 29/2/11 
f 32/5/4 26/6/4 25/7/12 
f 25/7/4 29/8/4 32/5/12 
f 31/9/1 27/10/1 26/11/1 
f 26/11/1 32/12/1 31/9/1 
f 30/8/13 28/7/13 27/6/14 
f 27/6/13 31/5/13 30/8/14 
f 30/9/9 29/12/9 25/11/9 
f 25/11/9 28/10/9 30/9/9 
f 33/1/15 34/2/15 35/3/15 
f 35/3/15 36/4/1 33/1/1 
f 37/2/2 38/3/2 39/4/2 
f 39/4/2 40/1/2 37/2/2 
f 40/5/4 34/6/4 33/7/4 
f 33/7/4 37/8/4 40/5/4 
f 39/9/5 35/10/5 34/11/5 
f 34/11/5 40/12/5 39/9/5 
f 38/8/6 36/7/6 35/6/6 
f 35/6/6 39/5/6 38/8/6 
f 38/9/7 37/12/7 33/11/7 
f 33/11/7 36/10/7 38/9/7 
f 41/1/15 42/2/15 43/3/15 
f 43/3/1 44/4/1 41/1/1 
f 45/2/2 46/3/2 47/4/2 
f 47/4/2 48/1/2 45/2/2 
f 48/5/4 42/6/4 41/7/4 
f 41/7/4 45/8/4 48/5/4 
f 47/9/5 43/10/5 42/11/5 
f 42/11/5 48/12/5 47/9/5 
f 46/8/6 44/7/6 43/6/6 
f 43/6/6 47/5/6 46/8/6 
f 46/9/7 45/12/7 41/11/7 
f 41/11/7 44/10/7 46/9/7 
f 49/1/5 50/2/5 51/3/5 
f 51/3/5 52/4/5 49/1/5 
f 53/2/8 54/3/8 55/4/8 
f 55/4/8 56/1/8 53/2/8 
f 56/5/16 50/6/16 49/7/16 
f 49/7/16 53/8/16 56/5/16 
f 55/9/2 51/10/2 50/11/2 
f 50/11/2 56/12/2 55/9/2 
f 54/8/6 52/7/6 51/6/6 
f 51/6/17 55/5/17 54/8/17 
f 54/9/1 53/12/1 49/11/1 
f 49/11/1 52/10/1 54/9/1 
f 57/1/15 58/2/1 59/3/1 
f 59/3/15 60/4/1 57/1/1 
f 61/2/2 62/3/2 63/4/2 
f 63/4/2 64/1/2 61/2/2 
f 64/5/4 58/6/4 57/7/4 
f 57/7/4 61/8/4 64/5/4 
f 63/9/5 59/10/5 58/11/5 
f 58/11/5 64/12/5 63/9/5 
f 62/8/6 60/7/6 59/6/6 
f 59/6/6 63/5/6 62/8/6 
f 62/9/7 61/12/7 57/11/7 
f 57/11/7 60/10/7 62/9/7 
# 0 polygons - 96 triangles

